<?xml version="1.0" encoding="utf-8"?>
<!-- Generator: Adobe Illustrator 19.1.1, SVG Export Plug-In . SVG Version: 6.00 Build 0)  -->
<svg version="1.1" id="Layer_1" xmlns="http://www.w3.org/2000/svg" xmlns:xlink="http://www.w3.org/1999/xlink" x="0px" y="0px"
	 viewBox="0 0 612 792" style="enable-background:new 0 0 612 792;" xml:space="preserve">
<style type="text/css">
	.st0{fill:#8D5D3C;}
	.st1{fill:none;stroke:#3E281C;stroke-width:1.1764;stroke-linecap:round;stroke-miterlimit:10;}
	.st2{fill:#AE7D4F;}
	.st3{fill:#3E281C;stroke:#3E281C;stroke-width:1.1764;stroke-miterlimit:10;}
	.st4{fill:#784C2C;}
	.st5{fill:#3E281C;}
	.st6{fill:none;stroke:#000000;stroke-width:1.1764;stroke-miterlimit:10;}
	.st7{fill:none;stroke:#3E281C;stroke-width:0.3921;stroke-miterlimit:10;}
</style>
<g>
	<g>
		<ellipse class="st0" cx="53" cy="52.4" rx="44.9" ry="45.4"/>
		<g>
			<path class="st1" d="M82.2,62.2c-12.9,3.5-22.5,3.1-29.4-3.2c0,0-1.2-2.1-1.7-3.7c-1.7-5.7-5.2-14.4-10.7-15.2
				c-5.3-0.9-13.7,3.1-11.7,15.9"/>
			<g>
				<path class="st2" d="M81.5,59.3L81.5,59.3c1.1-0.3,2.2,0.4,2.5,1.5l0.5,2c0.3,1.1-0.4,2.2-1.5,2.5l0,0c-1.1,0.3-2.2-0.4-2.5-1.5
					l-0.5-2C79.7,60.7,80.4,59.5,81.5,59.3z"/>
				<path class="st3" d="M81.2,59.4L81.2,59.4c0.9-0.2,1.9,0.4,2.1,1.3l0.6,2.5c0.2,0.9-0.4,1.9-1.3,2.1h0c-0.9,0.2-1.9-0.4-2.1-1.3
					l-0.6-2.5C79.7,60.6,80.3,59.6,81.2,59.4z"/>
			</g>
			<g>
				<path class="st2" d="M78,59.4L78,59.4c1.3-0.3,2.7,0.5,3,1.8l0.6,2.5c0.3,1.3-0.5,2.7-1.9,3l0,0c-1.3,0.3-2.7-0.5-3-1.8
					l-0.6-2.5C75.9,61.1,76.7,59.7,78,59.4z"/>
				<path class="st3" d="M77.7,59.6L77.7,59.6c1.1-0.3,2.3,0.4,2.6,1.6l0.7,3.1c0.3,1.1-0.4,2.3-1.6,2.5l0,0
					c-1.1,0.3-2.3-0.4-2.6-1.6l-0.7-3.1C75.8,61,76.6,59.8,77.7,59.6z"/>
			</g>
			<g>
				<path class="st2" d="M74.6,60.2L74.6,60.2c1.3-0.3,2.7,0.5,3,1.8l0.6,2.5c0.3,1.3-0.5,2.7-1.9,3l0,0c-1.3,0.3-2.7-0.5-3-1.8
					l-0.6-2.5C72.4,61.9,73.2,60.5,74.6,60.2z"/>
				<path class="st3" d="M74.2,60.4L74.2,60.4c1.1-0.3,2.3,0.4,2.6,1.6l0.7,3.1c0.3,1.1-0.4,2.3-1.6,2.5l0,0
					c-1.1,0.3-2.3-0.4-2.6-1.6l-0.7-3.1C72.4,61.8,73.1,60.6,74.2,60.4z"/>
			</g>
			<g>
				<path class="st2" d="M71.8,60.8L71.8,60.8c1.4-0.2,2.7,0.7,2.9,2.1l0.4,2.5c0.2,1.4-0.7,2.6-2.1,2.8h0c-1.4,0.2-2.7-0.7-2.9-2.1
					l-0.4-2.5C69.5,62.3,70.5,61,71.8,60.8z"/>
				<path class="st3" d="M71.4,60.9L71.4,60.9c1.2-0.2,2.2,0.6,2.4,1.7l0.5,3.1c0.2,1.1-0.6,2.2-1.8,2.4l0,0
					c-1.2,0.2-2.2-0.6-2.4-1.7l-0.5-3.1C69.5,62.2,70.3,61.1,71.4,60.9z"/>
			</g>
			<g>
				<path class="st2" d="M67.8,61l1.9,0c0.8,0,1.5,0.7,1.6,1.5l0.1,4.4c0,0.8-0.7,1.5-1.5,1.6l-1.9,0c-0.8,0-1.5-0.7-1.6-1.5
					l-0.1-4.4C66.3,61.7,66.9,61,67.8,61z"/>
				<path class="st3" d="M67.5,61l1.6,0c0.7,0,1.3,0.6,1.3,1.3l0.1,4.8c0,0.7-0.6,1.3-1.3,1.3l-1.6,0c-0.7,0-1.3-0.6-1.3-1.3
					l-0.1-4.8C66.3,61.6,66.8,61,67.5,61z"/>
			</g>
			<g>
				<path class="st2" d="M66.1,61L66.1,61c1.4,0.2,2.3,1.5,2,2.9l-0.4,2.5c-0.2,1.3-1.5,2.3-2.9,2h0c-1.4-0.2-2.3-1.5-2-2.9l0.4-2.5
					C63.4,61.7,64.7,60.8,66.1,61z"/>
				<path class="st3" d="M65.7,61L65.7,61c1.1,0.2,1.9,1.3,1.7,2.4l-0.5,3.1c-0.2,1.1-1.3,1.9-2.5,1.7l0,0c-1.1-0.2-1.9-1.3-1.7-2.4
					l0.5-3.1C63.4,61.6,64.5,60.8,65.7,61z"/>
			</g>
			<g>
				<path class="st2" d="M63,60.4L63,60.4c1.3,0.5,1.9,2,1.4,3.3l-1,2.3c-0.5,1.3-2,1.9-3.3,1.3h0c-1.3-0.5-1.9-2-1.4-3.3l1-2.3
					C60.3,60.5,61.8,59.9,63,60.4z"/>
				<path class="st3" d="M62.7,60.3L62.7,60.3c1.1,0.4,1.6,1.7,1.1,2.7l-1.2,2.9c-0.4,1.1-1.7,1.6-2.8,1.1h0
					c-1.1-0.4-1.6-1.7-1.1-2.7l1.2-2.9C60.3,60.3,61.6,59.8,62.7,60.3z"/>
			</g>
			<g>
				<path class="st2" d="M60.2,59.5L60.2,59.5c1.1,0.8,1.4,2.3,0.7,3.5l-1.4,2.1c-0.8,1.1-2.3,1.4-3.5,0.7h0
					c-1.1-0.8-1.4-2.3-0.7-3.5l1.4-2.1C57.5,59.1,59.1,58.8,60.2,59.5z"/>
				<path class="st3" d="M59.8,59.4L59.8,59.4c1,0.6,1.2,2,0.6,2.9l-1.8,2.6c-0.7,1-2,1.2-2.9,0.6v0c-1-0.6-1.2-2-0.6-2.9l1.8-2.6
					C57.6,59,58.9,58.7,59.8,59.4z"/>
			</g>
			<g>
				<path class="st2" d="M57.2,57.6L57.2,57.6c1.1,0.8,1.4,2.3,0.7,3.5l-1.4,2.1c-0.8,1.1-2.3,1.4-3.5,0.7l0,0
					c-1.1-0.8-1.4-2.3-0.7-3.5l1.4-2.1C54.5,57.1,56,56.8,57.2,57.6z"/>
				<path class="st3" d="M56.8,57.4L56.8,57.4c1,0.6,1.2,2,0.6,2.9l-1.8,2.6c-0.7,1-2,1.2-2.9,0.6l0,0c-1-0.6-1.2-2-0.6-2.9l1.8-2.6
					C54.5,57,55.9,56.7,56.8,57.4z"/>
			</g>
			<g>
				<path class="st2" d="M55.5,55.9L55.5,55.9c0.9,1,0.9,2.6-0.1,3.5l-1.9,1.7C52.6,62.1,51,62,50,61l0,0c-0.9-1-0.9-2.6,0.1-3.5
					l1.9-1.7C53,54.9,54.6,54.9,55.5,55.9z"/>
				<path class="st3" d="M55.2,55.7L55.2,55.7c0.8,0.8,0.8,2.2-0.1,3l-2.3,2.1c-0.9,0.8-2.2,0.7-3-0.1l0,0c-0.8-0.8-0.8-2.2,0.1-3
					l2.3-2.1C53.1,54.8,54.4,54.8,55.2,55.7z"/>
			</g>
			<g>
				<path class="st2" d="M54.7,53.5L54.7,53.5c0.7,1.2,0.3,2.7-0.9,3.4l-2.2,1.3c-1.2,0.7-2.7,0.3-3.4-0.9l0,0
					c-0.7-1.2-0.3-2.7,0.9-3.4l2.2-1.3C52.5,51.9,54,52.4,54.7,53.5z"/>
				<path class="st3" d="M54.4,53.2L54.4,53.2c0.6,1,0.2,2.3-0.8,2.9l-2.7,1.6c-1,0.6-2.3,0.2-2.9-0.8v0c-0.6-1-0.2-2.3,0.8-2.9
					l2.7-1.6C52.6,51.9,53.9,52.2,54.4,53.2z"/>
			</g>
			<g>
				<path class="st2" d="M53.7,50.7L53.7,50.7c0.4,1.3-0.4,2.7-1.7,3.1l-2.4,0.7c-1.3,0.4-2.7-0.4-3.1-1.7l0,0
					c-0.4-1.3,0.4-2.7,1.7-3.1l2.4-0.7C51.9,48.6,53.3,49.4,53.7,50.7z"/>
				<path class="st3" d="M53.6,50.4L53.6,50.4c0.3,1.1-0.3,2.3-1.4,2.6l-3,0.9c-1.1,0.3-2.3-0.3-2.6-1.4l0,0
					c-0.3-1.1,0.3-2.3,1.4-2.6l3-0.9C52.1,48.6,53.2,49.3,53.6,50.4z"/>
			</g>
			<g>
				<path class="st2" d="M51.9,46.4L51.9,46.4c0.7,1.2,0.2,2.7-1,3.4L48.7,51c-1.2,0.7-2.7,0.2-3.4-0.9v0c-0.7-1.2-0.2-2.7,1-3.4
					l2.2-1.2C49.7,44.8,51.2,45.2,51.9,46.4z"/>
				<path class="st3" d="M51.6,46.1L51.6,46.1c0.6,1,0.2,2.3-0.8,2.9l-2.8,1.5c-1,0.6-2.3,0.2-2.9-0.8l0,0c-0.6-1-0.2-2.3,0.8-2.9
					l2.8-1.5C49.8,44.7,51.1,45.1,51.6,46.1z"/>
			</g>
			<g>
				<path class="st2" d="M49.7,42.3L49.7,42.3c0.8,1.1,0.4,2.7-0.7,3.4l-2.1,1.4c-1.1,0.8-2.7,0.4-3.5-0.7l0,0
					c-0.8-1.1-0.4-2.7,0.7-3.4l2.1-1.4C47.3,40.8,48.9,41.1,49.7,42.3z"/>
				<path class="st3" d="M49.4,42L49.4,42c0.6,1,0.4,2.3-0.6,2.9l-2.6,1.7c-1,0.6-2.3,0.4-2.9-0.6v0c-0.6-1-0.4-2.3,0.6-2.9l2.6-1.7
					C47.4,40.8,48.7,41,49.4,42z"/>
			</g>
			<g>
				<path class="st2" d="M46.9,39.8L46.9,39.8c1,1,1,2.6,0,3.5L45,45.1c-1,1-2.6,0.9-3.5,0l0,0c-1-1-1-2.6,0-3.5l1.8-1.8
					C44.3,38.8,45.9,38.8,46.9,39.8z"/>
				<path class="st3" d="M46.5,39.5L46.5,39.5c0.8,0.8,0.8,2.2,0,3l-2.3,2.2c-0.8,0.8-2.2,0.8-3,0l0,0c-0.8-0.8-0.8-2.2,0-3l2.3-2.2
					C44.4,38.7,45.7,38.7,46.5,39.5z"/>
			</g>
			<g>
				<path class="st2" d="M42.8,37.3L42.8,37.3c1.2,0.7,1.6,2.3,0.9,3.5L42.4,43c-0.7,1.2-2.2,1.6-3.4,0.9l-0.1,0
					c-1.2-0.7-1.6-2.2-0.9-3.4l1.3-2.2C40.1,37,41.6,36.6,42.8,37.3z"/>
				<path class="st3" d="M42.5,37.1L42.5,37.1c1,0.6,1.3,1.9,0.8,2.9l-1.6,2.7c-0.6,1-1.9,1.3-2.9,0.7h0c-1-0.6-1.3-1.9-0.8-2.9
					l1.6-2.7C40.2,36.9,41.5,36.5,42.5,37.1z"/>
			</g>
			<g>
				<path class="st2" d="M37.2,36.3L37.2,36.3c1.4,0,2.6,1.2,2.5,2.5l0,2.6c0,1.4-1.1,2.4-2.5,2.4l-0.1,0c-1.4,0-2.5-1.2-2.5-2.5
					l0-2.6C34.7,37.3,35.9,36.2,37.2,36.3z"/>
				<path class="st3" d="M36.9,36.3L36.9,36.3c1.2,0,2.1,1,2.1,2.2l0,3.2c0,1.2-1,2.1-2.1,2.1h0c-1.2,0-2.1-1-2.1-2.2l0-3.2
					C34.7,37.2,35.7,36.3,36.9,36.3z"/>
			</g>
			<g>
				<path class="st2" d="M31.9,37.5L31.9,37.5c1.3-0.5,2.8,0.2,3.3,1.4l0.9,2.4c0.5,1.3-0.2,2.7-1.4,3.2l-0.1,0
					c-1.3,0.5-2.8-0.2-3.2-1.4l-0.9-2.4C30,39.4,30.6,37.9,31.9,37.5z"/>
				<path class="st3" d="M31.6,37.6L31.6,37.6c1.1-0.4,2.4,0.1,2.8,1.2l1.2,2.9c0.4,1.1-0.1,2.3-1.2,2.7h0c-1.1,0.4-2.4-0.1-2.8-1.2
					l-1.2-2.9C30,39.3,30.5,38.1,31.6,37.6z"/>
			</g>
			<g>
				<path class="st2" d="M27.7,41.1L27.7,41.1c1-1,2.6-0.9,3.6,0l1.8,1.9c1,1,0.9,2.5-0.1,3.5l0,0c-1,0.9-2.6,0.9-3.6-0.1l-1.8-1.9
					C26.7,43.6,26.7,42,27.7,41.1z"/>
				<path class="st3" d="M27.5,41.4L27.5,41.4c0.9-0.8,2.2-0.8,3,0.1l2.2,2.3c0.8,0.8,0.8,2.2-0.1,3l0,0c-0.9,0.8-2.2,0.8-3-0.1
					l-2.2-2.3C26.6,43.5,26.7,42.2,27.5,41.4z"/>
			</g>
			<g>
				<path class="st2" d="M25.1,45.6L25.1,45.6c0.5-1.3,2-2,3.3-1.5l2.4,0.9c1.3,0.5,1.9,1.9,1.4,3.2l0,0.1c-0.5,1.3-2,1.9-3.3,1.4
					l-2.4-0.9C25.2,48.3,24.6,46.9,25.1,45.6z"/>
				<path class="st3" d="M25.1,46L25.1,46c0.4-1.1,1.7-1.6,2.8-1.2l3,1.1c1.1,0.4,1.6,1.7,1.2,2.7l0,0c-0.4,1.1-1.7,1.6-2.8,1.2
					l-3-1.1C25.1,48.3,24.6,47,25.1,46z"/>
			</g>
			<g>
				<path class="st2" d="M24.4,51.1L24.4,51.1c-0.1-1.4,1-2.6,2.3-2.7l2.6-0.2c1.4-0.1,2.5,0.9,2.6,2.3l0,0.1c0.1,1.4-1,2.6-2.3,2.7
					L27,53.4C25.7,53.5,24.5,52.4,24.4,51.1z"/>
				<path class="st3" d="M24.5,51.4L24.5,51.4c-0.1-1.2,0.8-2.2,2-2.3l3.2-0.2c1.2-0.1,2.2,0.8,2.2,2v0c0.1,1.2-0.8,2.2-2,2.3
					l-3.2,0.2C25.6,53.5,24.5,52.6,24.5,51.4z"/>
			</g>
			<g>
				<path class="st4" d="M23.6,55.6L23.6,55.6c-0.1-1.7,1.2-3.2,2.9-3.3l3.2-0.2c1.7-0.1,3.1,1.1,3.2,2.8l0,0.1
					c0.1,1.7-1.2,3.1-2.9,3.3l-3.2,0.2C25.1,58.6,23.7,57.3,23.6,55.6z"/>
				<path class="st3" d="M23.7,56c-0.1-1.4,1-2.7,2.5-2.8L30,53c1.4-0.1,2.7,1,2.7,2.4c0.1,1.4-1,2.7-2.5,2.8l-3.9,0.3
					C25,58.6,23.8,57.5,23.7,56z"/>
			</g>
			<g>
				<path class="st5" d="M31.7,58.8c0,0,0,0.3,0.2,0.7c0,0.1,0.1,0.3,0.1,0.3c0.1,0.1,0.2,0.3,0.3,0.4c0.1,0.2,0.2,0.2,0.3,0.4
					l0.2,0.2c0.1,0,0.2,0.1,0.2,0.2c0.2,0.1,0.3,0.2,0.6,0.3c0.2,0.1,0.4,0.2,0.7,0.2c0.5,0.2,1,0.3,1.5,0.4
					c1.1,0.2,2.3,0.3,3.5,0.6c1.2,0.2,2.4,0.6,3.4,1.1c0.2,0.1,0.5,0.3,0.7,0.4c0.2,0.2,0.4,0.3,0.6,0.5c0.4,0.3,0.8,0.7,1,1
					c0.6,0.7,0.9,1.4,1.2,1.8c0.2,0.5,0.3,0.8,0.3,0.8s-0.1-0.3-0.4-0.7c-0.3-0.5-0.7-1.1-1.3-1.7c-0.3-0.3-0.7-0.6-1.1-0.9
					c-0.2-0.1-0.4-0.3-0.6-0.4c-0.2-0.1-0.5-0.2-0.7-0.4c-1-0.4-2.2-0.7-3.3-0.9c-1.2-0.2-2.4-0.2-3.5-0.3c-0.6-0.1-1.1-0.1-1.6-0.3
					c-0.3-0.1-0.5-0.1-0.8-0.2c-0.2-0.1-0.5-0.2-0.7-0.3c-0.1-0.1-0.2-0.1-0.3-0.2c-0.1-0.1-0.2-0.2-0.3-0.2
					c-0.2-0.2-0.4-0.3-0.5-0.5c-0.1-0.1-0.2-0.3-0.3-0.4c-0.2-0.2-0.2-0.3-0.3-0.5c-0.1-0.3-0.2-0.5-0.3-0.6c0-0.2-0.1-0.2-0.1-0.2
					L31.7,58.8z"/>
			</g>
			<g>
				<path class="st5" d="M27.5,59.4c0,0,0,0.1-0.1,0.2c-0.1,0.1-0.2,0.4-0.3,0.6c-0.1,0.1-0.1,0.2-0.3,0.4c-0.1,0.1-0.2,0.2-0.4,0.4
					c-0.1,0.1-0.3,0.3-0.5,0.4c-0.1,0.1-0.2,0.1-0.3,0.2c-0.1,0-0.2,0.1-0.3,0.1c-0.2,0.1-0.5,0.2-0.7,0.2c-0.3,0.1-0.5,0.1-0.8,0.1
					c-0.5,0.1-1.1,0.1-1.7,0.1c-1.1,0-2.3-0.1-3.5-0.1c-1.2,0-2.4,0.2-3.4,0.5c-0.3,0.1-0.5,0.2-0.8,0.3c-0.2,0.1-0.5,0.2-0.7,0.3
					c-0.5,0.2-0.8,0.5-1.2,0.8c-0.7,0.6-1.2,1.2-1.5,1.6c-0.3,0.4-0.5,0.7-0.5,0.7s0.1-0.3,0.4-0.7c0.3-0.4,0.7-1.1,1.4-1.7
					c0.3-0.3,0.7-0.6,1.2-0.9c0.2-0.1,0.5-0.3,0.7-0.4c0.2-0.1,0.5-0.2,0.8-0.3c1.1-0.4,2.3-0.6,3.5-0.7c1.2-0.1,2.4-0.1,3.5-0.2
					c0.6,0,1.1-0.1,1.5-0.2c0.2,0,0.5-0.1,0.7-0.2c0.2-0.1,0.4-0.1,0.6-0.2c0.1,0,0.2-0.1,0.3-0.1l0.2-0.1c0.1-0.1,0.3-0.2,0.4-0.3
					c0.1-0.1,0.2-0.3,0.3-0.4c0,0,0.1-0.2,0.2-0.3c0.2-0.4,0.3-0.6,0.3-0.6L27.5,59.4z"/>
			</g>
			<g>
				<path class="st5" d="M24.5,53.7C24.5,53.7,24.5,53.7,24.5,53.7c-0.1,0.1-0.2,0.1-0.2,0.1c-0.1,0-0.2,0-0.2,0c0,0,0,0,0,0l0,0
					l0,0l0,0l0,0l0,0.1l0,0L24,53.9c-0.2,0.2-0.3,0.2-0.4,0.2c-0.2,0.1-0.5,0.1-0.7,0.2c-1,0.2-2.4,0.2-3.7,0.1
					c-0.7-0.1-1.3-0.2-1.9-0.4c-0.3-0.1-0.6-0.2-0.8-0.4c-0.2-0.2-0.4-0.4-0.5-0.6c-0.2-0.5-0.2-0.9-0.2-1.2c0-0.3-0.1-0.4-0.1-0.4
					s0.1,0.1,0.1,0.4c0.1,0.3,0.1,0.7,0.3,1.1c0.1,0.2,0.3,0.4,0.5,0.5c0.2,0.1,0.5,0.2,0.8,0.3c0.6,0.1,1.2,0.1,1.9,0.1
					c1.3,0,2.6-0.2,3.5-0.5c0.2-0.1,0.4-0.1,0.5-0.2c0,0,0.1-0.1,0.1,0c0,0,0,0,0,0l0,0c0,0,0-0.1,0,0l0,0l0,0l0,0l0-0.1
					c0.1-0.1,0.1-0.1,0.2-0.2c0.2-0.2,0.4-0.2,0.4-0.2c0,0,0,0,0,0c0,0,0,0,0,0L24.5,53.7z"/>
			</g>
			<g>
				<path class="st5" d="M25.3,49.6C25.3,49.6,25.3,49.7,25.3,49.6c-0.1,0.1-0.2,0.1-0.2,0.1c-0.1,0-0.2,0-0.2,0c0,0,0,0,0,0l0,0
					l0,0l0,0l0,0l0,0.1l0,0l-0.1,0.1c-0.2,0.2-0.3,0.2-0.4,0.2c-0.2,0.1-0.5,0.1-0.7,0.2c-1,0.2-2.4,0.2-3.7,0.1
					c-0.7-0.1-1.3-0.2-1.9-0.4c-0.3-0.1-0.6-0.2-0.8-0.4c-0.2-0.2-0.4-0.4-0.5-0.6c-0.2-0.5-0.2-0.9-0.2-1.2c0-0.3-0.1-0.4-0.1-0.4
					s0.1,0.1,0.1,0.4c0.1,0.3,0.1,0.7,0.3,1.1c0.1,0.2,0.3,0.4,0.5,0.5c0.2,0.1,0.5,0.2,0.8,0.3c0.6,0.1,1.2,0.1,1.9,0.1
					c1.3,0,2.6-0.2,3.5-0.5c0.2-0.1,0.4-0.1,0.5-0.2c0,0,0.1-0.1,0.1,0c0,0,0,0,0,0l0,0c0,0,0-0.1,0,0l0,0l0,0l0,0l0-0.1
					c0.1-0.1,0.1-0.1,0.2-0.2c0.2-0.2,0.4-0.2,0.4-0.2c0,0,0,0,0,0c0,0,0,0,0,0L25.3,49.6z"/>
			</g>
			<g>
				<path class="st5" d="M26.4,44.6C26.4,44.6,26.4,44.6,26.4,44.6c-0.2,0-0.2,0-0.3,0c-0.1,0-0.2,0-0.2,0c0,0,0,0,0,0l0,0l0,0l0,0
					l0,0c0,0-0.1,0-0.1,0l0,0l-0.1,0c-0.3,0.1-0.3,0.1-0.5,0.1c-0.3,0-0.5,0-0.8,0c-1-0.1-2.3-0.5-3.5-1c-0.6-0.3-1.2-0.5-1.7-0.9
					c-0.3-0.2-0.5-0.4-0.7-0.6c-0.2-0.2-0.3-0.5-0.3-0.8c-0.1-0.5,0.1-0.9,0.2-1.2c0.1-0.3,0-0.4,0-0.4s0,0.2,0,0.4
					c0,0.3-0.1,0.7-0.1,1.2c0,0.2,0.2,0.5,0.4,0.6c0.2,0.2,0.4,0.4,0.7,0.5c0.5,0.3,1.1,0.5,1.8,0.7c1.2,0.3,2.5,0.5,3.4,0.5
					c0.2,0,0.4,0,0.6,0c0.1,0,0.2-0.1,0.1,0c0,0,0,0,0,0l0,0c0,0-0.1,0.1,0,0l0,0l0,0l0,0l0.1,0c0.1,0,0.2-0.1,0.2-0.1
					c0.3-0.1,0.4-0.1,0.5-0.1c0,0,0,0,0,0c0,0,0,0,0,0L26.4,44.6z"/>
			</g>
			<g>
				<path class="st5" d="M30,41C30,41,30,41,30,41c-0.2,0-0.2,0-0.3,0c-0.1,0-0.2-0.1-0.2-0.1c0,0,0,0,0,0l0,0l0,0l-0.1,0l0,0
					l-0.1,0c-0.3,0-0.4,0-0.5,0c-0.2-0.1-0.5-0.1-0.7-0.2c-1-0.4-2.1-1.1-3.1-1.9c-0.5-0.4-1-0.9-1.4-1.4c-0.2-0.2-0.4-0.5-0.5-0.8
					c-0.1-0.3-0.1-0.6-0.1-0.8c0.1-0.5,0.4-0.8,0.5-1.1c0.1-0.3,0.2-0.4,0.2-0.4s0,0.2-0.1,0.4c-0.1,0.3-0.3,0.6-0.4,1.1
					c0,0.2,0,0.5,0.2,0.7c0.1,0.2,0.3,0.5,0.5,0.7c0.4,0.4,1,0.8,1.5,1.1c1.1,0.7,2.3,1.2,3.2,1.5c0.2,0.1,0.4,0.1,0.6,0.1
					c0.1,0,0.2,0,0.1,0l0,0l0,0l0,0l0,0c0,0,0.1,0-0.1,0l0,0l0.1,0c0.1,0,0.2,0,0.2,0c0.3,0,0.4,0.1,0.5,0.1c0,0,0,0,0,0
					c0,0,0,0,0,0L30,41z"/>
			</g>
			<g>
				<path class="st5" d="M33.5,38.1C33.5,38.1,33.5,38,33.5,38.1C33.5,38.1,33.5,38.1,33.5,38.1c0,0,0-0.2,0.1-0.5
					c0-0.1,0.1-0.2,0.1-0.2l0-0.1l0,0l0,0c0,0-0.1,0.1,0,0.1l0,0l0,0c0,0,0-0.1,0,0c0,0.1,0,0,0-0.1c0-0.1,0-0.3,0-0.6
					c-0.1-0.9-0.4-2.2-0.8-3.4c-0.2-0.6-0.5-1.2-0.8-1.7c-0.3-0.5-0.8-0.9-1.2-0.9c-0.5-0.1-0.9,0.1-1.1,0.1c-0.3,0.1-0.4,0-0.4,0
					s0.2,0,0.4-0.1c0.3-0.1,0.7-0.2,1.2-0.2c0.3,0,0.5,0.1,0.8,0.3c0.3,0.2,0.5,0.4,0.7,0.6c0.4,0.5,0.7,1.1,1,1.7
					c0.6,1.2,1,2.4,1.3,3.5c0.1,0.3,0.1,0.5,0.1,0.8c0,0.1,0,0.2-0.1,0.5l0,0.1l0,0l0,0.1l0,0l0,0l0,0l0,0c0,0,0,0.1,0,0.2
					c0,0.1,0,0.1,0,0.2c0,0,0,0,0,0L33.5,38.1z"/>
			</g>
			<g>
				<path class="st5" d="M38.9,37C38.9,37,38.9,37,38.9,37C38.8,37,38.8,37,38.9,37c0,0,0.1-0.2,0.3-0.4c0.1-0.1,0.1-0.1,0.2-0.2
					l0.1,0l0,0l0,0l0,0c0,0-0.1,0.1-0.1,0l0,0c0,0,0,0,0,0c-0.1,0.1,0,0,0,0c0.1-0.1,0.2-0.3,0.3-0.5c0.4-0.8,0.7-2.1,0.9-3.4
					c0.1-0.6,0.1-1.3,0.1-1.9c-0.1-0.6-0.3-1.1-0.7-1.4c-0.4-0.3-0.8-0.3-1.1-0.4c-0.3-0.1-0.4-0.2-0.4-0.2s0.1,0.1,0.4,0.1
					c0.3,0.1,0.7,0.1,1.1,0.3c0.2,0.1,0.4,0.3,0.6,0.6c0.2,0.3,0.2,0.6,0.3,0.9c0.1,0.6,0.2,1.3,0.1,1.9c0,1.3-0.2,2.6-0.5,3.6
					c-0.1,0.3-0.2,0.5-0.3,0.7c-0.1,0.1-0.1,0.2-0.3,0.4l-0.1,0l0,0c0,0-0.1,0-0.1,0l0,0l0,0l0,0l0,0l0,0c0,0,0,0.1-0.1,0.2
					c0,0.1,0,0.1-0.1,0.2c0,0,0,0,0,0L38.9,37z"/>
			</g>
			<g>
				<path class="st5" d="M43.1,38.2C43.1,38.2,43.1,38.2,43.1,38.2C43.1,38.3,43.1,38.3,43.1,38.2c0,0,0.1-0.1,0.3-0.3
					c0.1,0,0.1-0.1,0.2-0.1l0.1,0l0,0l0,0l0,0c0,0,0.1,0-0.1,0l0,0c0,0,0.1,0,0,0c-0.1,0.1,0,0,0,0c0.1-0.1,0.2-0.3,0.4-0.4
					c0.5-0.7,1.2-1.9,1.6-3.1c0.2-0.6,0.4-1.2,0.5-1.8c0.1-0.6,0-1.1-0.3-1.5c-0.3-0.3-0.7-0.5-1-0.6c-0.2-0.1-0.4-0.3-0.4-0.3
					s0.1,0.1,0.4,0.2c0.2,0.1,0.7,0.2,1,0.6c0.2,0.2,0.3,0.4,0.4,0.7c0.1,0.3,0.1,0.6,0.1,0.9c0,0.6-0.1,1.3-0.3,1.9
					c-0.3,1.3-0.8,2.5-1.3,3.4c-0.1,0.2-0.3,0.4-0.4,0.6c-0.1,0.1-0.1,0.2-0.4,0.3l-0.1,0l0,0c-0.1,0,0,0-0.1,0l0,0l0,0l0,0l0,0
					c0,0,0,0,0,0c0,0,0,0.1-0.1,0.1c0,0-0.1,0.1-0.1,0.2c0,0,0,0,0,0L43.1,38.2z"/>
			</g>
			<g>
				<path class="st5" d="M46.2,40.2C46.2,40.2,46.2,40.2,46.2,40.2C46.2,40.2,46.2,40.2,46.2,40.2c0,0,0.1-0.1,0.4-0.3
					c0.1,0,0.1-0.1,0.2-0.1l0.1,0l0,0l0,0l0,0c0,0,0.1,0-0.1,0l0,0l0,0c-0.1,0,0,0,0,0c0.1-0.1,0.3-0.2,0.4-0.4
					c0.7-0.6,1.5-1.6,2.2-2.7c0.3-0.5,0.6-1.1,0.8-1.7c0.1-0.3,0.2-0.6,0.1-0.8c0-0.3-0.1-0.5-0.2-0.7c-0.3-0.4-0.6-0.6-0.8-0.8
					c-0.2-0.2-0.3-0.3-0.3-0.3s0.1,0.1,0.3,0.3c0.2,0.2,0.6,0.3,0.9,0.8c0.2,0.2,0.3,0.5,0.3,0.8c0,0.3,0,0.6-0.1,0.9
					c-0.1,0.6-0.4,1.2-0.6,1.8c-0.6,1.2-1.3,2.3-1.9,3.1c-0.2,0.2-0.3,0.4-0.5,0.5c-0.1,0.1-0.2,0.2-0.4,0.2l-0.1,0l0,0
					c-0.1,0,0,0-0.1,0l0,0l0,0l0,0l0,0c0,0,0,0,0,0c0,0,0,0.1-0.1,0.1c0,0-0.1,0.1-0.2,0.1c0,0,0,0,0,0L46.2,40.2z"/>
			</g>
			<g>
				<path class="st5" d="M50.1,43C50.1,43,50.1,43,50.1,43C50,43.1,50,43.1,50.1,43c0,0,0.1-0.1,0.4-0.2c0.1,0,0.2,0,0.2,0h0.1l0,0
					c-0.1,0,0,0-0.1,0l0,0l0,0l0,0l0.1,0c-0.1,0,0,0,0.1,0c0.1-0.1,0.3-0.2,0.5-0.3c0.7-0.5,1.7-1.4,2.5-2.4c0.4-0.5,0.8-1,1-1.6
					c0.1-0.3,0.2-0.5,0.2-0.8c0-0.3,0-0.5-0.1-0.7c-0.2-0.4-0.5-0.7-0.7-0.9c-0.2-0.2-0.3-0.4-0.3-0.4s0.1,0.1,0.3,0.3
					c0.2,0.2,0.6,0.4,0.8,0.9c0.1,0.2,0.2,0.5,0.2,0.8c0,0.3-0.1,0.6-0.2,0.9c-0.2,0.6-0.5,1.2-0.9,1.8c-0.7,1.1-1.5,2.2-2.3,2.9
					c-0.2,0.2-0.4,0.3-0.6,0.5c-0.1,0.1-0.2,0.1-0.5,0.2l-0.1,0l0,0l-0.1,0l0,0l0,0c0,0,0,0,0,0c0,0-0.1,0-0.1,0.1
					c0,0-0.1,0.1-0.2,0.1c0,0,0,0,0,0L50.1,43z"/>
			</g>
			<g>
				<path class="st5" d="M52.3,46.2C52.3,46.2,52.3,46.2,52.3,46.2C52.3,46.2,52.3,46.2,52.3,46.2c0,0,0.1-0.1,0.4-0.1
					c0.1,0,0.1,0,0.2,0c0,0,0.1,0,0.1,0c-0.1,0,0,0,0,0c0,0,0,0,0,0c0.1,0,0.3-0.1,0.5-0.1c0.8-0.2,1.9-0.7,2.9-1.4
					c0.5-0.3,1-0.6,1.4-1c0.2-0.2,0.4-0.4,0.5-0.6c0.1-0.2,0.2-0.4,0.1-0.6c-0.1-0.4-0.3-0.7-0.4-1c-0.1-0.2-0.2-0.4-0.2-0.4
					s0,0.1,0.2,0.4c0.1,0.2,0.4,0.5,0.5,1c0,0.2,0,0.5-0.1,0.7c-0.1,0.3-0.3,0.5-0.4,0.7c-0.4,0.4-0.8,0.9-1.3,1.2
					c-0.9,0.8-1.9,1.4-2.8,1.8c-0.2,0.1-0.4,0.2-0.7,0.2c-0.1,0-0.3,0.1-0.5,0c0,0,0,0-0.1,0l0,0c0,0,0,0,0,0c0,0-0.1,0-0.2,0.1
					c0,0-0.1,0-0.2,0c0,0,0,0,0,0L52.3,46.2z"/>
			</g>
			<g>
				<path class="st5" d="M54.2,50.4C54.2,50.4,54.3,50.4,54.2,50.4C54.1,50.4,54.2,50.4,54.2,50.4c0,0,0.1,0,0.4,0
					c0.1,0,0.2,0.1,0.2,0.1c-0.1,0,0.1,0.1,0,0c-0.1,0,0,0,0,0c0.1,0,0.3,0,0.5,0c0.8-0.1,1.9-0.4,2.9-0.8c0.5-0.2,1-0.5,1.4-0.8
					c0.4-0.3,0.7-0.7,0.7-1.1c0-0.4-0.1-0.8-0.1-1c0-0.2,0-0.4,0-0.4s0,0.1,0.1,0.4c0.1,0.2,0.2,0.6,0.2,1c0,0.5-0.3,1-0.7,1.3
					c-0.4,0.4-0.9,0.7-1.4,1c-1,0.6-2.1,1.1-3,1.3c-0.2,0.1-0.4,0.1-0.7,0.1c-0.1,0-0.2,0-0.4,0c-0.2-0.1-0.1,0-0.2-0.1
					c0,0,0,0,0.1,0c0.1,0,0,0-0.1,0c-0.1,0-0.1,0-0.2,0c0,0,0,0,0,0L54.2,50.4z"/>
			</g>
			<g>
				<path class="st5" d="M54.8,52.9C54.8,52.9,54.8,52.9,54.8,52.9C54.7,52.9,54.8,52.9,54.8,52.9c0,0,0.2,0,0.5,0.1
					c0.1,0,0.1,0.1,0.2,0.1l0.1,0l0,0l0,0l0,0c0,0-0.1,0,0,0l0,0c0,0,0,0,0,0c-0.1,0,0,0,0.1,0c0.1,0,0.3,0,0.6,0
					c0.9,0,2.2-0.2,3.4-0.5c0.6-0.2,1.2-0.4,1.8-0.7c0.3-0.1,0.5-0.3,0.7-0.5c0.2-0.2,0.3-0.4,0.3-0.6c0.1-0.5,0-0.9-0.1-1.2
					c0-0.3,0-0.4,0-0.4s0,0.2,0,0.4c0,0.3,0.2,0.7,0.2,1.2c0,0.3-0.1,0.5-0.3,0.8c-0.2,0.2-0.4,0.4-0.7,0.6
					c-0.5,0.4-1.1,0.7-1.7,0.9c-1.2,0.5-2.5,0.9-3.5,1c-0.3,0-0.5,0.1-0.8,0c-0.1,0-0.2,0-0.5-0.1l-0.1,0l0,0c0,0-0.1-0.1-0.1,0l0,0
					l0,0l0,0l0,0c0,0,0,0,0,0c0,0-0.1,0-0.2,0c-0.1,0-0.1,0-0.2,0c0,0,0,0,0,0L54.8,52.9z"/>
			</g>
			<g>
				<path class="st5" d="M48.8,59.6C48.8,59.6,48.8,59.6,48.8,59.6c-0.1,0.1-0.2,0.1-0.2,0.1c-0.1,0-0.2,0.1-0.2,0.1l0,0l0,0l0,0
					l0,0c0-0.1,0,0.1,0,0.1l0,0l0,0l0,0.1c-0.2,0.2-0.3,0.2-0.4,0.3c-0.2,0.1-0.4,0.2-0.7,0.3c-1,0.3-2.3,0.6-3.6,0.7
					c-0.7,0-1.3,0.1-2,0c-0.3-0.1-0.6-0.1-0.9-0.2c-0.3-0.1-0.5-0.3-0.6-0.5c-0.3-0.4-0.3-0.9-0.4-1.1c-0.1-0.3-0.2-0.4-0.2-0.4
					s0.1,0.1,0.2,0.4c0.1,0.3,0.2,0.7,0.5,1.1c0.1,0.2,0.4,0.3,0.6,0.4c0.2,0.1,0.5,0.1,0.8,0.2c0.6,0,1.2-0.1,1.9-0.2
					c1.3-0.3,2.5-0.7,3.3-1.1c0.2-0.1,0.4-0.2,0.5-0.3c0,0,0.1-0.1,0,0c0,0,0,0,0,0l0,0l0,0c0,0-0.1,0.1,0,0.1l0,0l0,0l0-0.1
					c0-0.1,0.1-0.1,0.1-0.2c0.2-0.2,0.4-0.3,0.4-0.3c0,0,0,0,0,0c0,0,0,0,0,0L48.8,59.6z"/>
			</g>
			<g>
				<path class="st5" d="M51.3,61.7c0,0-0.1,0.1-0.2,0.4c-0.1,0.1-0.1,0.3-0.2,0.4c-0.1,0.1-0.2,0.4-0.3,0.6
					c-0.4,0.8-1.1,1.9-1.9,2.8c-0.4,0.5-0.8,0.9-1.2,1.3c-0.4,0.4-0.9,0.7-1.3,0.8c-0.5,0.1-0.9,0-1.1-0.2c-0.2-0.1-0.3-0.2-0.3-0.2
					s0.1,0.1,0.4,0.2c0.2,0.1,0.6,0.2,1,0c0.4-0.1,0.8-0.5,1.1-0.9c0.4-0.4,0.7-0.9,1-1.4c0.6-1,1.1-2,1.4-2.8
					c0.1-0.2,0.1-0.4,0.2-0.6c0.1-0.2,0.1-0.3,0.1-0.4c0.1-0.2,0.1-0.4,0.1-0.4L51.3,61.7z"/>
			</g>
			<g>
				<path class="st5" d="M54.1,64.2c0,0-0.1,0.1-0.2,0.4c-0.1,0.1-0.1,0.3-0.2,0.4c-0.1,0.1-0.2,0.4-0.3,0.6
					c-0.4,0.8-1.1,1.9-1.9,2.8c-0.4,0.5-0.8,0.9-1.2,1.3c-0.4,0.4-0.9,0.7-1.3,0.8c-0.5,0.1-0.9,0-1.1-0.2c-0.2-0.1-0.3-0.2-0.3-0.2
					s0.1,0.1,0.4,0.2c0.2,0.1,0.6,0.2,1,0c0.4-0.1,0.8-0.5,1.1-0.9c0.4-0.4,0.7-0.9,1-1.4c0.6-1,1.1-2,1.4-2.8
					c0.1-0.2,0.1-0.4,0.2-0.6c0.1-0.2,0.1-0.3,0.1-0.4c0.1-0.2,0.1-0.4,0.1-0.4L54.1,64.2z"/>
			</g>
			<g>
				<path class="st5" d="M57.9,66c0,0-0.1,0.1-0.2,0.4c-0.1,0.1-0.1,0.3-0.2,0.4c-0.1,0.1-0.2,0.4-0.3,0.6c-0.4,0.8-1.1,1.9-1.9,2.8
					c-0.4,0.5-0.8,0.9-1.2,1.3c-0.4,0.4-0.9,0.7-1.3,0.8c-0.5,0.1-0.9,0-1.1-0.2c-0.2-0.1-0.3-0.2-0.3-0.2s0.1,0.1,0.4,0.2
					c0.2,0.1,0.6,0.2,1,0c0.4-0.1,0.8-0.5,1.1-0.9c0.4-0.4,0.7-0.9,1-1.4c0.6-1,1.1-2,1.4-2.8c0.1-0.2,0.1-0.4,0.2-0.6
					c0.1-0.2,0.1-0.3,0.1-0.4c0.1-0.2,0.1-0.4,0.1-0.4L57.9,66z"/>
			</g>
			<g>
				<path class="st5" d="M62.2,67.6c0,0-0.1,0.1-0.2,0.4c-0.1,0.1-0.1,0.3-0.2,0.4c-0.1,0.1-0.2,0.4-0.3,0.6
					c-0.4,0.8-1.1,1.9-1.9,2.8c-0.4,0.5-0.8,0.9-1.2,1.3c-0.4,0.4-0.9,0.7-1.3,0.8c-0.5,0.1-0.9,0-1.1-0.2c-0.2-0.1-0.3-0.2-0.3-0.2
					s0.1,0.1,0.4,0.2c0.2,0.1,0.6,0.2,1,0c0.4-0.1,0.8-0.5,1.1-0.9c0.4-0.4,0.7-0.9,1-1.4c0.6-1,1.1-2,1.4-2.8
					c0.1-0.2,0.1-0.4,0.2-0.6c0.1-0.2,0.1-0.3,0.1-0.4c0.1-0.2,0.1-0.4,0.1-0.4L62.2,67.6z"/>
			</g>
			<g>
				<path class="st5" d="M65.8,67.4c0,0,0,0.1-0.1,0.4c0,0.1,0,0.3-0.1,0.5c0,0.2-0.1,0.4-0.1,0.6c-0.2,0.9-0.5,2.1-1.1,3.2
					c-0.3,0.6-0.5,1.1-0.9,1.6c-0.3,0.5-0.6,0.9-1.1,1.2c-0.4,0.2-0.8,0.2-1.1,0.1c-0.3-0.1-0.4-0.1-0.4-0.1s0.1,0.1,0.4,0.1
					c0.2,0,0.6,0,1-0.2c0.3-0.2,0.6-0.7,0.8-1.2c0.2-0.5,0.5-1,0.6-1.6c0.4-1.1,0.6-2.3,0.6-3.1c0-0.2,0-0.4,0-0.6
					c0-0.2,0-0.3,0-0.5c0-0.3,0-0.4,0-0.4L65.8,67.4z"/>
			</g>
			<g>
				<path class="st5" d="M70.8,66.8c0,0,0,0.1,0,0.4c0,0.1,0,0.3,0,0.5c0,0.2,0,0.4-0.1,0.6c-0.1,0.9-0.4,2.1-0.8,3.3
					c-0.2,0.6-0.5,1.1-0.7,1.6c-0.3,0.5-0.6,1-1,1.2c-0.4,0.3-0.8,0.2-1.1,0.2c-0.3,0-0.4-0.1-0.4-0.1s0.1,0,0.4,0
					c0.3,0,0.6,0,1-0.3c0.3-0.3,0.5-0.7,0.7-1.2c0.2-0.5,0.4-1.1,0.5-1.6c0.3-1.1,0.4-2.3,0.4-3.2c0-0.2,0-0.4,0-0.6
					c0-0.2,0-0.3,0-0.5c0-0.3,0-0.4,0-0.4L70.8,66.8z"/>
			</g>
			<g>
				<path class="st5" d="M81.8,65.5c0,0,0,0.1,0,0.4c0,0.1,0,0.3,0,0.5c0,0.2,0,0.4,0,0.6c0,0.9,0.1,2,0.4,3.2
					c0.1,0.6,0.3,1.1,0.5,1.6c0.2,0.5,0.4,1,0.8,1.2c0.3,0.3,0.7,0.3,1,0.3c0.3,0,0.4,0,0.4,0s-0.1,0.1-0.4,0.1
					c-0.3,0-0.7,0.1-1.1-0.2c-0.4-0.3-0.7-0.7-1-1.2c-0.3-0.5-0.5-1.1-0.7-1.6c-0.4-1.1-0.7-2.3-0.8-3.3c0-0.2-0.1-0.5-0.1-0.6
					c0-0.2,0-0.3,0-0.5c0-0.3,0-0.4,0-0.4L81.8,65.5z"/>
			</g>
			<g>
				<path class="st5" d="M77.8,66.4c0,0,0,0.1,0,0.4c0,0.1,0,0.3,0,0.5c0,0.2,0,0.4,0,0.6c0,0.9,0.1,2,0.4,3.2
					c0.1,0.6,0.3,1.1,0.5,1.6c0.2,0.5,0.4,1,0.8,1.2c0.3,0.3,0.7,0.3,1,0.3c0.3,0,0.4,0,0.4,0s-0.1,0.1-0.4,0.1
					c-0.3,0-0.7,0.1-1.1-0.2c-0.4-0.3-0.7-0.7-1-1.2c-0.3-0.5-0.5-1.1-0.7-1.6c-0.4-1.1-0.7-2.3-0.8-3.3c0-0.2-0.1-0.5-0.1-0.6
					c0-0.2,0-0.3,0-0.5c0-0.3,0-0.4,0-0.4L77.8,66.4z"/>
			</g>
			<g>
				<path class="st5" d="M74.7,66.4c0,0,0,0.1,0,0.4c0,0.1,0,0.3,0,0.5c0,0.2,0,0.4,0,0.6c0,0.9,0.1,2,0.4,3.2
					c0.1,0.6,0.3,1.1,0.5,1.6c0.2,0.5,0.4,1,0.8,1.2c0.3,0.3,0.7,0.3,1,0.3c0.3,0,0.4,0,0.4,0s-0.1,0.1-0.4,0.1
					c-0.3,0-0.7,0.1-1.1-0.2c-0.4-0.3-0.7-0.7-1-1.2c-0.3-0.5-0.5-1.1-0.7-1.6c-0.4-1.1-0.7-2.3-0.8-3.3c0-0.2-0.1-0.5-0.1-0.6
					c0-0.2,0-0.3,0-0.5c0-0.3,0-0.4,0-0.4L74.7,66.4z"/>
			</g>
			<g>
				<path class="st5" d="M83.6,64.8c0,0,0.1,0.1,0.3,0.3c0.1,0.1,0.2,0.2,0.3,0.3c0.1,0.1,0.3,0.3,0.4,0.4c0.6,0.6,1.6,1.3,2.6,1.9
					c0.5,0.3,1,0.6,1.5,0.8c0.5,0.2,1,0.4,1.4,0.3c0.4-0.1,0.7-0.3,0.9-0.5c0.2-0.2,0.2-0.3,0.2-0.3s-0.1,0.1-0.2,0.4
					c-0.2,0.2-0.4,0.5-0.9,0.6c-0.5,0.1-1,0-1.6-0.2c-0.5-0.2-1.1-0.4-1.7-0.6c-1.1-0.5-2.2-1.1-2.9-1.7c-0.2-0.1-0.4-0.3-0.5-0.4
					c-0.1-0.1-0.3-0.2-0.4-0.3c-0.2-0.2-0.3-0.3-0.3-0.3L83.6,64.8z"/>
			</g>
			<g>
				<path class="st5" d="M48.6,56.5C48.6,56.5,48.6,56.5,48.6,56.5c-0.1,0.1-0.1,0.1-0.2,0.2c-0.1,0.1-0.1,0.1-0.1,0.1l0,0l0,0l0,0
					l0,0l0,0.1l0,0l0,0.1c-0.1,0.3-0.2,0.3-0.3,0.4c-0.2,0.2-0.4,0.3-0.6,0.5c-0.9,0.6-2.1,1.1-3.4,1.5c-0.6,0.2-1.3,0.4-1.9,0.4
					c-0.3,0-0.6,0-0.9,0c-0.3-0.1-0.6-0.2-0.7-0.4c-0.4-0.4-0.5-0.8-0.6-1c-0.1-0.2-0.3-0.4-0.3-0.4s0.1,0.1,0.3,0.3
					c0.2,0.2,0.3,0.6,0.7,0.9c0.4,0.3,0.9,0.3,1.5,0.2c0.6-0.1,1.2-0.4,1.8-0.6c1.2-0.5,2.3-1.2,3-1.8c0.2-0.1,0.3-0.3,0.4-0.4
					c0,0,0.1-0.1,0,0c0,0,0,0,0,0l0,0l0,0c0-0.1,0,0.1,0,0.1l0,0l0,0l0-0.1c0-0.1,0.1-0.2,0.1-0.2c0.2-0.3,0.3-0.3,0.3-0.4
					c0,0,0,0,0,0c0,0,0,0,0,0L48.6,56.5z"/>
			</g>
			<g>
				<path class="st5" d="M48.5,53.9C48.5,53.9,48.5,53.9,48.5,53.9c-0.1,0.1-0.1,0.1-0.2,0.2c-0.1,0.1-0.1,0.1-0.1,0.1l0,0l0,0l0,0
					l0,0l0,0.1l0,0l0,0.1c-0.1,0.3-0.2,0.3-0.3,0.4c-0.2,0.2-0.4,0.3-0.6,0.5c-0.9,0.5-2.1,1.1-3.4,1.5c-0.6,0.2-1.3,0.4-1.9,0.4
					c-0.3,0-0.6,0-0.9,0c-0.3-0.1-0.6-0.2-0.7-0.4c-0.4-0.4-0.5-0.8-0.6-1c-0.1-0.2-0.3-0.4-0.3-0.4s0.1,0.1,0.3,0.3
					c0.2,0.2,0.3,0.6,0.7,0.9c0.4,0.3,0.9,0.3,1.5,0.2c0.6-0.1,1.2-0.4,1.8-0.6c1.2-0.5,2.3-1.2,3-1.8c0.2-0.1,0.3-0.3,0.4-0.4
					c0,0,0.1-0.1,0,0c0,0,0,0,0,0l0,0l0,0c0-0.1,0,0.1,0,0.1l0,0l0,0l0-0.1c0-0.1,0.1-0.2,0.1-0.2c0.2-0.3,0.3-0.3,0.3-0.4
					c0,0,0,0,0,0c0,0,0,0,0,0L48.5,53.9z"/>
			</g>
			<g>
				<path class="st5" d="M47.6,50.8C47.6,50.8,47.6,50.8,47.6,50.8c-0.1,0.1-0.1,0.2-0.2,0.2c-0.1,0.1-0.1,0.1-0.1,0.1l0,0l0,0l0,0
					l0,0l0,0.1l0,0l0,0.1c-0.1,0.3-0.2,0.3-0.3,0.4c-0.2,0.2-0.4,0.3-0.6,0.5c-0.8,0.6-2,1.3-3.2,1.8c-0.6,0.3-1.2,0.5-1.9,0.6
					c-0.3,0.1-0.6,0.1-0.9,0.1c-0.3,0-0.6-0.1-0.8-0.3c-0.4-0.3-0.6-0.7-0.7-0.9c-0.2-0.2-0.3-0.3-0.3-0.3s0.1,0.1,0.3,0.3
					c0.2,0.2,0.4,0.6,0.8,0.8c0.4,0.3,1,0.3,1.5,0.1c0.6-0.2,1.1-0.5,1.7-0.8c1.1-0.6,2.1-1.4,2.8-2.1c0.2-0.2,0.3-0.3,0.4-0.4
					c0,0,0.1-0.2,0-0.1c0,0,0,0,0,0l0,0l0,0c0,0,0-0.1,0,0.1l0,0l0,0l0-0.1c0-0.1,0-0.2,0.1-0.2c0.1-0.3,0.3-0.4,0.3-0.4
					c0,0,0,0,0,0c0,0,0,0,0,0L47.6,50.8z"/>
			</g>
			<g>
				<path class="st5" d="M45.1,46.8C45.1,46.8,45.1,46.9,45.1,46.8c0,0.2,0,0.2,0,0.3c0,0.1,0,0.2,0,0.2l0,0l0,0l0,0l0,0l0,0.1l0,0
					l0,0.1c0.1,0.3,0,0.3,0.1,0.5c0,0.3-0.1,0.5-0.1,0.7c-0.3,1-0.8,2.2-1.5,3.4c-0.3,0.6-0.7,1.1-1.1,1.6c-0.2,0.2-0.4,0.4-0.7,0.6
					c-0.3,0.1-0.5,0.2-0.8,0.2c-0.5,0-0.9-0.2-1.2-0.3C39.5,54,39.4,54,39.4,54s0.2,0,0.4,0.1c0.3,0.1,0.7,0.2,1.1,0.2
					c0.5,0,0.9-0.4,1.3-0.9c0.3-0.5,0.6-1.1,0.9-1.6c0.5-1.2,0.8-2.4,1-3.3c0-0.2,0-0.4,0-0.6c0,0,0-0.2,0-0.1c0,0,0,0,0,0l0,0l0,0
					c0-0.1,0,0.1,0,0.1l0,0l0,0l0-0.1c0-0.1-0.1-0.2-0.1-0.2c-0.1-0.3,0-0.4,0-0.5c0,0,0,0,0,0c0,0,0,0,0,0L45.1,46.8z"/>
			</g>
			<g>
				<path class="st5" d="M42.6,45.2C42.6,45.2,42.6,45.2,42.6,45.2c0,0.2,0,0.2,0,0.3c0,0.1,0,0.2,0,0.2l0,0l0,0l0,0l0,0l0,0.1l0,0
					l0,0.1c0.1,0.3,0,0.3,0.1,0.5c0,0.3-0.1,0.5-0.1,0.7c-0.3,1-0.8,2.2-1.5,3.4c-0.3,0.6-0.7,1.1-1.1,1.6c-0.2,0.2-0.4,0.4-0.7,0.6
					c-0.3,0.1-0.5,0.2-0.8,0.2c-0.5,0-0.9-0.2-1.2-0.3c-0.3-0.1-0.4-0.1-0.4-0.1s0.2,0,0.4,0.1c0.3,0.1,0.7,0.2,1.1,0.2
					c0.5,0,0.9-0.4,1.3-0.9c0.3-0.5,0.6-1.1,0.9-1.6c0.5-1.2,0.8-2.4,1-3.3c0-0.2,0-0.4,0-0.6c0,0,0-0.2,0-0.1c0,0,0,0,0,0l0,0l0,0
					c0-0.1,0,0.1,0,0.1l0,0l0,0l0-0.1c0-0.1-0.1-0.2-0.1-0.2c-0.1-0.3,0-0.4,0-0.5c0,0,0,0,0,0c0,0,0,0,0,0L42.6,45.2z"/>
			</g>
			<g>
				<path class="st5" d="M34.4,45.2C34.4,45.2,34.4,45.3,34.4,45.2C34.4,45.2,34.4,45.2,34.4,45.2c0,0,0.1,0.1,0.2,0.4
					c0,0.1,0,0.2,0,0.2l0,0.1l0,0l0,0c0-0.1,0,0,0-0.1l0,0l0,0c0,0,0,0.1,0,0c0-0.1,0,0,0,0.1c0.1,0.1,0.2,0.3,0.3,0.5
					c0.5,0.8,1.4,1.7,2.4,2.5c0.5,0.4,1,0.8,1.5,1.1c0.5,0.3,1.1,0.4,1.5,0.2c0.4-0.2,0.7-0.5,0.9-0.7c0.2-0.2,0.4-0.3,0.4-0.3
					s-0.1,0.1-0.3,0.3c-0.2,0.2-0.4,0.5-0.9,0.8c-0.2,0.1-0.5,0.2-0.8,0.2c-0.3,0-0.6-0.1-0.9-0.2c-0.6-0.2-1.2-0.6-1.7-0.9
					c-1.1-0.7-2.1-1.6-2.8-2.4c-0.2-0.2-0.3-0.4-0.5-0.6c-0.1-0.1-0.1-0.2-0.2-0.5l0-0.1l0,0l0-0.1l0,0l0,0l0,0l0,0c0,0,0,0-0.1-0.1
					c0,0-0.1-0.1-0.1-0.2c0,0,0,0,0,0L34.4,45.2z"/>
			</g>
			<g>
				<path class="st5" d="M33,48.1C33,48.1,33,48.2,33,48.1C33,48.1,33,48.1,33,48.1c0,0,0.1,0.1,0.2,0.4c0,0.1,0,0.2,0,0.2l0,0.1
					l0,0l0,0c0-0.1,0,0,0-0.1l0,0l0,0c0,0,0,0.1,0,0c0-0.1,0,0,0,0.1c0.1,0.1,0.2,0.3,0.3,0.5c0.5,0.8,1.4,1.7,2.4,2.5
					c0.5,0.4,1,0.8,1.5,1.1c0.5,0.3,1.1,0.4,1.5,0.2c0.4-0.2,0.7-0.5,0.9-0.7c0.2-0.2,0.4-0.3,0.4-0.3s-0.1,0.1-0.3,0.3
					c-0.2,0.2-0.4,0.5-0.9,0.8c-0.2,0.1-0.5,0.2-0.8,0.2c-0.3,0-0.6-0.1-0.9-0.2c-0.6-0.2-1.2-0.6-1.7-0.9c-1.1-0.7-2.1-1.6-2.8-2.4
					c-0.2-0.2-0.3-0.4-0.5-0.6c-0.1-0.1-0.1-0.2-0.2-0.5l0-0.1l0,0l0-0.1l0,0l0,0l0,0l0,0c0,0,0,0-0.1-0.1c0,0-0.1-0.1-0.1-0.2
					c0,0,0,0,0,0L33,48.1z"/>
			</g>
			<g>
				<path class="st5" d="M32.1,51.4C32.1,51.4,32.1,51.5,32.1,51.4C32.1,51.4,32.1,51.4,32.1,51.4c0,0,0.1,0.1,0.2,0.4
					c0,0.1,0,0.2,0,0.2l0,0.1l0,0l0,0c0-0.1,0,0,0-0.1l0,0l0,0c0,0,0,0.1,0,0c0-0.1,0,0,0,0.1c0.1,0.1,0.2,0.3,0.3,0.5
					c0.5,0.8,1.4,1.7,2.4,2.5c0.5,0.4,1,0.8,1.5,1.1c0.5,0.3,1.1,0.4,1.5,0.2c0.4-0.2,0.7-0.5,0.9-0.7c0.2-0.2,0.4-0.3,0.4-0.3
					s-0.1,0.1-0.3,0.3c-0.2,0.2-0.4,0.5-0.9,0.8c-0.2,0.1-0.5,0.2-0.8,0.2c-0.3,0-0.6-0.1-0.9-0.2c-0.6-0.2-1.2-0.6-1.7-0.9
					c-1.1-0.7-2.1-1.6-2.8-2.4c-0.2-0.2-0.3-0.4-0.5-0.6c-0.1-0.1-0.1-0.2-0.2-0.5l0-0.1l0,0l0-0.1l0,0l0,0l0,0l0,0c0,0,0,0-0.1-0.1
					c0,0-0.1-0.1-0.1-0.2c0,0,0,0,0,0L32.1,51.4z"/>
			</g>
			<g>
				<path class="st5" d="M36.3,43.4C36.3,43.4,36.3,43.4,36.3,43.4C36.3,43.4,36.3,43.4,36.3,43.4c0,0,0,0.2-0.1,0.5
					c0,0.1-0.1,0.1-0.1,0.2l0,0.1l0,0l0,0c0,0,0-0.1,0,0l0,0l0,0c0,0,0,0,0,0c0.1-0.1,0,0,0,0.1c0,0.1-0.1,0.3-0.1,0.6
					c-0.1,0.9,0,2.2,0.2,3.5c0.1,0.6,0.3,1.3,0.5,1.8c0.2,0.6,0.6,1,1.1,1.1c0.5,0.1,0.9,0,1.2,0.1c0.3,0,0.4,0,0.4,0s-0.2,0-0.4,0
					c-0.3,0-0.7,0.1-1.2,0c-0.3-0.1-0.5-0.2-0.7-0.4c-0.2-0.2-0.4-0.5-0.5-0.7c-0.3-0.5-0.5-1.2-0.7-1.8c-0.4-1.3-0.6-2.6-0.6-3.6
					c0-0.3,0-0.5,0-0.8c0-0.1,0-0.2,0.2-0.5l0-0.1l0,0l0,0c0,0,0.1-0.1,0,0l0,0l0,0l0,0l0,0c0,0,0-0.1,0-0.2c0-0.1,0-0.1,0-0.2
					c0,0,0,0,0,0L36.3,43.4z"/>
			</g>
			<g>
				<path class="st5" d="M38.5,43.6C38.5,43.6,38.5,43.6,38.5,43.6C38.5,43.6,38.5,43.6,38.5,43.6c0,0,0,0.2-0.1,0.5
					c0,0.1-0.1,0.1-0.1,0.2l0,0.1l0,0l0,0c0,0,0-0.1,0,0l0,0l0,0c0,0,0,0,0,0c0.1-0.1,0,0,0,0.1c0,0.1-0.1,0.3-0.1,0.6
					c-0.1,0.9,0,2.2,0.2,3.5c0.1,0.6,0.3,1.3,0.5,1.8c0.2,0.6,0.6,1,1.1,1.1c0.5,0.1,0.9,0,1.2,0.1c0.3,0,0.4,0,0.4,0s-0.2,0-0.4,0
					c-0.3,0-0.7,0.1-1.2,0c-0.3-0.1-0.5-0.2-0.7-0.4c-0.2-0.2-0.4-0.5-0.5-0.7c-0.3-0.5-0.5-1.2-0.7-1.8c-0.4-1.3-0.6-2.6-0.6-3.6
					c0-0.3,0-0.5,0-0.8c0-0.1,0-0.2,0.2-0.5l0-0.1l0,0l0,0c0,0,0.1-0.1,0,0l0,0l0,0l0,0l0,0c0,0,0-0.1,0-0.2c0-0.1,0-0.1,0-0.2
					c0,0,0,0,0,0L38.5,43.6z"/>
			</g>
			<g>
				<path class="st5" d="M38.9,43.9C38.9,43.9,38.9,43.9,38.9,43.9C39,44,39,44,39,44.1c0.1,0.1,0.1,0.2,0.1,0.1c0,0,0,0,0,0l0,0
					l0,0l0,0l0,0c-0.1,0,0.1,0,0.1,0l0,0l0.1,0c0.2,0.2,0.3,0.2,0.4,0.3c0.2,0.2,0.3,0.4,0.4,0.7c0.4,0.9,0.8,2.2,1.1,3.5
					c0.1,0.7,0.2,1.3,0.2,1.9c0,0.3,0,0.6-0.2,0.9c-0.1,0.3-0.3,0.5-0.5,0.7c-0.4,0.3-0.8,0.4-1.1,0.5c-0.3,0.1-0.4,0.2-0.4,0.2
					s0.1-0.1,0.4-0.2c0.2-0.1,0.7-0.2,1-0.6c0.4-0.3,0.5-0.9,0.4-1.5c0-0.6-0.2-1.2-0.4-1.8c-0.4-1.2-0.9-2.4-1.4-3.2
					c-0.1-0.2-0.2-0.4-0.3-0.5c0,0-0.1-0.1,0,0c0,0,0,0,0,0l0,0c0,0,0.1,0,0.1,0l0,0l0,0l0,0l-0.1,0c-0.1,0-0.2-0.1-0.2-0.1
					c-0.2-0.2-0.3-0.3-0.3-0.4c0,0,0,0,0,0c0,0,0,0,0,0L38.9,43.9z"/>
			</g>
			<g>
				<path class="st5" d="M58.1,57.2C58.1,57.2,58.1,57.2,58.1,57.2C58.1,57.2,58.1,57.2,58.1,57.2c0,0,0.2,0,0.5,0
					c0.1,0,0.2,0,0.2,0.1l0.1,0l0,0l0,0l0,0c0,0,0.1,0-0.1,0l0,0c0,0,0,0,0,0c-0.1,0,0,0,0.1,0c0.1,0,0.4,0,0.6-0.1
					c0.9-0.2,2.2-0.5,3.3-1.1c0.6-0.3,1.2-0.6,1.6-0.9c0.2-0.2,0.4-0.4,0.6-0.6c0.1-0.2,0.2-0.5,0.2-0.7c0-0.5-0.2-0.9-0.2-1.1
					C65,52.6,65,52.4,65,52.4s0,0.2,0.1,0.4c0.1,0.3,0.3,0.6,0.3,1.1c0,0.3-0.1,0.5-0.2,0.8c-0.1,0.3-0.4,0.5-0.6,0.7
					c-0.5,0.4-1,0.8-1.6,1.2c-1.1,0.7-2.3,1.2-3.3,1.6c-0.3,0.1-0.5,0.1-0.7,0.2c-0.1,0-0.2,0-0.5,0l-0.1,0l0,0c-0.1-0.1,0,0-0.1,0
					l0,0l0,0l0,0l0,0c0,0,0,0,0,0c0,0-0.1,0-0.2,0c-0.1,0-0.1,0-0.2,0c0,0,0,0,0,0L58.1,57.2z"/>
			</g>
			<g>
				<path class="st5" d="M55.4,55.7C55.4,55.7,55.5,55.7,55.4,55.7C55.4,55.7,55.4,55.7,55.4,55.7c0,0,0.2,0,0.5,0
					c0.1,0,0.2,0,0.2,0.1l0.1,0l0,0l0,0l0,0c0,0,0.1,0-0.1,0l0,0c0,0,0,0,0,0c-0.1,0,0,0,0.1,0c0.1,0,0.4,0,0.6,0
					c0.9-0.1,2.2-0.4,3.4-0.8c0.6-0.2,1.2-0.5,1.7-0.8c0.2-0.2,0.5-0.4,0.6-0.6c0.2-0.2,0.3-0.4,0.3-0.7c0-0.5-0.1-0.9-0.2-1.1
					c-0.1-0.3-0.1-0.4-0.1-0.4s0,0.2,0.1,0.4c0.1,0.3,0.3,0.6,0.3,1.2c0,0.3-0.1,0.5-0.3,0.8c-0.2,0.3-0.4,0.5-0.6,0.7
					c-0.5,0.4-1.1,0.7-1.6,1.1c-1.2,0.6-2.4,1.1-3.4,1.3c-0.3,0.1-0.5,0.1-0.8,0.1c-0.1,0-0.2,0-0.5-0.1l-0.1,0l0,0
					c-0.1-0.1,0,0-0.1,0l0,0l0,0l0,0l0,0c0,0,0,0,0,0c0,0-0.1,0-0.2,0c-0.1,0-0.1,0-0.2,0c0,0,0,0,0,0L55.4,55.7z"/>
			</g>
			<g>
				<path class="st5" d="M61.2,59.6C61.2,59.6,61.2,59.6,61.2,59.6C61.2,59.7,61.2,59.7,61.2,59.6c0,0,0.1-0.1,0.4-0.3
					c0.1,0,0.1-0.1,0.2-0.1l0.1,0l0,0l0,0l0,0c0,0,0.1,0-0.1,0l0,0l0,0c-0.1,0,0,0,0,0c0.1-0.1,0.3-0.2,0.4-0.4
					c0.7-0.6,1.4-1.7,2.1-2.8c0.3-0.6,0.6-1.1,0.8-1.7c0.2-0.6,0.2-1.1-0.1-1.5c-0.3-0.4-0.6-0.6-0.9-0.8c-0.2-0.2-0.3-0.3-0.3-0.3
					s0.1,0.1,0.3,0.3c0.2,0.2,0.6,0.3,0.9,0.7c0.2,0.2,0.3,0.5,0.3,0.8c0,0.3,0,0.6-0.1,0.9c-0.1,0.6-0.3,1.2-0.6,1.9
					c-0.5,1.2-1.2,2.4-1.8,3.2c-0.2,0.2-0.3,0.4-0.5,0.6c-0.1,0.1-0.2,0.2-0.4,0.3l-0.1,0l0,0c-0.1,0,0,0-0.1,0l0,0l0,0l0,0l0,0
					c0,0,0,0,0,0c0,0,0,0.1-0.1,0.1c0,0-0.1,0.1-0.2,0.1c0,0,0,0,0,0L61.2,59.6z"/>
			</g>
			<g>
				<path class="st5" d="M63.1,61.2C63.1,61.2,63.1,61.2,63.1,61.2c0-0.2,0-0.2,0.1-0.3c0-0.1,0.1-0.2,0.1-0.2l0,0l0,0l0,0l0,0
					l0-0.1l0,0l0-0.1c0-0.3,0-0.3,0-0.5c0.1-0.2,0.2-0.5,0.3-0.7c0.5-0.9,1.2-2,2.1-3c0.4-0.5,0.9-1,1.4-1.3
					c0.3-0.2,0.5-0.3,0.8-0.4c0.3-0.1,0.6-0.1,0.8-0.1c0.5,0.1,0.8,0.4,1.1,0.5c0.2,0.1,0.4,0.2,0.4,0.2s-0.2,0-0.4-0.1
					c-0.3-0.1-0.6-0.4-1.1-0.4c-0.5-0.1-1,0.2-1.4,0.6c-0.4,0.4-0.8,0.9-1.2,1.4c-0.7,1.1-1.3,2.2-1.6,3.1c-0.1,0.2-0.1,0.4-0.1,0.6
					c0,0,0,0.2,0,0.1c0,0,0,0,0,0l0,0l0,0c0,0,0,0.1,0-0.1l0,0l0,0l0,0.1c0,0.1,0,0.2,0,0.2c0,0.3-0.1,0.4-0.1,0.5c0,0,0,0,0,0
					c0,0,0,0,0,0L63.1,61.2z"/>
			</g>
			<g>
				<path class="st5" d="M66.4,62.9C66.4,62.9,66.4,62.9,66.4,62.9c0-0.1,0-0.2,0-0.3c0-0.1,0-0.2,0-0.2l0,0l0,0l0,0l0,0
					c0,0,0-0.1,0-0.1l0,0l0,0l0-0.1c-0.1-0.3-0.1-0.3-0.1-0.5c0-0.3,0-0.5,0-0.8c0.1-1,0.3-2.3,0.8-3.6c0.2-0.6,0.5-1.2,0.8-1.8
					c0.2-0.3,0.3-0.5,0.6-0.7c0.2-0.2,0.5-0.3,0.7-0.4c0.5-0.1,0.9,0.1,1.2,0.1c0.3,0,0.4,0,0.4,0s-0.2,0-0.4,0
					c-0.3,0-0.7-0.1-1.2,0c-0.5,0.1-0.8,0.5-1.1,1.1c-0.2,0.5-0.4,1.2-0.5,1.8c-0.3,1.3-0.4,2.5-0.3,3.5c0,0.2,0,0.4,0.1,0.6
					c0,0.1,0.1,0.2,0,0.1c0,0,0,0,0,0l0,0l0,0c0,0-0.1-0.1,0,0l0,0l0,0l0,0.1c0.1,0.1,0.1,0.1,0.1,0.2c0.1,0.3,0.1,0.4,0.1,0.5
					c0,0,0,0,0,0c0,0,0,0,0,0L66.4,62.9z"/>
			</g>
			<g>
				<path class="st5" d="M69.5,62.1C69.5,62.1,69.5,62.1,69.5,62.1c0-0.1-0.1-0.2-0.1-0.2c0-0.1,0-0.2,0-0.2l0,0l0,0l0,0l0,0
					c0,0-0.1-0.1,0,0l0,0l0,0l0-0.1c-0.1-0.2-0.1-0.3-0.2-0.5c0-0.3-0.1-0.5-0.1-0.8c0-1,0.2-2.3,0.6-3.6c0.2-0.6,0.4-1.3,0.7-1.8
					c0.2-0.3,0.3-0.5,0.5-0.7c0.2-0.2,0.5-0.4,0.7-0.4c0.5-0.1,0.9,0,1.2,0c0.3,0,0.4,0,0.4,0s-0.2,0-0.4,0c-0.3,0-0.7-0.1-1.2,0.1
					c-0.5,0.1-0.8,0.6-1,1.1c-0.2,0.6-0.3,1.2-0.4,1.8c-0.2,1.3-0.2,2.6-0.1,3.5c0,0.2,0.1,0.4,0.1,0.6c0,0.1,0.1,0.1,0,0.1
					c0,0,0,0,0,0l0,0l0,0c0,0-0.1-0.1,0,0l0,0l0,0l0,0c0.1,0.1,0.1,0.1,0.1,0.2c0.1,0.3,0.1,0.4,0.1,0.5c0,0,0,0,0,0c0,0,0,0,0,0
					L69.5,62.1z"/>
			</g>
			<g>
				<path class="st5" d="M73,61.1C73,61.1,73,61.1,73,61.1c0-0.2,0-0.2,0-0.3c0-0.1,0-0.2,0-0.2l0,0l0,0l0,0l0,0c0,0,0-0.1,0-0.1
					l0,0l0,0l0-0.1c-0.1-0.3-0.1-0.3-0.1-0.5c0-0.3,0-0.5,0-0.8c0.1-1,0.4-2.3,0.9-3.6c0.2-0.6,0.5-1.2,0.9-1.7
					c0.2-0.3,0.4-0.5,0.6-0.7c0.2-0.2,0.5-0.3,0.7-0.3c0.5-0.1,0.9,0.1,1.2,0.1c0.3,0,0.4,0,0.4,0s-0.2,0-0.4,0
					c-0.3,0-0.7-0.1-1.2,0c-0.5,0.1-0.9,0.5-1.1,1c-0.3,0.5-0.5,1.1-0.6,1.8c-0.3,1.2-0.5,2.5-0.4,3.4c0,0.2,0,0.4,0.1,0.6
					c0,0.1,0.1,0.2,0,0.1c0,0,0,0,0,0l0,0l0,0c0,0-0.1-0.1,0,0l0,0l0,0l0,0.1c0.1,0.1,0.1,0.1,0.1,0.2c0.1,0.3,0.1,0.4,0.1,0.5
					c0,0,0,0,0,0c0,0,0,0,0,0L73,61.1z"/>
			</g>
			<g>
				<path class="st5" d="M76.9,60.6C76.9,60.6,76.9,60.6,76.9,60.6c-0.1-0.1-0.1-0.2-0.1-0.2c0-0.1,0-0.2,0-0.2l0,0l0,0l0,0l0,0
					c0,0,0,0,0,0l0,0l0,0l0-0.1c-0.2-0.2-0.2-0.3-0.2-0.5c-0.1-0.2-0.1-0.5-0.1-0.8c-0.1-1,0-2.4,0.3-3.7c0.1-0.6,0.3-1.3,0.6-1.9
					c0.1-0.3,0.3-0.6,0.5-0.8c0.2-0.2,0.4-0.4,0.7-0.5c0.5-0.1,0.9-0.1,1.2-0.1c0.3,0,0.4,0,0.4,0s-0.2,0.1-0.4,0.1
					c-0.3,0-0.7,0-1.1,0.2c-0.4,0.2-0.8,0.6-0.9,1.2c-0.2,0.6-0.3,1.2-0.3,1.8c-0.1,1.3,0,2.6,0.1,3.5c0,0.2,0.1,0.4,0.1,0.6
					c0,0,0.1,0.1,0,0.1c0,0,0,0,0,0l0,0l0,0c-0.1-0.1,0,0,0,0l0,0l0,0l0.1,0c0.1,0.1,0.1,0.1,0.2,0.2c0.1,0.3,0.2,0.4,0.2,0.5
					c0,0,0,0,0,0c0,0,0,0,0,0L76.9,60.6z"/>
			</g>
			<g>
				<path class="st5" d="M80.4,60.4C80.4,60.4,80.4,60.4,80.4,60.4c-0.1-0.1-0.1-0.2-0.1-0.2c0-0.1,0-0.2,0-0.2l0,0l0,0l0,0l0,0
					c0,0,0,0,0,0l0,0l0,0l0-0.1C80,59.7,80,59.6,80,59.5c-0.1-0.2-0.1-0.5-0.1-0.8c0-1,0.1-2.4,0.4-3.7c0.1-0.6,0.3-1.3,0.6-1.9
					c0.1-0.3,0.3-0.6,0.5-0.8c0.2-0.2,0.4-0.4,0.7-0.4c0.5-0.1,0.9,0,1.2,0c0.3,0,0.4,0,0.4,0S83.5,52,83.3,52c-0.3,0-0.7,0-1.1,0.1
					c-0.4,0.2-0.8,0.6-1,1.2c-0.2,0.6-0.3,1.2-0.3,1.8c-0.1,1.3-0.1,2.6,0.1,3.5c0,0.2,0.1,0.4,0.1,0.6c0,0,0.1,0.1,0,0.1
					c0,0,0,0,0,0l0,0l0,0c-0.1-0.1,0,0,0,0l0,0l0,0l0,0c0.1,0.1,0.1,0.1,0.1,0.2c0.1,0.3,0.1,0.4,0.2,0.5c0,0,0,0,0,0c0,0,0,0,0,0
					L80.4,60.4z"/>
			</g>
			<g>
				<path class="st5" d="M81.8,59.4c0,0,0-0.1,0-0.3c0-0.1,0-0.4,0.1-0.5c0.1-0.2,0.2-0.3,0.3-0.5c0.2-0.3,0.5-0.6,0.8-0.9
					c0.3-0.3,0.7-0.6,1-0.9c0.8-0.6,1.6-1,2.3-1.2c0.7-0.2,1.1-0.2,1.1-0.2s-0.5,0-1.1,0.3c-0.6,0.3-1.4,0.8-2,1.4
					c-0.3,0.3-0.6,0.6-0.8,1c-0.2,0.4-0.4,0.7-0.6,1c-0.1,0.1-0.1,0.3-0.1,0.3c0,0.1,0,0.1,0,0.2c0,0.1,0,0.2,0,0.2
					c0,0.1,0,0.1,0,0.1L81.8,59.4z"/>
			</g>
			<g>
				<path class="st5" d="M84.1,60.2c0,0,2.8-0.4,5.5-1.1c2.7-0.7,5.4-1.7,5.4-1.7s-2.5,1.3-5.2,2.3c-2.7,1-5.4,1.7-5.4,1.7
					L84.1,60.2z"/>
			</g>
			<g>
				<path class="st5" d="M84.4,61.8c0,0,2.9,0,5.7,0.4c2.8,0.3,5.6,1,5.6,1s-2.8-0.4-5.6-0.4c-2.8-0.1-5.6,0.2-5.6,0.2L84.4,61.8z"
					/>
			</g>
			<path class="st6" d="M10.5,74.2"/>
		</g>
	</g>
	<g>
		<path class="st5" d="M69.9,30.1c0.4,0.3,0.5,1,0.9,1.4c0.4,0.3,1.1,0.3,1.5,0.6c0.1,0,0.4,0.3,0.4,0.7c0,0.3-0.1,0.6-0.2,0.8v0
			c-0.4,0.5-1.1,0.5-1.6,0.1c-0.4-0.3-0.5-1-0.9-1.3c-0.4-0.3-1.1-0.3-1.5-0.6c-0.1,0-0.4-0.3-0.4-0.7c0-0.3,0.1-0.6,0.2-0.8l0,0
			C68.7,29.7,69.4,29.7,69.9,30.1z"/>
		<path class="st5" d="M72.5,33.5c0.7-0.9,2.6-0.6,4.2,0.7c1.6,1.3,2.3,3.1,1.5,4c-0.7,0.9-2.6,0.6-4.2-0.7S71.8,34.4,72.5,33.5z"/>
		<path class="st5" d="M65.1,27.7c0.8-1,2.3-0.9,3.5-0.2c0.9,0.5,1.4,1.2,1.1,1.7c-0.4,0.6-1.1,0.1-1.7,0.8
			c-0.5,0.6,0.2,1.2-0.2,1.6c-0.8,0.9-2.2-0.5-2.2-0.6C64.7,30.3,64.2,28.7,65.1,27.7z"/>
		<path class="st0" d="M80.7,37.2"/>
		<g>
			<polygon class="st5" points="72.5,35 71.2,38 71.2,37.7 73.3,40.4 73.4,40.4 73.3,40.5 72.4,44.3 73.1,40.4 73.1,40.6 70.8,38 
				70.7,37.9 70.7,37.8 71.8,34.7 			"/>
		</g>
		<g>
			<polygon class="st5" points="70.4,34.1 67.7,35.4 67.9,35.2 67.1,39.9 67.4,35.1 67.4,35 67.5,34.9 70.1,33.4 			"/>
		</g>
		<g>
			<path class="st5" d="M68.8,32.7c0,0-1.5,0.7-2.9,1.5c-1.4,0.8-2.8,1.7-2.8,1.7s1.3-1,2.6-2c1.4-0.9,2.7-1.8,2.7-1.8L68.8,32.7z"
				/>
		</g>
		<path class="st7" d="M65.5,29.4l-1.5,1.7c-0.3,0.1-1.1,0.4-2,0.2c-0.8-0.1-3.8-1.2-4.1-1.4"/>
		<g>
			<polygon class="st5" points="72.7,32.3 75.6,30.7 75.7,30.6 75.9,30.7 78.8,32.5 78.7,32.5 82.4,31.1 78.8,32.7 78.7,32.8 
				78.7,32.7 75.6,31.1 75.9,31.1 73.1,33 			"/>
		</g>
		<g>
			<polygon class="st5" points="71.1,30.9 72.2,28.1 72.2,28 72.3,27.9 77,26.8 72.5,28.4 72.6,28.2 71.9,31.1 			"/>
		</g>
		<g>
			<polygon class="st5" points="69.5,29.5 70.8,26.5 70.9,26.4 70.9,26.4 72.7,24.9 71.1,26.7 71.2,26.6 70.3,29.8 			"/>
		</g>
		<path class="st7" d="M66.9,27.9l1.2-1.9c0-0.4,0-1.1-0.4-2c-0.4-0.7-2.4-3.2-2.6-3.4"/>
	</g>
</g>
</svg>
