<?xml version="1.0" encoding="utf-8"?>
<!-- Generator: Adobe Illustrator 19.1.1, SVG Export Plug-In . SVG Version: 6.00 Build 0)  -->
<svg version="1.1" id="Layer_1" xmlns="http://www.w3.org/2000/svg" xmlns:xlink="http://www.w3.org/1999/xlink" x="0px" y="0px"
	 viewBox="0 0 612 792" style="enable-background:new 0 0 612 792;" xml:space="preserve">
<style type="text/css">
	.st0{fill:#8D5D3C;}
	.st1{fill:#3E281C;}
	.st2{fill:none;stroke:#633A1A;stroke-width:4.7055;stroke-linecap:round;stroke-miterlimit:10;}
	.st3{fill:none;stroke:#784C2C;stroke-width:4.7055;stroke-linecap:round;stroke-miterlimit:10;}
</style>
<g>
	<g>
		<ellipse class="st0" cx="55.7" cy="56.2" rx="44.9" ry="45.4"/>
		<path class="st1" d="M79.1,72.2c-0.9,1.6-5.4,0.8-10.1-1.7s-7.9-5.8-7-7.4c0.9-1.6,5.4-0.8,10.1,1.7
			C76.8,67.3,79.9,70.6,79.1,72.2z"/>
		<path class="st1" d="M41.7,73.4c0.6,1.3-1,3.4-3.7,4.7c-2.7,1.3-5.3,1.3-6,0c-0.6-1.3,1-3.4,3.7-4.7
			C38.4,72.1,41.1,72.1,41.7,73.4z"/>
		<path class="st1" d="M33.5,45.7c0.5,1.4,4,1.5,7.9,0.2s6.5-3.6,6-5c-0.5-1.4-4-1.5-7.9-0.2S33,44.3,33.5,45.7z"/>
		<path class="st1" d="M68,35c-1,1.2,0.7,4.2,3.8,6.9c3.1,2.6,6.4,3.8,7.4,2.6c1-1.2-0.7-4.2-3.8-6.9C72.3,35,69,33.8,68,35z"/>
	</g>
	<path class="st2" d="M50,54.7c-0.4,0.1-1.9,0.3-3,1.7c-1.1,1.3-1.1,2.8-1.1,3.2"/>
	<path class="st2" d="M55.8,83.4c0.3-0.1,1.7-0.8,2.5-2.4c0.7-1.6,0.4-3,0.3-3.4"/>
	<ellipse class="st3" cx="51.1" cy="27.7" rx="1.1" ry="1.2"/>
	<ellipse class="st3" cx="22.8" cy="52.9" rx="0.7" ry="0.7"/>
	<ellipse class="st3" cx="72" cy="51.2" rx="0.2" ry="0.3"/>
	<ellipse class="st3" cx="69.3" cy="82.7" rx="0.2" ry="0.3"/>
	<line class="st3" x1="89.2" y1="51.3" x2="86.7" y2="57.3"/>
	<line class="st3" x1="92.1" y1="64.4" x2="86.4" y2="61.3"/>
	<line class="st3" x1="81.5" y1="55.2" x2="82.2" y2="61.6"/>
</g>
</svg>
