<?xml version="1.0" encoding="utf-8"?>
<!-- Generator: Adobe Illustrator 19.1.1, SVG Export Plug-In . SVG Version: 6.00 Build 0)  -->
<svg version="1.1" id="Layer_1" xmlns="http://www.w3.org/2000/svg" xmlns:xlink="http://www.w3.org/1999/xlink" x="0px" y="0px"
	 viewBox="0 0 612 792" style="enable-background:new 0 0 612 792;" xml:space="preserve">
<style type="text/css">
	.st0{fill:#633A1A;}
	.st1{fill:#8D5D3C;}
	.st2{fill:#784C2C;stroke:#8D5D3C;stroke-miterlimit:10;}
	.st3{fill:none;stroke:#633A1A;stroke-width:0.7842;stroke-miterlimit:10;}
	.st4{fill:none;stroke:#8D5D3C;stroke-width:0.75;stroke-miterlimit:10;}
	.st5{fill:#AE7D4F;}
	.st6{fill:none;stroke:#784C2C;stroke-width:0.5;stroke-miterlimit:10;}
	.st7{fill:#C89D6A;}
</style>
<path class="st0" d="M102.2,59c0,25.1-20.1,45.4-44.9,45.4c-24.8,0-44.9-20.3-44.9-45.4c0-6.3,1.4-11.3,1.9-13.2
	c0.2-0.7,0.5-1.6,0.9-2.6c0-0.1,0.1-0.3,0.2-0.5c0,0,0.6-1.5,1.2-3c0.3-0.6,13.1-26.1,40.7-26.1c18,0,33.5,10.7,40.7,26.1
	c1.3,2.9,2.3,6,2.3,6C100.8,47.7,102.2,52.7,102.2,59z"/>
<path class="st1" d="M102.3,59c0.1,1.6,0,3.1,0,4.5c-15,0.1-30,0.1-45,0.2c-14.9,0-29.7,0-44.6,0c-0.2-1.9-0.2-3.5-0.2-4.7
	c0,0,0-6.9,1.9-13.2c0.2-0.7,0.5-1.6,0.9-2.6c0-0.1,0.1-0.3,0.2-0.5c0,0,0.6-1.5,1.2-3c0.3-0.6,13.1-26.1,40.7-26.1
	c18,0,33.5,10.7,40.7,26.1c1.3,2.9,2.3,6,2.3,6C101.3,49.5,102.1,54,102.3,59z"/>
<path class="st2" d="M36.3,76.1"/>
<path class="st3" d="M22.8,58.1"/>
<path class="st4" d="M43.2,64.3c-0.8,0.7-5.6,4.9-4.2,10.4c1.2,4.4,5.8,7.7,10.4,9.2c4.7,1.5,10.6,1.7,16.7,3.8
	c4.6,1.5,5.2,6.4,7.2,7.2c1.2,0.5,3.5,0.7,8.1-1.3"/>
<g>
	<path class="st5" d="M42.7,62.6c0,0,6.7-15.9,1-25.6C39.6,29.9,31,25.9,31,25.9s-4.7,15.6,2.7,22.6C39.1,53.5,42.7,62.6,42.7,62.6z
		"/>
	<path class="st6" d="M41.9,55.5c-0.7-4.1-1.1-7.2-3.6-13.8c-1.4-3.7-3-6.5-4.9-8.6"/>
	<path class="st7" d="M42.9,64.3c0,0-4.9-14.9,1.3-24.3c7.8-12,18.4-14.2,18.4-14.2s-1,19.6-8.5,25.7C48.8,55.9,42.9,64.3,42.9,64.3
		z"/>
	<path class="st6" d="M43.2,64.3c0.7-4.1,0.9-13.9,5.7-20.7c2.3-3.2,4-5.2,5.9-7.4"/>
</g>
<path class="st4" d="M43.2,64.3c1.4,7.5,5.6,4.9,8.7,8.3c3.6,4,3,8,5.4,9.2"/>
<path class="st4" d="M43.2,64.3c-7.5,0.2-15.3,0.9-15.3,1.6c0,0.8,5.3,3.1,5.5,4.8c0.2,1.3-1.8,1.4-14,4.7"/>
<path class="st4" d="M39.6,76.1c-1.5,2.3-2.7,5.5-2.7,7.2c0,5,3.9,7.9,2.7,11c-0.5,1.3-1.8,2.1-2.7,2.5"/>
<path class="st4" d="M43.2,64.3c3.8-0.2,7.5-0.3,9.4,1.6c1.4,1.4,0.7,3.4,1.6,5.1c1.4,2.8,7,0.6,11.8,3.4c2.2,1.3,4.7,3.9,5.9,10"/>
</svg>
