<?xml version="1.0" encoding="utf-8"?>
<!-- Generator: Adobe Illustrator 19.1.1, SVG Export Plug-In . SVG Version: 6.00 Build 0)  -->
<svg version="1.1" id="Layer_1" xmlns="http://www.w3.org/2000/svg" xmlns:xlink="http://www.w3.org/1999/xlink" x="0px" y="0px"
	 viewBox="0 0 612 792" style="enable-background:new 0 0 612 792;" xml:space="preserve">
<style type="text/css">
	.st0{fill:#8D5D3C;}
	.st1{fill:#633A1A;}
	.st2{fill:#A1887B;}
	.st3{fill:#3E281C;}
</style>
<g>
	<ellipse class="st0" cx="58.4" cy="59" rx="44.9" ry="45.4"/>
	<path class="st1" d="M60.7,38.1c1.2,4.5-4.9,10-13.7,12.3s-16.8,0.6-18-3.9s4.9-10,13.7-12.3C51.5,31.8,59.5,33.6,60.7,38.1z"/>
	<path class="st2" d="M63.4,77.3c0.1,1.9-1.4,3.4-2.6,4.6c-2.6,2.5-6.4-0.6-8.2-0.2c-2.7,0.6-4.2,4.2-5.5,4.1
		c-1.9-0.1-1.5-4.2-3.7-4.8c-2-0.6-3.6,2.1-5.3,1.3c-1.4-0.6-0.7-2.5-2.3-3.4c-1.7-1-4.2-0.1-4.9-0.9c-0.1-0.1-0.2-0.3-0.2-0.6
		c-0.2-3.6,7.3-1.9,6.9-6.8c-0.4-4.3,7.7-1.7,9.5-1.6c2.6,0.1,6-1.3,7.3-0.9c1.9,0.5-0.6,5.4,1.7,6.9C58.1,76.3,63.2,75.3,63.4,77.3
		z"/>
	<path class="st3" d="M90.3,52c1,1.2,0.7,2.9,0.5,4.2c-0.5,2.8-4.2,0.7-5.2,1.8c-1.5,1.6,0.9,5.2-0.1,5.7c-1.3,0.8-5,0.8-6.8,1.4
		c-1.5,0.5-2.8,2.5-4.2,2.8c-1.2,0.2,0.1-2.2-1.3-2.1c-1.5,0.1-2.9,0.7-3.7,0.5c-0.2,0-2-1.1-2.1-1.3c-1.8-2.2,5.7-2.4,3-5.4
		c-2.3-2.6,7.6-5.1,8.8-5.8c1.7-1.1-0.1-3.2,0.9-3.5c1.5-0.5,3.7,0.2,5.4,1.3C87.2,52.5,89.3,50.8,90.3,52z"/>
</g>
</svg>
