<?xml version="1.0" encoding="utf-8"?>
<!-- Generator: Adobe Illustrator 19.1.1, SVG Export Plug-In . SVG Version: 6.00 Build 0)  -->
<svg version="1.1" id="Layer_1" xmlns="http://www.w3.org/2000/svg" xmlns:xlink="http://www.w3.org/1999/xlink" x="0px" y="0px"
	 viewBox="0 0 612 792" style="enable-background:new 0 0 612 792;" xml:space="preserve">
<style type="text/css">
	.st0{fill:#8D5D3C;}
	.st1{fill:#784C2C;}
	.st2{fill:none;stroke:#633A1A;stroke-width:0.7842;stroke-miterlimit:10;}
	.st3{fill:#AE7D4F;}
</style>
<g>
	<path class="st0" d="M100.9,56.4c0,25.1-20.1,45.4-44.9,45.4S11,81.5,11,56.4c0-6.3,1.4-11.3,1.9-13.2c0.2-0.7,0.5-1.6,0.9-2.6
		c0-0.1,0.1-0.3,0.2-0.5c0,0,0.6-1.5,1.2-3c0.3-0.6,13.1-26.1,40.7-26.1c18,0,33.5,10.7,40.7,26.1c1.3,2.9,2.3,6,2.3,6
		C99.5,45.1,100.9,50.1,100.9,56.4z"/>
	<path class="st1" d="M34.9,73.5"/>
	<path class="st2" d="M39.1,94.8c-0.4-3.2-4.8-7.9-2-11.6c4.8-6.4,17.4-2.7,28-8.6C75.8,68.7,80,57.9,80.9,55.6
		c2.5-6.4-0.5-10.4,1.9-21.7c0.8-4,1.9-7.2,2.6-9.3"/>
	<path class="st2" d="M21.4,55.6"/>
	<path class="st2" d="M25.1,31.6C24,33,17,41.8,19.1,53.3c1.7,9.1,8.4,16.1,15.1,19.1c6.8,3,15.3,3.6,24.2,7.9
		c6.7,3.2,4.3,3.8,5.2,4.9c3.7,4.5,2.3,8.4,5.3,10.1c1.8,1,5.1,1.4,11.7-2.6"/>
	<path class="st2" d="M45.5,14.4c3.3,4,7.6,10.6,8.3,19.1c0.7,9.3-8.5,13.7-10.9,26.9c-1.7,8.9,0.4,23.1,7.9,28.8
		c5.5,4.2,16.1,2.9,22.2-2.2c8.7-7.3,4.5-18.7,13.9-26.9c4.5-3.9,9.9-5.2,13.6-5.6"/>
	<path class="st2" d="M97.5,48.8c-0.6-2.3-2.5-8.5-8.3-12.7c-1.8-1.3-5.2-3.7-9.4-3.4C76.4,33,76,34.8,73,35
		c-5.3,0.3-9.7-4.9-11.3-6.7c-4.2-4.8-3.3-7.5-6.4-9c-4-1.9-10.3,0.2-11.7,3.7c-1.3,3.3,3,5.5,2.3,9.3c-0.9,5.1-9.1,5.9-17,10.8
		c-4.4,2.8-10,7.7-14.7,17.2"/>
	<path class="st3" d="M40.6,57.2c-1.3-0.6-1-6.8,2.3-11.2c4.4-6,13-7.2,18.8-6.4c7.2,1,13.7,5.6,13.2,7.5c-0.2,0.8-1.9,0.8-11.7,1.5
		c-11,0.7-12.8,1-15.1,2.2C43.2,53.5,41.8,57.7,40.6,57.2z"/>
	<path class="st3" d="M54.1,50.7C55,52.9,56,56.4,56,60.8c0.1,4.9-1,8.8-1.9,11.2c2.8,0,5.6,0,8.3,0c0.3-3.1,0.4-7.6-0.8-12.7
		c-0.9-4-2.2-7.2-3.4-9.6"/>
	<path class="st2" d="M34.2,72.4C31,70.6,27.3,59.7,31.6,49c1.3-3.2,1.1-6.3,1.9-8.6"/>
</g>
</svg>
