<?xml version="1.0" encoding="utf-8"?>
<!-- Generator: Adobe Illustrator 19.1.1, SVG Export Plug-In . SVG Version: 6.00 Build 0)  -->
<svg version="1.1" xmlns="http://www.w3.org/2000/svg" xmlns:xlink="http://www.w3.org/1999/xlink" x="0px" y="0px"
	 viewBox="0 0 832 552" style="enable-background:new 0 0 832 552;" xml:space="preserve">
<style type="text/css">
	.st0{fill:#8D5D3C;}
	.st1{fill:#AE7D4F;}
	.st2{fill:#C89D6A;}
	.st3{fill:#6A6D70;}
	.st4{fill:#633A1A;}
	.st5{fill:#3E281C;}
	.st6{fill:none;stroke:#C5806D;stroke-width:3.7472;stroke-linecap:round;stroke-miterlimit:10;}
	.st7{fill:none;stroke:#C5806D;stroke-width:2.398;stroke-linecap:round;stroke-miterlimit:10;}
	.st8{fill:#00683C;}
	.st9{fill:#784C2C;}
	.st10{fill:#37B448;}
	.st11{fill:none;stroke:#E7131F;stroke-miterlimit:10;}
	.st12{fill:none;stroke:#E7131F;stroke-width:1.019;stroke-miterlimit:10;}
	.st13{fill:none;stroke:#E7131F;stroke-width:0.9646;stroke-miterlimit:10;}
	.st14{fill:none;stroke:#E7131F;stroke-width:1.1153;stroke-miterlimit:10;}
	.st15{fill:none;stroke:#E7131F;stroke-width:0.8025;stroke-miterlimit:10;}
	.st16{fill:none;stroke:#E7131F;stroke-width:1.1838;stroke-miterlimit:10;}
	.st17{fill:none;}
</style>
<g id="Layer_1">
	<path class="st0" d="M369.2,260.4c-14.5,0.8-36.3,1.4-62.7-0.1c-3.6-0.2-3.8-0.2-7-0.4c-38.7-2.3-66.6,0.8-104.5,1.3
		c-11.4,0.2-28.6,0.2-50-0.8c0-20.9,0-28.5,0-49.4c7,0.4,17.8,0.8,31,0.8c21,0,21.3-1.1,38-1c21.4,0.2,26.9,2,49.2,1.5
		c6.3-0.2,4.7-0.3,15.9-0.7c21.8-0.9,38.6-0.9,55.8-0.9c8.7,0,20.4,0.1,34.2,0.4C369.2,231.9,369.2,239.4,369.2,260.4z"/>
	<path class="st1" d="M369,366.6c-14.5,1.7-36.3,3.1-62.7-0.3c-3.6-0.5-3.8-0.6-7-1c-38.7-5.3-66.6,1.7-104.5,3
		c-11.4,0.4-28.6,0.4-50-1.7c0-47.1,0-64.1,0-111.2c7,0.8,17.8,1.8,31,1.8c21,0,21.3-2.5,38-2.3c21.4,0.4,26.9,4.5,49.2,3.3
		c6.3-0.4,4.7-0.6,15.9-1.7c21.8-2,38.6-2,55.8-1.9c8.7,0,20.4,0.2,34.2,0.8C369,302.5,369,319.5,369,366.6z"/>
	<path class="st2" d="M369.3,491.4H145.1V363.9c6.5,1.3,16.9,3,29.7,4c45.6,3.5,55-7.7,97.8-6c25.5,1.1,32.1,5.5,62.7,4.7
		c14.4-0.4,26.2-1.7,33.9-2.7C369.3,406.4,369.3,448.9,369.3,491.4z"/>
	<g>
		<path class="st3" d="M237.4,338.6c-3.2-3.8-6.4-5.7-8.6-6.3c-3.2-0.9-8.3,3.9-9.7,9.4c-1.1,4.4-0.1,10.5,3.5,12.1
			c0.6,0.3,1.9,0.7,7.4-1.1c6.5-2.1,11.9-3.9,12-6.3C242,344.2,241.5,343.5,237.4,338.6z"/>
		<path class="st3" d="M207.8,335.6c-1.7-0.7-3.1-0.7-3.9-0.5c-1.2,0.3-2,2.8-1.4,4.8c0.4,1.6,1.9,3.4,3.4,3.3
			c0.3,0,0.7-0.1,2.2-1.7c1.7-1.9,3.2-3.5,2.7-4.2C210.4,336.5,210,336.4,207.8,335.6z"/>
		<path class="st3" d="M165.7,360.4c0.1-1.9-0.3-3.2-0.8-3.9c-0.6-1-3.3-1-5,0.2c-1.4,0.9-2.7,2.9-2.1,4.2c0.1,0.2,0.3,0.7,2.3,1.6
			c2.3,1,4.3,1.9,4.9,1.3C165.6,363.1,165.6,362.7,165.7,360.4z"/>
		<path class="st3" d="M169.3,332.4c-1.8,0.5-2.9,1.3-3.5,1.9c-0.8,0.9,0,3.4,1.6,4.8c1.3,1.1,3.5,1.7,4.6,0.8
			c0.2-0.2,0.5-0.5,0.8-2.7c0.3-2.5,0.6-4.6-0.2-5C172,331.7,171.6,331.8,169.3,332.4z"/>
		<path class="st3" d="M186.8,324c-1.7-0.7-3.1-0.7-3.9-0.5c-1.2,0.3-2,2.8-1.4,4.8c0.4,1.6,1.9,3.4,3.4,3.3c0.3,0,0.7-0.1,2.2-1.7
			c1.7-1.9,3.2-3.5,2.7-4.2C189.3,324.9,189,324.8,186.8,324z"/>
		<path class="st3" d="M235.9,322.2c-1.7-0.7-3.1-0.7-3.9-0.5c-1.2,0.3-2,2.8-1.4,4.8c0.4,1.6,1.9,3.4,3.4,3.3
			c0.3,0,0.7-0.1,2.2-1.7c1.7-1.9,3.2-3.5,2.7-4.2C238.4,323.2,238.1,323.1,235.9,322.2z"/>
		<path class="st3" d="M286.6,331.5c-1.7-0.7-3.1-0.7-3.9-0.5c-1.2,0.3-2,2.8-1.4,4.8c0.4,1.6,1.9,3.4,3.4,3.3
			c0.3,0,0.7-0.1,2.2-1.7c1.7-1.9,3.2-3.5,2.7-4.2C289.2,332.4,288.9,332.3,286.6,331.5z"/>
		<path class="st3" d="M304.2,324.8c-1.7-0.7-3.1-0.7-3.9-0.5c-1.2,0.3-2,2.8-1.4,4.8c0.4,1.6,1.9,3.4,3.4,3.3
			c0.3,0,0.7-0.1,2.2-1.7c1.7-1.9,3.2-3.5,2.7-4.2C306.8,325.8,306.5,325.6,304.2,324.8z"/>
		<path class="st3" d="M338.3,333.8c-1.7-0.7-3.1-0.7-3.9-0.5c-1.2,0.3-2,2.8-1.4,4.8c0.4,1.6,1.9,3.4,3.4,3.3
			c0.3,0,0.7-0.1,2.2-1.7c1.7-1.9,3.2-3.5,2.7-4.2C340.9,334.7,340.5,334.6,338.3,333.8z"/>
		<path class="st3" d="M329.9,320.7c-1.7-0.7-3.1-0.7-3.9-0.5c-1.2,0.3-2,2.8-1.4,4.8c0.4,1.6,1.9,3.4,3.4,3.3
			c0.3,0,0.7-0.1,2.2-1.7c1.7-1.9,3.2-3.5,2.7-4.2C332.4,321.6,332.1,321.5,329.9,320.7z"/>
		<path class="st3" d="M353.7,324.8c-1.7-0.7-3.1-0.7-3.9-0.5c-1.2,0.3-2,2.8-1.4,4.8c0.4,1.6,1.9,3.4,3.4,3.3
			c0.3,0,0.7-0.1,2.2-1.7c1.7-1.9,3.2-3.5,2.7-4.2C356.2,325.8,355.9,325.6,353.7,324.8z"/>
		<path class="st3" d="M364.9,379.6c-1.7-0.7-3.1-0.7-3.9-0.5c-1.2,0.3-2,2.8-1.4,4.8c0.4,1.6,1.9,3.4,3.4,3.3
			c0.3,0,0.7-0.1,2.2-1.7c1.7-1.9,3.2-3.5,2.7-4.2C367.5,380.6,367.1,380.5,364.9,379.6z"/>
		<path class="st3" d="M320.6,337.8c-1.5-0.6-2.7-0.6-3.4-0.4c-1,0.2-1.7,2.4-1.2,4.1c0.4,1.4,1.6,2.9,2.9,2.8
			c0.2,0,0.6-0.1,1.9-1.5c1.5-1.6,2.7-3,2.3-3.6C322.7,338.6,322.5,338.5,320.6,337.8z"/>
		<path class="st3" d="M171.4,413.2c0.7-4.9-1.7-10-2.7-12c-1.4-2.9-8.5-3.6-13.4-0.9c-4,2.1-7.9,6.9-6.7,10.7
			c0.2,0.7,0.7,1.8,5.8,4.8c5.9,3.4,10.9,6.3,12.7,4.7C168.7,419,170.4,419.5,171.4,413.2z"/>
		<path class="st3" d="M361.4,362.3c2.6-4.2,2.3-9.9,2.2-12.1c-0.2-3.3-6.4-6.6-12-6.1c-4.5,0.4-10,3.3-10.4,7.2
			c-0.1,0.7,0,2,3.5,6.7c4.1,5.5,7.6,10,9.9,9.3C356.6,366.5,358.1,367.7,361.4,362.3z"/>
		<path class="st3" d="M214.5,382.3c-4.1,0.5-6.7,2-7.9,3.1c-1.8,1.8,1.8,3.4,5.6,6.7c3.1,2.7,6.6,8.6,9.1,6.9
			c0.4-0.3,5.6-1.2,6.1-5.8c0.6-5.4-2.6-12-4.5-13C221.2,379.1,219.8,381.6,214.5,382.3z"/>
		<path class="st3" d="M319.4,411c-0.1,4.2,1,6.9,2,8.3c1.5,2,3.6-1.3,7.5-4.5c3.1-2.6,9.5-5.3,8.1-8c-0.2-0.5-0.4-5.7-4.9-6.9
			c-5.2-1.4-12.2,0.8-13.6,2.5C317.2,404,319.5,405.7,319.4,411z"/>
		<path class="st3" d="M192.9,397.1c4.1-0.9,6.5-2.6,7.6-3.9c1.6-1.9-0.2-5.2-4.3-8.1c-3.3-2.4-9.2-6-11.6-4
			c-0.4,0.3-6.5,7.4-6.6,12c-0.1,5.4,4.5,5.8,6.9,5.6C186.9,398.4,187.7,398.2,192.9,397.1z"/>
		<path class="st3" d="M287.6,416.7c1.5,3.9,3.6,6,5,6.9c2.2,1.3,5.1-1,7.3-5.5c1.8-3.6,4.5-10.1,2.1-12.1
			c-0.4-0.4-8.3-5.3-12.9-4.6c-5.4,0.7-5,5.3-4.4,7.7C285.3,411,285.7,411.8,287.6,416.7z"/>
		<path class="st3" d="M298.3,346.3c-3.5-3.5-7.9-1.9-10.1-2.3c-3.2-0.6-7.9,4.7-8.7,10.3c-0.7,4.5,1,10.5,4.7,11.7
			c0.7,0.2,4.7,2.5,10.1,0.1c6.2-2.8,8.7-7.1,8.4-9.5C302.5,354.6,302.8,350.8,298.3,346.3z"/>
		<path class="st3" d="M189.4,340.5c-3.5-3.5-7.9-1.9-10.1-2.3c-3.2-0.6-7.9,4.7-8.7,10.3c-0.7,4.5,1,10.5,4.7,11.7
			c0.7,0.2,4.7,2.5,10.1,0.1c6.2-2.8,8.7-7.1,8.4-9.5C193.7,348.8,193.9,345,189.4,340.5z"/>
		<path class="st3" d="M238.5,400.8c-4.5-2.1-8.3-2.3-10.4-2c-3.2,0.6-5.8,7.1-4.6,12.7c0.9,4.5,4.5,9.5,8.4,9.4
			c0.7,0,2-0.2,6.2-4.2c4.9-4.7,9.1-8.7,8-10.9C245.1,403.8,244.3,403.5,238.5,400.8z"/>
		<path class="st3" d="M330.9,366.9c3.9-3.2,5.7-6.4,6.3-8.5c0.9-3.2-3.9-8.3-9.3-9.7c-4.4-1.1-10.5-0.1-12.2,3.4
			c-0.3,0.6-0.7,1.9,1.1,7.4c2.1,6.5,3.8,12,6.3,12C325.3,371.5,325.9,370.9,330.9,366.9z"/>
		<path class="st3" d="M360.4,392.5c-4.5-2.1-8.3-2.3-10.4-2c-3.2,0.6-5.8,7.1-4.6,12.7c0.9,4.5,4.5,9.5,8.4,9.4
			c0.7,0,2-0.2,6.2-4.2c4.9-4.7,9.1-8.7,8-10.9C367,395.5,366.1,395.2,360.4,392.5z"/>
		<path class="st3" d="M309.9,381.6c-5-0.2-8.5,1-10.4,2.1c-2.8,1.7-2.6,8.8,0.5,13.5c2.5,3.8,7.7,7.1,11.3,5.6
			c0.6-0.3,1.8-0.9,4.1-6.3c2.8-6.2,5.1-11.5,3.3-13.1C317.1,381.9,316.2,381.9,309.9,381.6z"/>
		<path class="st3" d="M203.3,370.2c4.7,1.5,8.5,1.4,10.6,0.7c3.1-0.9,4.9-7.8,3.1-13.1c-1.4-4.3-5.5-8.9-9.4-8.4
			c-0.7,0.1-1.9,0.4-5.7,4.9c-4.4,5.3-8,9.7-6.7,11.7C196.4,368,197.3,368.2,203.3,370.2z"/>
		<path class="st3" d="M273.3,350.9c-0.2-5-1.6-8.4-3-10.2c-2-2.6-9-1.9-13.4,1.6c-3.6,2.8-6.5,8.3-4.6,11.8
			c0.3,0.6,1.1,1.7,6.6,3.6c6.4,2.3,11.8,4.2,13.3,2.3C273.6,358.1,273.6,357.2,273.3,350.9z"/>
		<path class="st3" d="M264.6,324.7c-0.1-2.4-0.8-4.1-1.4-4.9c-0.9-1.3-4.3-0.9-6.4,0.8c-1.7,1.4-3.1,4-2.2,5.6
			c0.2,0.3,0.5,0.8,3.2,1.7c3.1,1.1,5.7,2,6.4,1.1C264.8,328.2,264.8,327.8,264.6,324.7z"/>
		<path class="st3" d="M191.6,369.9c-0.1-2.4-0.8-4.1-1.4-4.9c-0.9-1.3-4.3-0.9-6.4,0.8c-1.7,1.4-3.1,4-2.2,5.6
			c0.2,0.3,0.5,0.8,3.2,1.7c3.1,1.1,5.7,2,6.4,1.1C191.7,373.3,191.7,372.9,191.6,369.9z"/>
		<path class="st3" d="M178.4,368.9c0.5-2.3,0.3-4.1-0.1-5.1c-0.6-1.5-3.9-2-6.4-1c-2,0.9-4,3-3.6,4.9c0.1,0.3,0.3,0.9,2.6,2.5
			c2.7,1.9,5,3.4,5.9,2.7C177.6,372.3,177.7,371.9,178.4,368.9z"/>
		<path class="st3" d="M287.7,374.3c-3.5-3.5-9.1-4.5-11.3-4.9c-3.2-0.6-7.9,4.7-8.7,10.3c-0.7,4.5,1,10.5,4.7,11.7
			c0.7,0.2,1.9,0.5,7.3-1.9c6.2-2.8,11.5-5.1,11.3-7.5C290.8,379.9,292.3,378.8,287.7,374.3z"/>
		<path class="st3" d="M212.6,415.7c0.5-4.9-2.1-9.9-3.1-11.9c-1.6-2.9-8.6-3.2-13.5-0.4c-3.9,2.3-7.6,7.2-6.3,10.9
			c0.2,0.7,0.8,1.8,6,4.5c6,3.2,11.1,5.9,12.9,4.2C210.1,421.6,211.9,422,212.6,415.7z"/>
		<path class="st3" d="M175.9,376.9c-2.6-4.2-7.8-6.5-9.8-7.4c-3-1.3-10.8,2.1-13,7.3c-1.7,4.2,0.6,11,3.9,13.2
			c0.6,0.4,1.9,2.6,7.6,1.5c6.7-1.2,12.3-3.8,12.6-6.3C177.6,383.1,179.2,382.3,175.9,376.9z"/>
		<path class="st3" d="M243.4,364.3c-2.6-4.2-7.8-6.5-9.8-7.4c-3-1.3-10.8,2.1-13,7.3c-1.7,4.2,0.6,11,3.9,13.2
			c0.6,0.4,1.9,2.6,7.6,1.5c6.7-1.2,12.3-3.8,12.6-6.3C245,370.5,246.7,369.7,243.4,364.3z"/>
		<path class="st3" d="M313.1,364.5c-1.5-3.9-3.5-6.1-4.9-7c-2.2-1.3-2.9,2.5-5.2,7c-1.9,3.6-6.8,8.4-4.5,10.5
			c0.4,0.4,1.2,0.9,5.8,0.3c5.4-0.7,9.9-1.2,10.4-3.3C315.3,370.1,315,369.4,313.1,364.5z"/>
		<path class="st3" d="M259,377.2c-3.5-3.5-7.9-1.9-10.1-2.3c-3.2-0.6-7.9,4.7-8.7,10.3c-0.7,4.5,1,10.5,4.7,11.7
			c0.7,0.2,4.7,2.5,10.1,0.1c6.2-2.8,8.7-7.1,8.4-9.5C263.3,385.4,263.5,381.7,259,377.2z"/>
		<path class="st3" d="M342.7,373.8c-3.5-3.5-7.9-1.9-10.1-2.3c-3.2-0.6-7.9,4.7-8.7,10.3c-0.7,4.5,1,10.5,4.7,11.7
			c0.7,0.2,4.7,2.5,10.1,0.1c6.2-2.8,8.7-7.1,8.4-9.5C347,382.1,347.2,378.3,342.7,373.8z"/>
		<path class="st3" d="M310.8,316.9c-0.8-0.8-1.8-0.4-2.3-0.5c-0.7-0.1-1.8,1.1-2,2.4c-0.2,1,0.2,2.4,1.1,2.7c0.2,0.1,1.1,0.6,2.3,0
			c1.4-0.6,2-1.6,1.9-2.2C311.8,318.8,311.9,317.9,310.8,316.9z"/>
		<path class="st3" d="M275.1,332.8c-0.8-0.8-1.8-0.4-2.3-0.5c-0.7-0.1-1.8,1.1-2,2.4c-0.2,1,0.2,2.4,1.1,2.7c0.2,0.1,1.1,0.6,2.3,0
			c1.4-0.6,2-1.6,1.9-2.2C276.1,334.7,276.2,333.9,275.1,332.8z"/>
		<path class="st3" d="M150,345.1c-0.8-0.8-1.8-0.4-2.3-0.5c-0.7-0.1-1.8,1.1-2,2.4c-0.2,1,0.2,2.4,1.1,2.7c0.2,0.1,1.1,0.6,2.3,0
			c1.4-0.6,2-1.6,1.9-2.2C151,346.9,151,346.1,150,345.1z"/>
		<path class="st3" d="M175.3,392.4c-0.9-0.9-2.1-0.5-2.6-0.6c-0.8-0.1-2,1.2-2.3,2.7c-0.2,1.2,0.3,2.7,1.2,3c0.2,0.1,1.2,0.7,2.6,0
			c1.6-0.7,2.3-1.8,2.2-2.5C176.4,394.5,176.5,393.6,175.3,392.4z"/>
		<path class="st3" d="M202.7,378.3c-0.8-0.8-1.8-0.4-2.3-0.5c-0.7-0.1-1.8,1.1-2,2.4c-0.2,1,0.2,2.4,1.1,2.7c0.2,0.1,1.1,0.6,2.3,0
			c1.4-0.6,2-1.6,1.9-2.2C203.7,380.2,203.8,379.4,202.7,378.3z"/>
		<path class="st3" d="M247.8,356.2c-0.8-0.8-1.8-0.4-2.3-0.5c-0.7-0.1-1.8,1.1-2,2.4c-0.2,1,0.2,2.4,1.1,2.7c0.2,0.1,1.1,0.6,2.3,0
			c1.4-0.6,2-1.6,1.9-2.2C248.8,358.1,248.9,357.2,247.8,356.2z"/>
		<path class="st3" d="M266.4,366.9c-0.8-0.8-1.8-0.4-2.3-0.5c-0.7-0.1-1.8,1.1-2,2.4c-0.2,1,0.2,2.4,1.1,2.7c0.2,0.1,1.1,0.6,2.3,0
			c1.4-0.6,2-1.6,1.9-2.2C267.3,368.8,267.4,368,266.4,366.9z"/>
		<path class="st3" d="M308.9,338.8c-0.8-0.8-1.8-0.4-2.3-0.5c-0.7-0.1-1.8,1.1-2,2.4c-0.2,1,0.2,2.4,1.1,2.7c0.2,0.1,1.1,0.6,2.3,0
			c1.4-0.6,2-1.6,1.9-2.2C309.9,340.7,310,339.8,308.9,338.8z"/>
		<path class="st3" d="M315.1,343.7c-0.8-0.8-1.8-0.4-2.3-0.5c-0.7-0.1-1.8,1.1-2,2.4c-0.2,1,0.2,2.4,1.1,2.7c0.2,0.1,1.1,0.6,2.3,0
			c1.4-0.6,2-1.6,1.9-2.2C316.1,345.6,316.2,344.7,315.1,343.7z"/>
		<path class="st3" d="M330.7,341.9c-0.8-0.8-1.8-0.4-2.3-0.5c-0.7-0.1-1.8,1.1-2,2.4c-0.2,1,0.2,2.4,1.1,2.7c0.2,0.1,1.1,0.6,2.3,0
			c1.4-0.6,2-1.6,1.9-2.2C331.7,343.8,331.8,342.9,330.7,341.9z"/>
		<path class="st3" d="M356.8,373.4c-0.8-0.8-1.8-0.4-2.3-0.5c-0.7-0.1-1.8,1.1-2,2.4c-0.2,1,0.2,2.4,1.1,2.7c0.2,0.1,1.1,0.6,2.3,0
			c1.4-0.6,2-1.6,1.9-2.2C357.8,375.3,357.8,374.5,356.8,373.4z"/>
		<path class="st3" d="M365.4,370.9c-0.8-0.8-1.8-0.4-2.3-0.5c-0.7-0.1-1.8,1.1-2,2.4c-0.2,1,0.2,2.4,1.1,2.7c0.2,0.1,1.1,0.6,2.3,0
			c1.4-0.6,2-1.6,1.9-2.2C366.4,372.8,366.5,372,365.4,370.9z"/>
		<path class="st3" d="M313.5,350.4c-0.8-0.8-1.8-0.4-2.3-0.5c-0.7-0.1-1.8,1.1-2,2.4c-0.2,1,0.2,2.4,1.1,2.7c0.2,0.1,1.1,0.6,2.3,0
			c1.4-0.6,2-1.6,1.9-2.2C314.5,352.3,314.6,351.5,313.5,350.4z"/>
		<path class="st3" d="M365.3,315.3c-0.8-0.8-1.8-0.4-2.3-0.5c-0.7-0.1-1.8,1.1-2,2.4c-0.2,1,0.2,2.4,1.1,2.7c0.2,0.1,1.1,0.6,2.3,0
			c1.4-0.6,2-1.6,1.9-2.2C366.3,317.2,366.4,316.3,365.3,315.3z"/>
		<path class="st3" d="M361,328.6c0,1.1,0.9,1.6,1.2,2.1c0.4,0.6,2,0.6,3.1-0.1c0.9-0.6,1.6-1.8,1.3-2.6c-0.1-0.1-0.3-1.2-1.5-1.7
			c-1.4-0.6-2.6-0.4-2.9,0C361.7,326.6,361,327.1,361,328.6z"/>
		<path class="st3" d="M365.3,336.1c-0.8-0.8-1.8-0.4-2.3-0.5c-0.7-0.1-1.8,1.1-2,2.4c-0.2,1,0.2,2.4,1.1,2.7c0.2,0.1,1.1,0.6,2.3,0
			c1.4-0.6,2-1.6,1.9-2.2C366.3,338,366.4,337.1,365.3,336.1z"/>
		<path class="st3" d="M354.1,333.4c-0.8-0.8-1.8-0.4-2.3-0.5c-0.7-0.1-1.8,1.1-2,2.4c-0.2,1,0.2,2.4,1.1,2.7c0.2,0.1,1.1,0.6,2.3,0
			c1.4-0.6,2-1.6,1.9-2.2C355.1,335.3,355.1,334.4,354.1,333.4z"/>
		<path class="st3" d="M342.4,323.5c-0.8-0.8-1.8-0.4-2.3-0.5c-0.7-0.1-1.8,1.1-2,2.4c-0.2,1,0.2,2.4,1.1,2.7c0.2,0.1,1.1,0.6,2.3,0
			c1.4-0.6,2-1.6,1.9-2.2C343.4,325.4,343.5,324.5,342.4,323.5z"/>
		<path class="st3" d="M161.6,330.3c-0.8-0.8-1.8-0.4-2.3-0.5c-0.7-0.1-1.8,1.1-2,2.4c-0.2,1,0.2,2.4,1.1,2.7c0.2,0.1,1.1,0.6,2.3,0
			c1.4-0.6,2-1.6,1.9-2.2C162.6,332.2,162.6,331.3,161.6,330.3z"/>
		<path class="st3" d="M166.9,347.7c-0.8-0.8-1.8-0.4-2.3-0.5c-0.7-0.1-1.8,1.1-2,2.4c-0.2,1,0.2,2.4,1.1,2.7c0.2,0.1,1.1,0.6,2.3,0
			c1.4-0.6,2-1.6,1.9-2.2C167.9,349.6,168,348.8,166.9,347.7z"/>
		<path class="st3" d="M205.3,321.2c-0.8-0.8-1.8-0.4-2.3-0.5c-0.7-0.1-1.8,1.1-2,2.4c-0.2,1,0.2,2.4,1.1,2.7c0.2,0.1,1.1,0.6,2.3,0
			c1.4-0.6,2-1.6,1.9-2.2C206.3,323.1,206.3,322.3,205.3,321.2z"/>
		<path class="st3" d="M218.4,315.3c-0.8-0.8-1.8-0.4-2.3-0.5c-0.7-0.1-1.8,1.1-2,2.4c-0.2,1,0.2,2.4,1.1,2.7c0.2,0.1,1.1,0.6,2.3,0
			c1.4-0.6,2-1.6,1.9-2.2C219.4,317.2,219.5,316.3,218.4,315.3z"/>
		<path class="st3" d="M159.3,345.1c-0.8-0.8-1.8-0.4-2.3-0.5c-0.7-0.1-1.8,1.1-2,2.4c-0.2,1,0.2,2.4,1.1,2.7c0.2,0.1,1.1,0.6,2.3,0
			c1.4-0.6,2-1.6,1.9-2.2C160.3,346.9,160.4,346.1,159.3,345.1z"/>
		<path class="st3" d="M150,366.9c-0.8-0.8-1.8-0.4-2.3-0.5c-0.7-0.1-1.8,1.1-2,2.4c-0.2,1,0.2,2.4,1.1,2.7c0.2,0.1,1.1,0.6,2.3,0
			c1.4-0.6,2-1.6,1.9-2.2C151,368.8,151,368,150,366.9z"/>
		<path class="st3" d="M221.1,330.3c-0.8-0.8-1.8-0.4-2.3-0.5c-0.7-0.1-1.8,1.1-2,2.4c-0.2,1,0.2,2.4,1.1,2.7c0.2,0.1,1.1,0.6,2.3,0
			c1.4-0.6,2-1.6,1.9-2.2C222.1,332.2,222.2,331.3,221.1,330.3z"/>
		<path class="st3" d="M154.2,356.2c-0.8-0.8-1.8-0.4-2.3-0.5c-0.7-0.1-1.8,1.1-2,2.4c-0.2,1,0.2,2.4,1.1,2.7c0.2,0.1,1.1,0.6,2.3,0
			c1.4-0.6,2-1.6,1.9-2.2C155.2,358.1,155.3,357.2,154.2,356.2z"/>
		<path class="st3" d="M291.3,392.7c-0.8-0.8-1.8-0.4-2.3-0.5c-0.7-0.1-1.8,1.1-2,2.4c-0.2,1,0.2,2.4,1.1,2.7c0.2,0.1,1.1,0.6,2.3,0
			c1.4-0.6,2-1.6,1.9-2.2C292.3,394.6,292.4,393.7,291.3,392.7z"/>
		<path class="st3" d="M151.5,392.7c-0.8-0.8-1.8-0.4-2.3-0.5c-0.7-0.1-1.8,1.1-2,2.4c-0.2,1,0.2,2.4,1.1,2.7c0.2,0.1,1.1,0.6,2.3,0
			c1.4-0.6,2-1.6,1.9-2.2C152.5,394.6,152.6,393.7,151.5,392.7z"/>
		<path class="st3" d="M247.8,330.3c-0.8-0.8-1.8-0.4-2.3-0.5c-0.7-0.1-1.8,1.1-2,2.4c-0.2,1,0.2,2.4,1.1,2.7c0.2,0.1,1.1,0.6,2.3,0
			c1.4-0.6,2-1.6,1.9-2.2C248.8,332.2,248.9,331.3,247.8,330.3z"/>
		<path class="st3" d="M292.7,317.9c-0.8-0.8-1.8-0.4-2.3-0.5c-0.7-0.1-1.8,1.1-2,2.4c-0.2,1,0.2,2.4,1.1,2.7c0.2,0.1,1.1,0.6,2.3,0
			c1.4-0.6,2-1.6,1.9-2.2C293.7,319.8,293.8,319,292.7,317.9z"/>
		<path class="st3" d="M275.1,323.5c-0.8-0.8-1.8-0.4-2.3-0.5c-0.7-0.1-1.8,1.1-2,2.4c-0.2,1,0.2,2.4,1.1,2.7c0.2,0.1,1.1,0.6,2.3,0
			c1.4-0.6,2-1.6,1.9-2.2C276.1,325.4,276.2,324.5,275.1,323.5z"/>
		<path class="st3" d="M319.8,326.2c-0.8-0.8-1.8-0.4-2.3-0.5c-0.7-0.1-1.8,1.1-2,2.4c-0.2,1,0.2,2.4,1.1,2.7c0.2,0.1,1.1,0.6,2.3,0
			c1.4-0.6,2-1.6,1.9-2.2C320.7,328.1,320.8,327.2,319.8,326.2z"/>
		<path class="st3" d="M274.9,402.4c-3.5-3.5-7.9-1.9-10.1-2.3c-3.2-0.6-7.9,4.7-8.7,10.3c-0.7,4.5,1,10.5,4.7,11.7
			c0.7,0.2,4.7,2.5,10.1,0.1c6.2-2.8,8.7-7.1,8.4-9.5C279.1,410.6,279.4,406.9,274.9,402.4z"/>
	</g>
	<path class="st3" d="M348.7,429.6c-4.5-4.2,4.3-2.7,12.3-3c3.5-0.1,6.4,0.1,8.2,0.4c0,31.7,0,63.5,0,95.2H145v-95.2
		c8.5,1.7,14.4,0.5,18.3-1.1c4.9-1.9,7-4.5,13.7-6.3c4.1-1.1,7.3-2,10.9-1.1c6.2,1.6,12.7,6.6,14.1,13c1.3,6.4-3.7,7.5-3.2,16.7
		c0.3,5.3,2,7.5,1.1,13c-0.7,4.2-1.9,3.8-2.5,7.4c-1.3,8.5,4.6,16.7,4.2,16.9c0,0-0.1,0-0.1-0.1c-4.1-3.9-2.1-15.7-2.1-15.7
		c1.2-7.1,2.7-6.4,3.3-12c0.7-6.6-1.5-8-0.7-14.2c0.3-2.2,0.9-7.3,4.4-11.4c5.5-6.5,15.7-7.5,22.7-6c8.6,1.8,10.5,7.4,18.6,7.7
		c7.8,0.3,10.8-5.7,15.9-3.6c3.9,1.6,6.7,6.7,6.3,10.8c-0.3,3.6-2.8,4.2-3.3,8.3c-0.5,4.3,2.2,4.2,2.5,9.5
		c0.2,4.5-1.5,10.7-1.7,14.3c0,0.3-0.1,1.1,0,1.1c0.1,0,0.3-1.4,0.4-1.7c0.8-4.5,3.9-9.9,4.2-15.6c0.3-4.9-1.8-4.3-1.2-8.3
		c0.9-6,5.7-7.7,5.2-12.2c-0.4-3.1-2.8-3.6-2.5-6.1c0.4-2.9,4.3-5.5,8-6c5.7-0.7,7.4,4.9,12.7,3.5c3.7-1,5.7-4.1,9.5-3.5
		c2.1,0.3,2.8,1.4,4.6,2.5c3,1.7,6.7,0.3,6.9,0.8c0,0,0,0.1,0,0.1c0,0.8,1.1,7.2,6.3,11.8c2.2,1.9,2.6,1.4,5.5,3.3
		c6.2,4.3,6,8.4,10.7,12.5c6.1,5.3,14.1,5.2,14.2,4.9c0.1-0.3-11.6-5.5-11.6-5.5c-0.3-0.2-0.7-0.6-1.1-1.1c0-1.5,0.3-3.6,1.4-5.9
		c1.1-2.2,2.4-3.4,3.2-4.2c1.3-2-1.3-1.6-0.9-2.5c1.5-3.5,6.3-10.7,5.8-10.9"/>
	<path class="st3" d="M346.6,430.1c-5.6,7.6-6.6,10.5-5.8,11.3c0.4,0.4,1.7,0.8,1.7,1.5c0,0.1-0.1,0.3-0.3,0.5
		c-3.8,3.1-3.9,8.7-5,9.6c-0.8,0.6-1.3,0-1.3,0c0,0-0.4-1.4-2.9-4.6c-1.9-2.3-2.4-3.7-4.6-5.6c-4.9-4.3-8.1-2.5-9.5-5.9
		c-0.8-2-0.6-4.5-2-7.9c-0.1-0.2-0.2-0.5-0.1-0.8c0.5-2,7.4-1.9,10-2c6.7-0.3,9.7,5.9,13.2,4.4c0.7-0.3,1.7-1,3.3-1.1
		C344.6,429.3,345.8,429.7,346.6,430.1z"/>
	<path class="st4" d="M369.1,211.3c-22.7-0.9-40.9-0.5-52.8,0c-40.7,1.7-43.6,5.8-70.7,4.3c-21.4-1.2-28.4-4.3-48.2-2.7
		c-6.5,0.5-14.8,1.6-27.1,1.2c-10.7-0.3-19.5-1.6-25.4-2.7c0-25.6,0-51.2,0-76.8h224.2V211.3z"/>
	<rect x="144.9" y="131.5" class="st5" width="224.2" height="6.1"/>
	<path class="st6" d="M321.8,182c2-0.4,3.2,0,4.1,0.6c2.8,1.9,1.3,5.8,5.6,9.5c1.6,1.3,4,2.7,5.3,2.8c1.4,0.1,1-1.3,2.7-1
		c0.9,0.2,3.6,1.9,4.3,2.3"/>
	<path class="st7" d="M247.8,159.6c0-1.3,0.4-2,0.8-2.3c1.5-1.1,3.7,0.9,6.4-0.7c1-0.6,2.1-1.7,2.3-2.5c0.2-0.8-0.7-1-0.3-1.9
		c0.2-0.5,1.6-1.7,1.9-2"/>
	<g>
		<path class="st2" d="M183.5,129.1c-0.1,0.8-0.2,1.7-0.3,2.4c-0.1,0.8-0.1,1.6-0.1,2.4c0,1.6,0.1,3.2,0.3,4.9
			c0.4,3.2,1.3,6.4,2.3,9.6l1.5,4.8c0.5,1.6,0.9,3.3,1.2,5c0.1,0.9,0.1,1.8,0,2.7c-0.1,0.9-0.3,1.7-0.3,2.5
			c-0.1,1.6-0.1,3.2,0.2,4.8c0.1,0.8,0.3,1.6,0.5,2.4c0.2,0.8,0.4,1.7,0.5,2.6c0.1,0.9-0.2,2-0.7,2.8c-0.4,0.7-0.8,1.5-1.3,2.2
			c-1.8,2.9-3.6,5.6-5.4,8.5c-0.9,1.4-1.7,2.8-2.4,4.3c-0.7,1.5-1.4,3-1.4,4.5c0.1,1.5,0.5,3.2,1,4.7c0.5,1.5,1.2,3.1,2,4.5l0,0.1
			l0,0.1c0.2,0.7,0.5,1.4,1,1.8c0.6,0.4,1.3,0.6,2.1,0.8c0.8,0.2,1.6,0.4,2.4,0.7c0.8,0.3,1.6,0.7,2.3,1.2c0.3,0.3,0.7,0.5,1,0.8
			c0.2,0.1,0.3,0.3,0.4,0.5c0,0,0.1,0.1,0.1,0.1c0,0,0.1,0.1,0.1,0.2c0.1,0.2,0.1,0.3,0.1,0.4c0,0.6-0.2,1-0.5,1.4
			c-0.3,0.4-0.6,0.7-0.9,1c-1.3,1.1-2.7,2-4.2,2.8c-1.5,0.8-3,1.5-4.6,2c-0.8,0.2-1.6,0.4-2.5,0.4c-0.4,0-0.9-0.1-1.3-0.5
			c-0.1-0.1-0.2-0.2-0.2-0.3c0,0-0.1-0.1-0.2-0.1c-0.1-0.1-0.3-0.2-0.5-0.2c-0.8-0.2-1.6-0.3-2.4-0.4c-0.8-0.1-1.6-0.1-2.5-0.1
			c-0.8,0-1.7-0.1-2.5-0.2c-0.4-0.1-0.8-0.1-1.2-0.4c-0.2-0.2,0-0.4,0.2-0.6c0.2-0.1,0.3-0.2,0.5-0.4c-0.2,0.1-0.3,0.2-0.5,0.4
			c-0.1,0.1-0.3,0.3-0.2,0.5c0.3,0.2,0.8,0.3,1.2,0.3c0.8,0.1,1.6,0.1,2.5,0.1c0.8,0,1.7,0,2.5,0c0.8,0,1.7,0.1,2.5,0.3
			c0.2,0.1,0.4,0.1,0.6,0.2c0.1,0.1,0.2,0.1,0.3,0.3c0.1,0.1,0.1,0.2,0.2,0.2c0.2,0.2,0.6,0.3,1,0.3c0.8,0,1.6-0.2,2.4-0.4
			c1.6-0.5,3.1-1.2,4.5-2c1.4-0.8,2.8-1.7,4-2.8c0.3-0.3,0.6-0.6,0.8-0.9c0.2-0.3,0.4-0.7,0.4-0.9c0-0.2-0.4-0.5-0.6-0.8
			c-0.3-0.3-0.6-0.5-0.9-0.7c-0.7-0.5-1.4-0.8-2.1-1.1c-0.8-0.3-1.5-0.4-2.4-0.6c-0.8-0.2-1.7-0.3-2.5-0.9c-0.8-0.5-1.3-1.5-1.5-2.3
			l0.1,0.2c-0.9-1.5-1.6-3-2.2-4.6c-0.6-1.6-1-3.3-1.2-5c0-1.9,0.7-3.5,1.4-5.1c0.7-1.5,1.6-3,2.5-4.4c1.7-2.9,3.6-5.6,5.3-8.5
			c0.4-0.7,0.8-1.4,1.2-2.2c0.4-0.7,0.5-1.3,0.5-2c-0.1-1.4-0.8-3.1-1.1-4.8c-0.3-1.7-0.4-3.5-0.3-5.2c0-0.9,0.2-1.8,0.3-2.5
			c0.1-0.7,0-1.5-0.1-2.3c-0.2-1.6-0.7-3.1-1.2-4.7l-1.6-4.7c-1.1-3.2-2-6.5-2.5-9.9c-0.3-1.7-0.4-3.4-0.4-5.1c0-0.9,0-1.7,0.1-2.6
			c0.1-0.9,0.1-1.7,0.2-2.6L183.5,129.1z"/>
	</g>
	<g>
		<path class="st2" d="M182.3,134.6c0,0-0.1,1.5-0.3,4.2c-0.2,2.7-0.5,6.5-0.2,11c0.1,2.2,0.4,4.7,1.1,7.1c0.6,2.5,1.7,4.9,3.3,7.2
			c1.6,2.3,3.6,4.3,6,6.1c1.2,1,2.4,2,3.4,3.1c1,1.2,2.1,2.4,2.5,4.2c0.1,0.4,0,1,0,1.3l-0.2,1.1c-0.1,0.8-0.2,1.5-0.2,2.3
			c-0.1,1.5-0.2,3,0,4.4c0.2,1.4,0.7,2.8,1.9,3.4c1.2,0.7,2.7,1,4,1.8c1.3,0.7,2.4,1.7,3.2,2.9c0.9,1.1,1.5,2.3,2.1,3.5
			c0.5,1.2,0.9,2.4,1.7,3.3c0.8,0.9,1.8,1.5,2.9,1.9c2.1,0.8,4.3,0.8,6.1,1.2c0.9,0.2,1.8,0.4,2.5,0.7c0.7,0.3,1.4,0.8,1.7,1.4
			c0.8,1.1,0.8,2.3,0.8,3c0,0.7-0.1,1.1-0.1,1.1s0-0.4,0-1.1c0-0.7-0.1-1.8-0.9-2.9c-0.4-0.5-1-1-1.7-1.3c-0.7-0.3-1.6-0.5-2.5-0.6
			c-1.8-0.3-4-0.3-6.2-1c-1.1-0.4-2.2-1-3.1-1.9c-0.4-0.5-0.8-1-1.1-1.6c-0.3-0.6-0.5-1.2-0.8-1.8c-1.1-2.3-2.7-4.7-5.1-6
			c-1.2-0.7-2.6-1-4-1.7c-0.7-0.4-1.3-1-1.7-1.7c-0.4-0.7-0.6-1.5-0.7-2.3c-0.2-1.6-0.2-3.1-0.1-4.6c0-0.8,0.1-1.5,0.2-2.3l0.1-1.1
			c0.1-0.4,0.1-0.6,0-1c-0.3-1.3-1.2-2.5-2.3-3.5c-1-1-2.2-2-3.4-2.9c-2.5-1.8-4.7-3.9-6.5-6.3c-1.7-2.4-2.9-5.1-3.7-7.7
			c-0.8-2.6-1.1-5.2-1.3-7.5c-0.3-4.7-0.1-8.5,0-11.2c0.1-2.7,0.2-4.2,0.2-4.2L182.3,134.6z"/>
	</g>
	<g>
		<path class="st2" d="M187.7,155c0,0,0.3,0.2,0.8,0.5c0.5,0.3,1.3,0.8,2.2,1.5c1.9,1.3,4.6,3.3,7.3,6.3c1.3,1.5,2.7,3.2,3.8,5.3
			c1.1,2,2,4.3,2.5,6.8c0.5,2.5,0.5,5.1,0.2,7.7c0,0.6-0.1,1.3-0.1,1.9c0,0.6,0.1,1.2,0.3,1.4c0.8,0.7,2,1.2,3.2,1.4
			c2.5,0.5,5.1,0.2,7.7,0.4c0.7,0.1,1.3,0.2,2,0.4c0.6,0.2,1.3,0.6,1.7,1.2c0.8,1.2,0.7,2.6,0.5,3.9c-0.2,1.2-0.5,2.4-0.9,3.5
			c-0.2,0.6-0.4,1.1-0.4,1.6c0,0.5,0.1,1.1,0.3,1.5c0.6,0.9,1.7,1.2,2.7,1.4c1,0.2,2,0.4,3,0.5c1.9,0.2,3.7,0.4,5.3,0.8
			c1.5,0.4,2.8,1.2,3.5,2.1c0.7,1,0.7,1.9,0.8,2.5c0,0.6,0,0.9,0,0.9s0-0.3,0-0.9c0-0.6-0.1-1.5-0.8-2.5c-0.7-0.9-1.9-1.6-3.5-2
			c-1.5-0.4-3.3-0.5-5.3-0.7c-1-0.1-2-0.2-3-0.4c-1-0.2-2.2-0.5-3-1.6c-0.7-1.1-0.4-2.5-0.1-3.5c0.3-1.1,0.6-2.3,0.8-3.5
			c0.1-1.2,0.1-2.4-0.5-3.3c-0.6-0.9-1.9-1.2-3.1-1.2c-2.5-0.1-5.1,0.3-7.8-0.2c-1.3-0.2-2.7-0.7-3.8-1.6c-0.4-0.3-0.5-0.8-0.6-1.2
			c-0.1-0.4-0.1-0.7-0.1-1.1c0-0.7,0-1.3,0-2c0.1-2.6,0.1-5-0.4-7.3c-0.5-2.3-1.4-4.4-2.5-6.3c-1.1-1.9-2.4-3.4-3.7-4.8
			c-2.6-2.7-5.3-4.6-7.1-5.8c-0.9-0.6-1.7-1.1-2.2-1.4c-0.5-0.3-0.8-0.5-0.8-0.5L187.7,155z"/>
	</g>
	<g>
		<path class="st2" d="M184.7,144c0,0,0.5,0.6,1.5,1.6c1,1,2.3,2.4,4,4.1c0.9,0.8,1.8,1.7,2.8,2.6c0.5,0.5,1,0.9,1.6,1.4
			c0.5,0.5,1.1,0.9,1.7,1.4c1.2,0.9,2.4,1.8,3.8,2.4c1.4,0.6,3,0.9,4.5,1.4c1.5,0.5,3,1,4.4,1.8c1.4,0.8,2.5,1.8,3.4,3.1
			c0.9,1.2,1.5,2.6,1.9,3.8c0.5,1.3,0.9,2.5,1.6,3.5c0.7,1,1.5,1.7,2.4,2c0.9,0.4,1.7,0.6,2.4,0.7c0.7,0.1,1.2,0.1,1.6,0.1
			c0.4,0,0.6,0,0.6,0s-0.2,0-0.6,0c-0.4,0-0.9,0-1.6-0.1c-0.7-0.1-1.5-0.2-2.4-0.6c-0.9-0.4-1.8-1.1-2.5-2c-0.7-1-1.2-2.2-1.7-3.5
			c-0.5-1.3-1.1-2.6-2-3.7c-0.9-1.2-2-2.2-3.4-2.9c-1.3-0.8-2.8-1.3-4.3-1.7c-1.5-0.4-3.1-0.7-4.6-1.3c-1.5-0.6-2.8-1.5-4-2.4
			c-0.6-0.4-1.2-0.9-1.7-1.4c-0.6-0.5-1.1-0.9-1.6-1.4c-1-0.9-2-1.8-2.8-2.6c-1.7-1.6-3.1-3-4.1-4c-1-1-1.5-1.5-1.5-1.5L184.7,144z"
			/>
	</g>
	<g>
		<path class="st2" d="M176.7,157.4c0,0-0.3,0.9-0.8,2.5c-0.5,1.6-1,3.9-1.6,6.7c-0.5,2.8-1,6.1-1.3,9.7c-0.2,1.8-0.3,3.6-0.4,5.5
			c-0.1,1.9-0.2,3.8-0.4,5.7c-0.1,1-0.2,1.9-0.4,2.9c-0.1,0.5-0.3,1-0.5,1.4c-0.1,0.2-0.3,0.4-0.5,0.6c-0.2,0.1-0.4,0.3-0.6,0.4
			c-1.7,1-3.6,1.3-5.4,1.5c-1.8,0.2-3.5,0.2-5.2,0.3c-1.6,0.1-3.2,0.4-4.4,1c-0.6,0.3-1.1,0.8-1.5,1.3c-0.3,0.5-0.5,1.1-0.6,1.7
			c-0.2,1.1,0,2.2,0.1,3c0.2,0.8,0.3,1.5,0.5,1.9c0.1,0.4,0.2,0.7,0.2,0.7s-0.1-0.2-0.2-0.7c-0.1-0.4-0.3-1.1-0.5-1.9
			c-0.2-0.8-0.3-1.8-0.2-3c0.1-0.6,0.2-1.2,0.6-1.8c0.3-0.6,0.9-1.1,1.5-1.4c1.3-0.7,2.9-1,4.5-1.2c1.6-0.2,3.4-0.2,5.1-0.4
			c1.8-0.2,3.6-0.6,5.1-1.5c0.2-0.1,0.4-0.2,0.6-0.4c0.2-0.1,0.3-0.3,0.4-0.5c0.2-0.4,0.3-0.8,0.4-1.3c0.2-0.9,0.3-1.8,0.3-2.8
			c0.1-1.9,0.2-3.8,0.2-5.7c0.1-1.9,0.1-3.7,0.3-5.5c0.2-3.6,0.6-6.9,1.1-9.8c0.5-2.9,1-5.2,1.4-6.8c0.4-1.6,0.7-2.6,0.7-2.6
			L176.7,157.4z"/>
	</g>
	<g>
		<path class="st2" d="M203.1,176.7c0,0,0.1,0.2,0.4,0.5c0.3,0.3,0.6,0.8,1.1,1.4c0.9,1.2,2.1,3,3.3,5.2c1.3,2.2,2.6,4.9,4.2,7.6
			c0.4,0.7,0.8,1.3,1.3,1.9c0.5,0.6,1.1,1.2,1.7,1.3c1.6,0.3,3.3,0.5,5,0.7c3.4,0.4,6.8,0.8,9.8,1.9c1.5,0.5,2.9,1.2,4.1,2.1
			c1.2,0.8,2.2,1.8,3,2.8c1.6,2,2.3,4.1,2.7,5.5c0.2,0.7,0.3,1.3,0.4,1.7c0.1,0.4,0.1,0.6,0.1,0.6s0-0.2-0.1-0.6
			c-0.1-0.4-0.2-1-0.4-1.7c-0.4-1.4-1.2-3.4-2.9-5.4c-0.8-1-1.8-1.9-3.1-2.7c-1.2-0.8-2.6-1.4-4.1-1.9c-3-1-6.4-1.4-9.7-1.6
			c-1.7-0.2-3.4-0.3-5.1-0.6c-1-0.3-1.7-1-2.2-1.6c-0.6-0.6-1-1.3-1.5-2c-1.7-2.7-3.1-5.3-4.4-7.5c-1.3-2.2-2.5-3.9-3.4-5
			c-0.5-0.6-0.8-1-1.1-1.3c-0.3-0.3-0.4-0.5-0.4-0.5L203.1,176.7z"/>
	</g>
	<g>
		<path class="st2" d="M183.2,130.2c0,0,0,0-0.1,0.1c0,0.1-0.1,0.1-0.1,0.2c-0.1,0.2-0.3,0.7-0.5,1.4c-0.3,1.5-0.8,3.7-1.3,6.6
			c-0.5,2.8-1.2,6.3-1.8,10.3c-0.6,4-1.3,8.5-1.1,13.3c0.1,2.4,0.4,4.9,1.1,7.5c0.1,0.6,0.3,1.3,0.5,1.9c0.2,0.6,0.4,1.3,0.6,1.9
			l0.3,1l0.1,0.2c0,0,0,0.1,0,0.1l0.1,0.1c0.1,0.2,0.1,0.3,0.2,0.5c0.3,0.5,0.6,1.1,1,1.5c0.9,1,2,1.7,3.3,2.4
			c1.2,0.7,2.7,1.4,3.8,2.7c0.6,0.7,1,1.6,1.1,2.4c0.1,0.3,0.1,0.8,0.1,1.3c0,0.4-0.1,0.8-0.1,1.3c-0.3,1.6-1,3.1-1.6,4.5
			c-0.3,0.7-0.5,1.3-0.5,1.9c0,0.4,0.1,0.7,0.1,1.1c0.1,0.3,0.2,0.7,0.3,1c0.5,1.3,1.5,2.4,2.8,3.2c1.3,0.8,2.8,1.4,4.3,2
			c0.7,0.3,1.5,0.7,2.3,1.1c0.7,0.4,1.5,1,2.1,1.7c2,2.6,4.1,5.1,6.3,7.5c2.2,2.4,4.7,4.6,7.4,6.4c2.7,1.8,5.8,3,8.9,4
			c0.1,0,0.2,0,0.5,0.3c0.1,0.1,0.2,0.3,0.1,0.6c-0.1,0.2-0.2,0.2-0.2,0.3c-0.1,0.1-0.2,0.1-0.3,0.1c-0.3,0.1-0.5,0.1-0.7,0.2
			c-0.4,0.1-0.8,0.1-1.3,0.2c-0.8,0.1-1.7,0.2-2.5,0.2c-1.6,0.1-3.3,0.2-4.9,0.4c-6.5,0.4-12.9,0.8-19.1,1.3
			c-3.1,0.2-6.1,0.5-9.1,0.8c-3,0.3-5.9,0.7-8.6,1.4c-0.7,0.2-1.4,0.4-2,0.6c-0.3,0.1-0.6,0.3-0.9,0.5c-0.3,0.2-0.4,0.4-0.4,0.6
			c0.2,0.5,0.9,0.8,1.5,1c0.6,0.3,1.3,0.5,1.9,0.6c2.6,0.7,5.1,1.2,7.5,1.7c2.4,0.4,4.8,0.8,7,1c0.6,0.1,1.1,0.1,1.7,0.1
			c0.1,0,0.3,0,0.4,0c0,0,0.1,0,0.1,0c0,0,0.1,0,0.1,0.2c0,0.1-0.1,0.1-0.1,0.1c-0.1,0.1-0.1,0.1-0.2,0.1c-0.3,0.1-0.5,0.1-0.8,0.2
			c-1.1,0.2-2.1,0.4-3.1,0.5c-4,0.6-7.5,1-10.4,1.4c-2.9,0.3-5.1,0.6-6.7,0.8c-0.8,0.1-1.4,0.2-1.7,0.2c0.4,0,0.6-0.1,0.6-0.1
			s-0.2,0-0.6,0.1c0.4-0.1,1-0.1,1.7-0.2c1.5-0.2,3.8-0.5,6.7-0.9c2.9-0.4,6.4-0.9,10.4-1.5c1-0.2,2-0.3,3.1-0.5
			c0.3-0.1,0.5-0.1,0.8-0.2c0.1,0,0.1,0,0.2-0.1c0,0,0,0,0,0c0,0.1,0,0.1,0,0.1c0,0,0,0-0.1,0c-0.1,0-0.3,0-0.4,0
			c-0.5,0-1.1,0-1.7-0.1c-2.3-0.2-4.6-0.6-7.1-1c-2.5-0.4-5-0.9-7.6-1.6c-0.6-0.2-1.3-0.4-1.9-0.6c-0.3-0.1-0.6-0.3-1-0.5
			c-0.3-0.2-0.7-0.4-0.8-0.9c-0.1-0.2,0-0.5,0.1-0.7c0.1-0.2,0.3-0.3,0.4-0.4c0.3-0.2,0.6-0.4,1-0.5c0.7-0.3,1.4-0.5,2.1-0.7
			c2.8-0.7,5.7-1.1,8.7-1.5c3-0.4,6-0.7,9.1-0.9c6.2-0.5,12.6-1,19.1-1.5c1.6-0.1,3.3-0.3,4.9-0.4c0.8-0.1,1.6-0.2,2.4-0.3
			c0.4-0.1,0.8-0.1,1.2-0.2c0.2,0,0.4-0.1,0.5-0.1c0,0,0.1,0,0,0c0,0-0.1,0-0.1,0.2c-0.1,0.2,0,0.4,0.1,0.4c0.1,0.1,0.1,0-0.1,0
			c-3.1-1-6.3-2.2-9.2-4c-2.9-1.8-5.4-4.1-7.7-6.5c-2.3-2.4-4.4-5-6.5-7.5c-0.9-1.1-2.4-1.7-3.8-2.3c-1.5-0.6-3-1.2-4.5-2.1
			c-1.4-0.9-2.8-2.2-3.4-3.8c-0.2-0.4-0.3-0.8-0.4-1.3c-0.1-0.4-0.1-0.9-0.2-1.3c0-0.2,0-0.5,0-0.7c0-0.2,0.1-0.5,0.1-0.7
			c0.1-0.4,0.3-0.8,0.4-1.2c0.6-1.5,1.2-2.8,1.5-4.2c0.1-0.3,0.1-0.7,0.1-1c0-0.3,0-0.6-0.1-1c-0.1-0.6-0.3-1.2-0.7-1.6
			c-0.8-0.9-2.1-1.6-3.4-2.3c-1.3-0.7-2.6-1.5-3.7-2.7c-0.5-0.6-1-1.2-1.3-2c-0.1-0.2-0.2-0.3-0.2-0.5l-0.1-0.1l-0.1-0.2l-0.1-0.2
			l-0.4-1c-0.3-0.7-0.5-1.3-0.7-2c-0.2-0.7-0.4-1.3-0.6-2c-0.7-2.7-1.1-5.3-1.2-7.8c-0.1-2.5,0-5,0.2-7.3c0.2-2.3,0.5-4.4,0.8-6.4
			c0.6-4,1.2-7.5,1.7-10.4c0.5-2.9,0.9-5.1,1.2-6.7c0.2-0.8,0.3-1.5,0.6-1.9c0.1-0.2,0.3-0.5,0.3-0.6c0.1-0.1,0.1-0.1,0.1-0.1
			L183.2,130.2z"/>
	</g>
	<g>
		<path class="st2" d="M183.2,129.4c-0.4,1.1-0.9,2.2-1.3,3.3c-0.2,0.6-0.4,1.2-0.5,1.8c-0.1,0.3-0.2,0.6-0.2,0.9
			c-0.1,0.3-0.2,0.6-0.2,1c-0.3,1.3-0.7,2.6-1,3.9c-1.3,5.2-2.6,10.9-3.5,16.6c-0.4,2.8-0.8,5.7-0.9,8.5c0,0.7-0.1,1.4-0.1,2.1
			c0,0.3,0,0.7,0,1c0,0.4,0,0.7,0,1c0,1.4,0.1,2.8,0.2,4.1c0.2,2.7,0.5,5.3,0.7,7.8c0.2,2.5,0.4,4.8,0.3,7c-0.1,2.2-0.5,4.2-1.3,5.8
			c-0.5,0.8-1.7,2.2-1.7,3.3c0,0.6,0.2,0.9,0.1,1.2c-0.1-0.3-0.2-1-0.2-1.4c0.1-0.6,0.2-0.7,0.3-1.1c0.3-0.7,0.9-1.4,1.3-2.1
			c0.4-0.8,0.6-1.7,0.8-2.6c0.2-1,0.3-2,0.3-3.1c0-2.2-0.2-4.5-0.5-7c-0.3-2.5-0.6-5.1-0.9-7.8c-0.1-1.4-0.2-2.7-0.3-4.1
			c0-0.3,0-0.7,0-1.1c0-0.4,0-0.7,0-1.1c0-0.7,0-1.4,0-2.1c0.1-2.9,0.4-5.8,0.7-8.6c0.8-5.8,1.9-11.5,3.1-16.8
			c0.3-1.3,0.6-2.6,0.9-3.9c0.1-0.3,0.1-0.6,0.2-0.9c0.1-0.3,0.1-0.7,0.2-1c0.2-0.6,0.3-1.3,0.5-1.9c0.4-1.2,0.8-2.4,1.2-3.5"/>
		<path class="st2" d="M183.4,129.5c-0.5,1.4-1.1,2.8-1.5,4.1c-0.5,1.4-0.8,2.8-1.2,4.3c-0.8,2.9-1.5,5.7-2.1,8.6
			c-1.3,5.8-2.4,11.6-2.9,17.4c-0.1,1.5-0.2,2.9-0.2,4.4c0,1.5,0.1,2.9,0.1,4.4c0,1.5,0.2,2.9,0.3,4.4l0.4,4.4
			c0.2,2.9,0.5,5.9,0.1,8.9c-0.2,1.5-0.6,2.9-1.4,4.2c-0.4,0.6-0.9,1.2-1.2,1.9c-0.1,0.3-0.3,0.7-0.3,1c0,0.4,0.2,0.7,0.1,1.1
			l-0.1,0.4l-0.1-0.4c-0.2-0.7-0.3-1.5,0-2.3c0.3-0.7,0.8-1.3,1.2-1.9c0.8-1.2,1.1-2.7,1.3-4.2c0.3-3,0-5.9-0.3-8.9l-0.5-4.4
			c-0.1-1.5-0.4-2.9-0.4-4.4c-0.1-1.5-0.2-3-0.2-4.5c0-1.5,0-3,0.1-4.5c0.4-5.9,1.3-11.8,2.5-17.7c0.6-2.9,1.2-5.8,1.9-8.7
			c0.4-1.4,0.6-2.9,1.1-4.3c0.4-1.4,1-2.8,1.4-4.2c-0.5,1.4-1,2.8-1.4,4.2c-0.4,1.4-0.7,2.9-1.1,4.3c-0.7,2.9-1.3,5.8-1.9,8.7
			c-1.1,5.8-2.1,11.7-2.4,17.7c-0.1,1.5-0.1,3-0.1,4.5c0,1.5,0.1,3,0.2,4.5c0.1,1.5,0.3,3,0.5,4.4l0.5,4.4c0.3,2.9,0.7,5.9,0.4,8.9
			c-0.2,1.5-0.5,3-1.3,4.3c-0.4,0.6-0.8,1.2-1.1,1.9c-0.3,0.6-0.2,1.4,0,2.1l-0.2,0c0.1-0.3-0.1-0.7-0.1-1.1c0-0.4,0.1-0.8,0.3-1.1
			c0.3-0.7,0.8-1.3,1.2-1.9c0.8-1.2,1.1-2.7,1.3-4.1c0.4-2.9,0.2-5.9-0.1-8.8l-0.4-4.4c-0.1-1.5-0.3-2.9-0.4-4.4
			c0-1.5-0.2-3-0.1-4.4c0-1.5,0.1-3,0.2-4.4c0.5-5.9,1.6-11.7,2.8-17.5c0.6-2.9,1.3-5.8,2.1-8.6c0.4-1.4,0.7-2.9,1.1-4.3
			c0.4-1.4,1-2.8,1.5-4.2L183.4,129.5z"/>
	</g>
	<g>
		<path class="st8" d="M180.9,133.8c0,0,12.6-29.7,2-47.9c-7.7-13.2-23.7-20.7-23.7-20.7s-8.8,29.2,5.1,42.2
			C174.2,116.8,180.9,133.8,180.9,133.8z"/>
		<g>
			<path class="st9" d="M179,120.6c0,0-0.1-0.7-0.3-1.9c-0.2-1.2-0.4-3-0.8-5.1c-0.4-2.1-0.9-4.5-1.5-7.1c-0.7-2.6-1.5-5.3-2.4-7.9
				c-0.9-2.7-1.9-5.3-2.9-7.8c-1-2.4-2.2-4.6-3.3-6.5c-1.1-1.8-2.1-3.3-2.9-4.2c-0.8-1-1.2-1.5-1.2-1.5s0.5,0.5,1.3,1.5
				c0.8,1,1.8,2.4,3,4.2c1.1,1.8,2.3,4,3.4,6.4c1.1,2.4,2.1,5.1,3.1,7.7c1,2.7,1.9,5.4,2.6,7.9c0.7,2.6,1.3,5,1.7,7.1
				c0.4,2.1,0.7,3.8,0.9,5.1c0.2,1.2,0.3,1.9,0.3,1.9L179,120.6z"/>
		</g>
		<path class="st10" d="M181.4,136.8c0,0-9.1-27.8,2.4-45.4c14.7-22.4,34.4-26.6,34.4-26.6s-1.9,36.7-15.9,48.1
			C192.3,121.2,181.4,136.8,181.4,136.8z"/>
		<g>
			<path class="st8" d="M181.5,133.7c0,0,0-0.2,0.1-0.6c0.1-0.4,0.2-1,0.3-1.8c0.2-1.6,0.5-3.8,0.8-6.5c0.2-1.4,0.4-2.8,0.6-4.4
				c0.2-1.5,0.5-3.2,0.9-4.9c0.3-1.7,0.8-3.4,1.3-5.1c0.3-0.9,0.5-1.7,0.8-2.6c0.3-0.9,0.6-1.7,0.9-2.6c0.3-0.8,0.7-1.7,1-2.5
				c0.4-0.8,0.8-1.6,1.2-2.4c0.4-0.8,0.9-1.6,1.3-2.3c0.4-0.8,1-1.5,1.4-2.2c1-1.4,2-2.7,2.9-4c1-1.2,1.9-2.4,2.7-3.5
				c1.7-2.1,3.2-3.8,4.3-5c1.1-1.2,1.7-1.9,1.7-1.9s-0.6,0.7-1.6,1.9c-1,1.2-2.5,2.9-4.2,5.1c-0.8,1.1-1.7,2.2-2.7,3.5
				c-0.9,1.3-1.9,2.6-2.9,4c-0.4,0.7-1,1.4-1.4,2.2c-0.4,0.8-0.9,1.5-1.3,2.3c-0.4,0.8-0.7,1.6-1.1,2.4c-0.3,0.8-0.7,1.7-1,2.5
				c-0.3,0.9-0.6,1.7-0.9,2.6c-0.3,0.9-0.5,1.7-0.7,2.6c-0.4,1.7-0.8,3.4-1.2,5.1c-0.3,1.7-0.6,3.3-0.8,4.8c-0.2,1.5-0.4,3-0.6,4.4
				c-0.3,2.7-0.6,5-0.7,6.6c-0.1,0.8-0.2,1.4-0.2,1.8c-0.1,0.4-0.1,0.6-0.1,0.6L181.5,133.7z"/>
		</g>
	</g>
	<rect x="0" y="0" class="st17" width="832" height="552"/>
</g>
<g id="Layer_2">
</g>
</svg>
