<?xml version="1.0" encoding="utf-8"?>
<!-- Generator: Adobe Illustrator 19.1.1, SVG Export Plug-In . SVG Version: 6.00 Build 0)  -->
<svg version="1.1" xmlns="http://www.w3.org/2000/svg" xmlns:xlink="http://www.w3.org/1999/xlink" x="0px" y="0px"
	 viewBox="0 1417.2 800.1 502.9" style="enable-background:new 0 1417.2 800.1 502.9;" xml:space="preserve">
<style type="text/css">
	.st0{fill:#E6E7E8;}
	.st1{fill:#F1F2F2;}
	.st2{fill:#D1D3D4;}
	.st3{fill:#BCBEC0;}
	.st4{fill:#736357;}
	.st5{fill:#C7B299;}
	.st6{fill:#009245;}
	.st7{fill:none;stroke:#0071BC;stroke-miterlimit:10;}
	.st8{fill:none;stroke:#FFA500;stroke-width:3;}
	.st9{fill:#0071BC;stroke:#FFA500;stroke-width:3;}
	.st10{fill:#FFFFFF;stroke:#800080;stroke-width:3;}
	.st11{fill:#00FF00;stroke:#32CD32;stroke-width:3;}
	.st12{fill:#FFFFFF;stroke:#FFA500;stroke-width:3;}
	.st13{fill:#FBB03B;stroke:#40E0D0;stroke-width:3;}
	.st14{fill:#FFFFFF;stroke:#32CD32;stroke-width:3;}
	.st15{fill:#FFFFFF;stroke:#662D91;stroke-width:3;}
	.st16{fill:none;stroke:#00FF00;stroke-width:2;}
	.st17{fill:#6D6E71;}
	.st18{fill:#FFFFFF;stroke:#40E0D0;stroke-width:3;}
	.st19{fill:#00FF00;stroke:#000000;}
	.st20{fill:none;stroke:#000000;}
	.st21{fill:#39B54A;}
	.st22{fill:#F7931E;}
	.st23{fill:#29ABE2;}
	.st24{fill:none;stroke:#39B54A;}
	.st25{fill:none;stroke:#29ABE2;}
	.st26{fill:none;stroke:#BCBEC0;}
	.st27{fill:none;stroke:#BCBEC0;stroke-dasharray:0.9934,0.9934;}
	.st28{fill:none;stroke:#BCBEC0;stroke-dasharray:0.9984,0.9984;}
	.st29{fill:none;stroke:#BCBEC0;stroke-dasharray:0.995,0.995;}
	.st30{fill:none;stroke:#BCBEC0;stroke-dasharray:0.9953,0.9953;}
	.st31{fill:none;stroke:#BCBEC0;stroke-dasharray:0.999,0.999;}
	.st32{fill:#FFFFFF;stroke:#39B54A;stroke-width:3;}
	.st33{fill:#BCBEC0;stroke:#39B54A;stroke-width:3;}
	.st34{fill:#FFFFFF;stroke:#29ABE2;stroke-width:3;}
	.st35{fill:#BCBEC0;stroke:#F7931E;stroke-width:3;}
	.st36{fill:#D1D3D4;stroke:#29ABE2;stroke-width:3;}
	.st37{fill:#D1D3D4;stroke:#F7931E;stroke-width:3;}
	.st38{fill:#FFFFFF;stroke:#93278F;stroke-width:3;}
</style>
<g id="Layer_2">
	<g>
		<path class="st0" d="M136,1444.6l-3.9,5.1l-1,1.3l-0.9,1.3l-1.8,2.5c-0.6,0.8-1.2,1.7-1.8,2.5l-1.8,2.6c-1.2,1.7-2.3,3.5-3.4,5.3
			c-4.5,7.1-8.6,14.5-12.1,22.1c-3.6,7.6-6.6,15.4-9.1,23.4c-1.2,4-2.3,8-3.2,12.1l-0.6,3l-0.5,3l-0.1,0.8l-0.1,0.3l-0.1,0.4
			l-0.2,1.6c-0.2,1.1-0.3,2.1-0.4,3.1c-1,8.2-1.3,16.7-0.9,25c0.3,8.4,1.3,16.7,2.7,25c1.4,8.3,3.4,16.6,5.7,24.7
			c2.3,8.2,4.9,16.3,7.6,24.5c2.7,8.2,5.5,16.4,7.9,24.9c1.2,4.2,2.3,8.5,3.2,13c0.9,4.4,1.5,9,1.6,13.7c0,2.3-0.1,4.7-0.4,7.1
			c-0.3,2.4-0.9,4.9-1.4,6.9c-0.6,2.3-1.2,4.3-1.9,6.4l-1.9,6.2c-2.6,8.3-5.2,16.5-7.7,24.7c-1.2,4.1-2.4,8.2-3.5,12.3
			c-0.5,2.1-1.1,4.1-1.5,6.1l-0.4,1.5l-0.2,0.9l-0.2,1c-0.3,1.1-0.6,2.2-1,3.2c-1.3,4.1-2.6,8.1-3.6,12.2c-1,4-1.9,8.1-2.4,12.2
			c-0.6,4.1-0.9,8.2-0.8,12.3c0,2,0.1,4.1,0.3,6.1l0.1,0.7l0.1,0.8c0.1,0.4,0.1,0.8,0.2,1.3c0.2,0.9,0.4,1.6,0.7,2.3
			c0.3,0.7,0.6,1.2,1,1.6c0.4,0.4,0.7,0.7,1.2,1c1,0.5,2.7,0.8,4.7,0.9c2,0.1,4.3,0.1,7.1,0.6c1.4,0.3,2.9,0.8,4.3,1.7
			c1.4,0.9,2.7,2.2,3.5,3.6l0.3,0.6l0.1,0.6c0.7,3.2,3.3,6,6.8,8.2c3.4,2.2,7.5,3.8,11.7,5.1c8.5,2.6,17.5,3.9,26.5,4.6
			c9.1,0.7,18.2,0.9,27.3,0.5c4.6-0.2,9.1-0.5,13.6-0.9c2.3-0.2,4.5-0.5,6.8-0.8c1.1-0.2,2.2-0.3,3.4-0.5l0.8-0.1l0.7-0.1
			c0.5-0.1,1-0.2,1.5-0.4c4-1.2,8-3.2,11.7-5.5c3.7-2.3,7.2-5.1,10.2-8.2c3-3.1,5.5-6.6,6.7-10.3c0.6-1.8,0.8-3.6,0.5-5.3
			c-0.1-0.8-0.4-1.6-0.8-2.4l-0.2-0.3l-0.1-0.1c-0.1-0.2,0.1,0.2,0,0c0,0-0.1-0.2-0.1-0.1c0,0.1,0.1,0.2,0.2,0.2c0,0,0,0,0,0
			c-0.1-0.1-0.5-0.3-0.9-0.5c-1.7-0.7-3.9-1.3-6.1-1.7c-2.2-0.5-4.4-0.9-6.7-1.2c-4.5-0.7-9.1-1.3-13.6-1.9
			c-9.2-1.1-18.4-2.1-27.6-3.1c-9.2-1-18.4-2-27.7-3.4c-4.6-0.7-9.2-1.4-13.9-2.4c-2.3-0.5-4.7-1.1-7-1.9c-1.2-0.4-2.4-0.9-3.8-1.8
			c-0.3-0.2-0.7-0.5-1.1-0.9c-0.4-0.4-0.8-0.9-1.1-1.6c-0.3-0.7-0.5-1.7-0.2-2.5c0.2-0.8,0.6-1.4,0.9-1.9c0.7-0.9,1.4-1.3,2-1.7
			l0.2-0.1c0.1-0.1,0.1-0.1,0.3-0.2l0.4-0.2l0.8-0.4c0.6-0.3,1.2-0.6,1.8-0.8c0.6-0.2,1.2-0.5,1.7-0.7c2.3-0.9,4.6-1.5,6.9-2.1
			c4.6-1.2,9.2-2,13.9-2.7c9.3-1.4,18.5-2.4,27.8-3.2c18.6-1.5,37.1-2.3,55.7-2.7c18.6-0.4,37.1-0.4,55.7,0.1
			c9.3,0.2,18.6,0.6,27.9,1.1c4.6,0.3,9.3,0.6,13.9,1.1c2.3,0.2,4.6,0.4,7,0.8c2.3,0.3,4.6,0.6,6.9,1c18.5,2.8,36.6,7,54.6,11.5
			c18,4.6,35.8,9.7,53.6,15.1c17.7,5.4,35.4,11.1,53,17c8.8,3,17.6,6,26.3,9c4.4,1.5,8.8,3.1,13.1,4.5c4.4,1.3,8.9,2.5,13.4,3.7
			c17.9,4.8,35.8,9.5,53.7,14.4c17.9,4.9,35.7,9.9,53.5,15.2c8.9,2.7,17.7,5.4,26.5,8.3c8.8,2.9,17.6,5.9,26.1,9.6
			c-8.5-3.6-17.3-6.6-26.1-9.4c-8.8-2.9-17.7-5.5-26.6-8.1c-17.8-5.2-35.7-10.1-53.6-14.8c-17.9-4.8-35.9-9.4-53.8-14.1
			c-4.5-1.2-9-2.4-13.4-3.7c-4.5-1.4-8.8-2.8-13.2-4.3c-8.8-2.9-17.6-5.8-26.4-8.6c-17.7-5.6-35.4-11-53.2-16.2
			c-17.8-5.1-35.7-9.9-53.7-14.2c-18-4.2-36.1-8.1-54.3-10.6c-2.3-0.3-4.6-0.6-6.9-0.8c-2.2-0.3-4.6-0.5-6.8-0.7
			c-4.6-0.4-9.2-0.7-13.8-1c-9.2-0.5-18.5-0.8-27.7-1c-18.5-0.4-37-0.3-55.5,0.2c-18.5,0.5-37,1.3-55.4,2.9
			c-9.2,0.8-18.4,1.8-27.4,3.2c-4.5,0.7-9,1.6-13.4,2.7c-2.2,0.6-4.3,1.2-6.4,2c-0.5,0.2-1,0.4-1.5,0.6c-0.5,0.2-0.9,0.4-1.3,0.6
			l-0.8,0.4l-0.4,0.2c0.1-0.1,0,0-0.1,0l-0.1,0.1c-0.3,0.2-0.6,0.5-0.6,0.5c0,0,0.1-0.1,0.1-0.3c0.1-0.2,0-0.7-0.1-0.8
			c-0.2-0.3-0.1-0.1,0.2,0.1c0.6,0.4,1.6,0.8,2.5,1.1c2,0.7,4.2,1.2,6.4,1.7c4.4,0.9,9,1.6,13.5,2.2c9.1,1.2,18.3,2.2,27.5,3.1
			c9.2,0.9,18.4,1.8,27.7,2.9c4.6,0.5,9.3,1.1,13.9,1.8c2.3,0.4,4.7,0.8,7,1.2c2.4,0.5,4.7,1,7.3,2.1c0.7,0.3,1.4,0.6,2.2,1.2
			c0.2,0.1,0.4,0.3,0.7,0.6c0.2,0.2,0.3,0.4,0.5,0.5c0.2,0.2,0.1,0.2,0.2,0.2c0,0,0.3,0.5,0.3,0.4l0.1,0.2l0.3,0.5
			c0.7,1.3,1.1,2.7,1.4,4.2c0.5,2.9,0.2,5.8-0.6,8.4c-0.8,2.6-2,4.9-3.4,7.1c-1.4,2.1-3,4.1-4.7,5.9c-3.4,3.6-7.2,6.7-11.3,9.3
			c-4.1,2.6-8.5,4.9-13.4,6.4c-0.6,0.2-1.2,0.4-1.9,0.5l-1,0.2l-0.9,0.2c-1.2,0.2-2.3,0.4-3.5,0.6c-2.3,0.4-4.7,0.7-7,0.9
			c-4.7,0.5-9.4,0.9-14.1,1.1c-9.4,0.4-18.8,0.4-28.2-0.3c-9.4-0.7-18.8-2-28.2-4.7c-4.7-1.4-9.3-3.2-13.7-5.9
			c-2.2-1.4-4.3-3.1-6.2-5.2c-1.9-2.1-3.4-4.8-4.1-7.7l0.5,1.1c-0.3-0.5-0.6-0.8-1-1c-0.4-0.2-0.9-0.5-1.7-0.6
			c-1.5-0.3-3.5-0.3-5.8-0.4c-2.3-0.1-5-0.2-7.9-1.6c-1.4-0.7-2.8-1.7-3.9-2.9c-1.1-1.2-1.8-2.6-2.4-3.9c-0.6-1.3-0.9-2.6-1.2-3.9
			c-0.1-0.6-0.2-1.3-0.3-1.9l-0.1-0.8l-0.1-0.9c-0.2-2.3-0.4-4.5-0.4-6.8c-0.1-4.5,0.2-9.1,0.8-13.5c0.6-4.5,1.4-8.9,2.5-13.2
			c1-4.3,2.3-8.6,3.6-12.7c0.3-1,0.6-2,0.9-3l0.2-0.6l0.2-0.7l0.4-1.6c0.5-2.2,1-4.3,1.5-6.4c1.1-4.3,2.3-8.4,3.5-12.6
			c2.4-8.3,5-16.6,7.5-24.8l1.9-6.2c0.6-2,1.2-4.1,1.7-6c0.6-2.2,0.9-3.8,1.1-5.8c0.2-1.9,0.3-3.8,0.2-5.8
			c-0.2-7.9-2.2-16.1-4.6-24.2c-2.4-8.1-5.3-16.2-8-24.4c-2.8-8.2-5.5-16.5-8-24.9c-2.4-8.4-4.5-17-6.1-25.7
			c-1.6-8.7-2.7-17.5-3.1-26.4c-0.4-8.9-0.2-17.8,0.8-26.7c0.1-1.1,0.2-2.3,0.4-3.3l0.2-1.6l0.1-0.9l0.1-0.8l0.5-3.4l0.6-3.3
			c0.9-4.4,2-8.8,3.3-13c2.5-8.6,5.7-16.9,9.4-25c3.7-8.1,7.9-15.9,12.6-23.4c1.1-1.9,2.3-3.8,3.6-5.6l1.8-2.8
			c0.6-0.9,1.3-1.8,1.9-2.8l1.9-2.8l1-1.4l1-1.3l3.9-5.2L136,1444.6z"/>
	</g>
	<g>
		<path class="st1" d="M135.3,1444.6c0,0-0.8,1-2.3,3c-0.8,1-1.8,2.2-2.8,3.7c-1.1,1.5-2.3,3.1-3.7,5.1c-1.4,1.9-2.9,4.2-4.5,6.6
			c-1.6,2.5-3.4,5.1-5.1,8.1c-3.5,5.9-7.3,12.9-10.8,20.9c-0.4,1-0.9,2-1.3,3.1c-0.4,1.1-0.8,2.1-1.2,3.2c-0.9,2.1-1.5,4.4-2.3,6.7
			c-1.4,4.6-2.6,9.5-3.4,14.6c-0.2,1.3-0.4,2.6-0.5,3.9c-0.1,1.3-0.3,2.6-0.3,4.1c-0.2,2.9-0.4,5.8-0.6,8.7
			c-0.3,5.9-0.6,11.9-0.7,18.2c-0.2,12.5,0.1,25.8,3,39c1.4,6.6,3.7,13.1,6.8,19.5c3.2,6.3,7.2,12.4,12,18.2
			c4.8,5.8,10.2,11.4,16,16.9c2.9,2.7,5.9,5.5,9,8.2c1.6,1.3,3.1,2.7,4.7,4c0.8,0.7,1.6,1.3,2.4,2l1.2,1l0.7,0.6l0.6,0.5
			c1.9,1.8,3.3,3.4,4.8,5.1c1.4,1.7,2.8,3.4,4.1,5.2c2.7,3.5,5.2,7.1,7.7,10.7c5,7.2,9.8,14.7,14.6,22.4c2.4,3.8,4.7,7.8,7,11.7
			c2.3,4,4.5,8,6.7,12.3l0.4,0.8c-0.1-0.2,0.1,0.2,0.1,0.2c0.1,0.2,0.1,0.2,0.1,0.2l0.3,0.4l0.4,0.6c0.6,0.8,1.3,1.6,2,2.4
			c1.4,1.6,3,3.3,4.6,5c3.2,3.3,6.5,6.6,9.8,9.9c6.6,6.6,13.4,13.3,20.1,20.4c3.3,3.5,6.6,7.1,9.9,10.9c1.6,1.9,3.2,3.9,4.7,5.9
			c1.5,2.1,3,4.2,4.3,6.7c0.6,1.3,1.3,2.7,1.7,4.5c0.1,0.4,0.2,1,0.2,1.5c0,0.9,0,0.2,0,1.2c-0.1,0.7-0.2,1.1-0.5,1.6
			c-0.5,1-1.2,1.8-1.9,2.3c-0.7,0.5-1.3,0.8-1.9,1c-1.1,0.4-2,0.5-2.8,0.6c-0.8,0.1-1.6,0.1-2.3,0.1c-1.4,0-2.8-0.1-4.1-0.2
			c-5.2-0.6-10.1-1.5-15.1-2.6c-9.8-2.1-19.5-4.4-29.3-6.7c-9.8-2.3-19.6-4.5-29.5-6.3c-9.9-1.9-19.9-3.5-29.9-4.1l-1.9-0.1l-0.9,0
			c-0.5,0-0.4,0-0.7,0l-0.5,0c-0.7-0.1-1.1-0.1-1.7-0.1c-0.5,0-1.1,0-1.7,0c-2.3,0.1-4.6,0.4-6.8,1c-4.6,1.1-9.1,3-13.4,5.4
			c-8.7,4.7-16.8,10.9-24.5,17.6c-7.6,6.8-14.8,14.1-21.6,21.9l-1.3,1.4c-0.3,0.4-0.6,0.8-0.8,1c-0.1,0.1-0.1,0.2,0-0.1
			c0-0.1,0.1-0.4,0-0.8c0-0.4-0.3-1-0.6-1.3c-0.7-0.7-1.1-0.7-1.1-0.7c0,0,0.1,0,0.3,0c0.8,0,2-0.2,3.1-0.5c1.2-0.3,2.4-0.6,3.6-0.9
			c4.8-1.4,9.7-3.2,14.5-5.1c4.8-1.8,9.6-3.8,14.5-5.7c4.8-2,9.6-4,14.6-5.9c0.6-0.2,1.3-0.5,1.9-0.7c0.3-0.1,0.7-0.2,1.1-0.4
			c0.2-0.1,0.4-0.1,1-0.2c1.2-0.1,0.6,0,1,0l3.9,0.2c2.6,0.1,5.2,0.2,7.8,0.4c5.2,0.3,10.4,0.6,15.6,0.9c20.8,1.5,41.4,3.6,61.8,6.1
			c10.2,1.3,20.4,2.6,30.4,4.1c5,0.7,10.1,1.5,15.1,2.3l3.7,0.6c1.3,0.2,2.4,0.3,3.6,0.5c2.4,0.2,4.9,0.4,7.4,0.5
			c9.9,0.4,19.8,0.1,29.7-0.5c9.9-0.5,19.7-1.3,29.4-2c4.9-0.3,9.8-0.7,14.6-0.9c2.4-0.1,4.9-0.2,7.4-0.1c1.2,0,2.5,0.1,3.7,0.1
			l3.6,0.2c9.6,0.6,19.1,1.2,28.4,1.8c18.8,1.2,37.1,2.3,55,3.4c35.8,2.3,69.6,4.6,100.8,7.2c15.6,1.3,30.5,2.7,44.7,4.3
			c7.1,0.8,14,1.6,20.7,2.6c6.7,1,13.2,2,19.4,3.3c3.1,0.7,6.2,1.4,9.1,2.5c1.5,0.6,2.9,1.1,4.2,2.1c0.2,0.1,0.3,0.3,0.5,0.4
			c0.1,0.2,0.3,0.3,0.4,0.5c0.2,0.3,0.4,0.6,0.7,0.8c0.5,0.5,1,1.1,1.5,1.5c2.2,1.9,4.7,3.4,7.2,4.7c2.5,1.3,5.1,2.4,7.6,3.5
			c10.2,4,20,6.5,28.9,8.5c8.9,2,16.9,3.4,23.9,4.4c7,1,13,1.6,17.9,1.7c2.4,0.1,4.6,0.1,6.4-0.1c0.9-0.1,1.8-0.2,2.5-0.6
			c0.3-0.2,0.7-0.4,0.7-0.8c0-0.3-0.3-0.6-0.5-0.8c-0.9-0.9-1.8-1.2-2.4-1.6c-0.6-0.3-0.9-0.4-0.9-0.4s0.3,0.1,0.9,0.4
			c0.6,0.3,1.5,0.7,2.4,1.5c0.2,0.2,0.5,0.5,0.5,0.9c0,0.4-0.3,0.7-0.7,0.8c-0.7,0.3-1.6,0.5-2.5,0.6c-1.9,0.2-4,0.2-6.5,0.2
			c-4.9-0.1-10.9-0.7-17.9-1.6c-7-0.9-15.1-2.2-24-4.1c-8.9-1.9-18.8-4.3-29.1-8.3c-2.6-1-5.2-2.1-7.7-3.4c-2.6-1.3-5.1-2.8-7.4-4.8
			c-0.6-0.5-1.1-1-1.6-1.6c-0.3-0.3-0.5-0.6-0.7-0.9c-0.1-0.2-0.2-0.3-0.3-0.4c-0.1-0.1-0.2-0.2-0.4-0.3c-1.1-0.8-2.5-1.4-3.9-1.9
			c-2.9-1-5.9-1.7-9-2.3c-6.2-1.3-12.7-2.2-19.4-3.1c-6.7-0.9-13.6-1.6-20.7-2.3c-14.2-1.4-29.1-2.6-44.7-3.8
			c-31.2-2.3-65-4.2-100.8-6c-17.9-0.9-36.3-1.8-55.1-2.8c-9.4-0.5-18.9-1-28.5-1.5l-3.6-0.2c-1.2-0.1-2.3-0.1-3.5-0.1
			c-2.3,0-4.7,0.1-7.1,0.2c-4.8,0.3-9.6,0.6-14.5,1c-9.7,0.8-19.6,1.7-29.5,2.3c-9.9,0.6-20,1.1-30.2,0.8c-2.6-0.1-5.1-0.2-7.7-0.5
			c-1.3-0.1-2.7-0.3-3.9-0.4l-1.9-0.3l-1.9-0.3c-5-0.8-10-1.5-15-2.2c-10.1-1.4-20.2-2.7-30.3-3.8c-20.3-2.4-40.9-4.3-61.6-5.6
			c-5.2-0.3-10.3-0.6-15.5-0.8c-2.6-0.1-5.2-0.2-7.8-0.3l-3.9-0.1c0.1,0-0.8,0,0,0c0.2,0,0.1,0,0,0c-0.2,0.1-0.5,0.1-0.7,0.2
			c-0.6,0.2-1.1,0.4-1.7,0.6c-4.7,1.9-9.6,4-14.4,6c-4.8,2-9.7,4-14.5,5.9c-4.9,1.9-9.8,3.8-15,5.4c-1.3,0.4-2.6,0.8-4,1.1
			c-1.4,0.3-2.8,0.6-4.6,0.7c-0.5,0-1,0-1.7-0.1c-0.3-0.1-0.7-0.2-1.2-0.4c-0.4-0.2-1.1-0.6-1.6-1.2c-0.5-0.6-0.9-1.5-1-2.2
			c-0.1-0.7,0-1.3,0.1-1.7c0.2-0.9,0.5-1.4,0.7-1.9c0.5-0.9,1-1.5,1.5-2.1l1.3-1.5c6.9-8,14.2-15.6,22-22.7
			c7.9-7.1,16.2-13.7,25.7-18.8c4.7-2.6,9.8-4.8,15.2-6.2c2.7-0.7,5.5-1.2,8.4-1.3c0.7,0,1.4,0,2.2,0c0.7,0,1.6,0,2.2,0.1l0.8,0.1
			l1,0l2,0.1c10.5,0.7,20.8,2.3,30.8,4.1c10.1,1.9,20,4.1,29.8,6.3c9.8,2.2,19.6,4.6,29.2,6.5c4.8,1,9.6,1.9,14.2,2.4
			c1.1,0.1,2.3,0.2,3.3,0.2c0.5,0,1,0,1.4-0.1c0.4,0,0.8-0.1,0.8-0.2c0,0,0,0-0.2,0.1c-0.2,0.1-0.5,0.5-0.7,0.9
			c-0.1,0.3-0.2,0.4-0.2,0.8c0,0.8,0-0.3,0,0.3c0-0.1,0-0.2-0.1-0.3c-0.1-0.5-0.5-1.4-0.9-2.3c-0.9-1.8-2.2-3.7-3.6-5.5
			c-1.4-1.8-2.9-3.7-4.4-5.5c-3.1-3.6-6.3-7.1-9.6-10.5c-6.6-6.9-13.4-13.5-20.1-20.1c-3.4-3.3-6.7-6.6-10-10
			c-1.6-1.7-3.3-3.4-4.9-5.2c-0.8-0.9-1.6-1.9-2.4-2.9l-0.6-0.8c-0.2-0.3-0.4-0.6-0.7-1c-0.1-0.2-0.3-0.4-0.3-0.5l-0.3-0.5l-0.4-0.7
			c-2-3.9-4.2-7.9-6.5-11.7c-2.3-3.9-4.6-7.7-7-11.4c-4.7-7.5-9.5-14.9-14.5-21.9c-2.5-3.5-5-6.9-7.5-10.2c-1.3-1.6-2.6-3.3-3.9-4.8
			c-1.3-1.5-2.7-3-3.9-4.1l-0.6-0.5l-0.5-0.4l-1.2-1c-0.8-0.7-1.6-1.4-2.4-2c-1.6-1.3-3.2-2.7-4.8-4.1c-3.2-2.7-6.3-5.5-9.3-8.3
			c-6.1-5.6-11.8-11.5-17-17.7c-5.2-6.2-9.7-12.9-13.4-20c-3.5-7.1-6.2-14.4-7.8-21.7c-1.7-7.3-2.6-14.5-3.1-21.4
			c-0.5-6.9-0.6-13.6-0.5-20.1c0.1-6.5,0.3-12.7,0.6-18.6c0.1-3,0.3-5.9,0.5-8.8c0.1-1.4,0.2-2.9,0.3-4.4c0.1-1.5,0.3-3,0.5-4.4
			c0.8-5.8,2.1-11.2,3.6-16.2c0.8-2.5,1.5-5,2.4-7.3c0.4-1.2,0.9-2.3,1.3-3.5c0.5-1.1,0.9-2.2,1.4-3.3c3.6-8.7,7.6-16.2,11.2-22.4
			c1.8-3.2,3.6-6,5.3-8.6c1.7-2.6,3.2-4.9,4.7-7c1.5-2.1,2.8-3.9,3.9-5.4c1.1-1.5,2.1-2.8,2.8-3.8c1.5-2,2.3-3.1,2.3-3.1
			L135.3,1444.6z"/>
	</g>
	<g>
		<path class="st2" d="M131.9,1450.3l-2.8,3.6c-0.9,1.2-1.9,2.4-2.7,3.6c-1.7,2.4-3.4,4.7-5,7.2l-2.4,3.7l-2.3,3.8l-1.1,1.9
			l-1.1,1.9l-2.1,3.9c-2.7,5.2-5.2,10.6-7.5,16c-2.2,5.5-4.1,11.1-5.7,16.7c-1.6,5.7-3,11.5-4.1,17.3l-3.5,17.9l-7.2,35.9
			c-2.4,11.9-4.7,23.8-6.7,35.8c-2,11.9-3.7,23.9-4.4,35.8c-0.8,11.9-0.7,23.8,1,35.5c1.7,11.6,5,23,10.1,33.5
			c2.5,5.3,5.5,10.4,8.8,15.3c3.4,4.9,6.7,9.7,10.8,13.3c4.1,3.7,8.9,6.3,14.4,8.5c2.7,1.1,5.7,2.1,8.8,3.6c1.5,0.8,3.1,1.7,4.6,2.9
			c1.5,1.2,2.8,2.6,3.9,4.1c1.1,1.6,2,3.2,2.6,4.9c0.4,0.8,0.6,1.7,0.8,2.5c0.1,0.4,0.2,0.8,0.3,1.3l0.1,0.6l0.1,0.3
			c0-0.1,0.1,0.3,0.1,0.3l0,0.1c0.2,1.3,0.5,3.6,0.4,5.3c-0.1,1.8-0.3,3.7-0.8,5.4c-1,3.5-2.7,6.6-4.7,9.4c-2,2.7-4.3,5.1-6.6,7.3
			c-2.3,2.2-4.7,4.2-6.9,6.2c-2.2,2-4.4,4-5.7,5.9l-0.2,0.3l-0.1,0.1c0.2-0.4,0,0,0-0.1l-0.1,0.1c0,0.1,0,0,0,0
			c0-0.1,0.1-0.2,0.1-0.2c0,0,0-0.1,0-0.1c0,0,0-0.1,0-0.1c0-0.1,0,0.2,0.2,0.5c0.4,0.7,1.3,1.7,2.2,2.5c2,1.7,4.4,3.3,6.9,4.6
			c5.1,2.7,10.7,4.7,16.3,6.2c5.7,1.5,11.6,2.6,17.5,3.1c1.5,0.1,3,0.3,4.4,0.3l2.2,0.1l2.3,0l4.6,0.1l4.5,0c6,0,12.1-0.2,18-0.7
			c6-0.5,11.9-1.2,17.7-2.4c5.8-1.2,11.5-2.9,16.7-5.4c5.2-2.5,9.8-5.9,13.2-10.4c3.5-4.4,5.8-9.8,8-15.5l0.1-0.2l0.1-0.2
			c0.5-0.8,1-1.3,1.5-1.7c0.5-0.4,0.9-0.7,1.4-1c0.9-0.5,1.7-1,2.6-1.4c1.7-0.8,3.4-1.4,5.1-2c3.4-1.1,6.8-2.1,10.2-2.9
			c6.8-1.7,13.6-3,20.5-4.1c13.7-2.2,27.5-3.7,41.4-4.5c13.9-0.7,27.8-0.7,41.7,0.7c6.9,0.7,13.9,1.8,20.7,3.4
			c1.7,0.4,3.4,0.9,5.1,1.4l1.3,0.4l0.3,0.1l0.4,0.1l0.6,0.2c0.4,0.1,0.9,0.4,1.4,0.5c0.5,0.2,0.9,0.4,1.3,0.6
			c1.7,0.9,3.5,2.3,4.7,4.1c0.6,0.9,1.1,1.9,1.4,2.9c0.3,1,0.5,2,0.6,3.1c0.2,2,0,3.9-0.4,5.7c-0.3,1.8-0.8,3.6-1.3,5.3
			c-1,3.4-2.2,6.6-3.4,9.9c-2.2,6.4-4.3,12.9-4.5,19.5c-0.1,3.3,0.2,6.5,1.2,9.5c1,3.1,2.5,5.9,4.6,8.5c2,2.5,4.5,4.7,7.2,6.6
			c2.7,1.9,5.7,3.5,8.7,4.9c6.2,2.7,12.7,4.3,19.5,4c6.9,0,13.8-0.2,20.7-0.5c13.8-0.6,27.5-1.4,41.3-2.6c13.7-1.1,27.5-2.5,41.2-4
			c13.7-1.4,27.3-3.8,40.9-6c13.6-2.2,27.2-4.6,40.9-6.2c1.7-0.2,3.4-0.4,5.2-0.6c1.7-0.2,3.5-0.3,5.2-0.3c3.5,0,6.9,0.4,10.4,0.9
			c6.9,1,13.6,2.4,20.3,4c13.4,3.2,26.7,7.2,39.8,11.6c3.3,1.1,6.5,2.3,9.8,3.5c3.2,1.2,6.5,2.4,9.6,3.9c0.8,0.4,1.6,0.7,2.3,1.3
			c0.1,0.1,0.2,0.2,0.3,0.4c0.1,0.1-0.1,0.4-0.1,0.4c-0.2,0.1-0.2,0.1-0.2,0.1c-0.2,0.1-0.5,0.1-0.7,0.1c-0.4,0-0.9,0-1.3,0
			c-1.7,0-3.5-0.1-5.2-0.2c-3.4-0.2-6.9-0.5-10.3-0.9c-13.7-1.6-27.3-4.1-40.7-7.7c-13.3-3.6-26.4-8.3-38.4-15.1
			c12,6.8,25.2,11.4,38.5,15c13.3,3.5,27,6,40.7,7.5c3.4,0.4,6.9,0.7,10.3,0.9c1.7,0.1,3.4,0.2,5.2,0.2c0.4,0,0.9,0,1.3,0
			c0.2,0,0.4,0,0.6-0.1c0.1-0.1,0,0,0,0.1c0,0-0.1-0.1-0.1-0.1c-0.6-0.5-1.4-0.9-2.2-1.2c-3.1-1.5-6.3-2.7-9.6-3.9
			c-3.2-1.2-6.5-2.3-9.8-3.4c-13.1-4.4-26.3-8.2-39.7-11.4c-6.7-1.6-13.5-3-20.3-3.9c-3.4-0.5-6.8-0.8-10.3-0.8
			c-1.7,0-3.4,0.1-5.1,0.3c-1.7,0.2-3.4,0.4-5.1,0.6c-13.7,1.8-27.2,4.2-40.8,6.6c-13.6,2.4-27.2,4.9-40.9,6.4
			c-13.7,1.7-27.4,3.2-41.2,4.5c-13.8,1.3-27.5,2.3-41.3,3c-6.9,0.3-13.8,0.6-20.7,0.7c-1.7,0-3.5,0.1-5.3-0.1
			c-1.8-0.1-3.6-0.4-5.3-0.7c-3.5-0.7-6.9-1.7-10.2-3.1c-3.3-1.4-6.5-3-9.4-5c-3-2-5.7-4.3-8.1-7.2c-2.3-2.8-4.2-6.1-5.3-9.6
			c-1.2-3.5-1.6-7.2-1.5-10.9c0.2-7.3,2.3-14.2,4.5-20.8c1.1-3.3,2.2-6.5,3.2-9.8c0.9-3.2,1.7-6.5,1.4-9.3c-0.2-2.9-1.8-4.9-4.4-6.3
			c-0.3-0.2-0.7-0.3-1-0.5c-0.4-0.1-0.6-0.3-1-0.4l-0.6-0.2l-0.5-0.2l-1.2-0.4c-1.6-0.5-3.3-0.9-4.9-1.3c-6.6-1.6-13.3-2.5-20.1-3.2
			c-13.6-1.3-27.3-1.3-41-0.5c-13.7,0.8-27.3,2.3-40.8,4.6c-6.7,1.2-13.5,2.5-20.1,4.2c-3.3,0.8-6.6,1.8-9.7,2.8
			c-1.6,0.5-3.1,1.1-4.6,1.8c-0.7,0.3-1.4,0.7-2,1c-0.3,0.2-0.6,0.4-0.7,0.5c-0.2,0.2-0.3,0.3-0.2,0.2l0.2-0.4
			c-2.2,5.7-4.6,11.7-8.7,16.9c-2,2.6-4.3,4.9-6.9,7c-2.6,2-5.4,3.7-8.2,5.1c-5.8,2.8-11.9,4.6-18,5.9c-6.1,1.3-12.3,2.1-18.5,2.6
			c-6.2,0.5-12.3,0.7-18.5,0.8l-4.6,0l-4.6-0.1l-2.3,0l-2.4-0.1c-1.6-0.1-3.1-0.1-4.7-0.3c-6.2-0.5-12.5-1.5-18.6-3
			c-6.1-1.5-12.1-3.6-17.9-6.5c-2.9-1.5-5.7-3.1-8.4-5.4c-1.3-1.2-2.6-2.4-3.8-4.3c-0.5-1-1.1-2.1-1.2-3.8c0-0.4,0-0.8,0.1-1.2
			c0-0.2,0.1-0.4,0.1-0.6c0.1-0.2,0.2-0.5,0.3-0.8c0.1-0.1,0.1-0.3,0.1-0.3l0.1-0.1c0.1-0.1-0.1,0.1,0.2-0.3l0.1-0.2l0.4-0.6
			c1-1.6,2.2-2.9,3.3-4.1c1.1-1.2,2.3-2.3,3.4-3.3c2.3-2.1,4.5-4.1,6.6-6.1c4.1-4.1,7.7-8.5,8.9-13.3c0.3-1.2,0.4-2.4,0.5-3.6
			c0-0.6,0-1.2-0.1-1.7c0-0.4-0.2-1.3-0.3-2l-0.5-1.8c-0.2-0.6-0.4-1.2-0.6-1.8c-0.4-1.2-1-2.2-1.7-3.1c-1.3-1.9-3.2-3.2-5.6-4.3
			c-2.4-1.1-5.2-2.1-8.2-3.2c-2.9-1.1-6-2.4-8.9-4c-2.9-1.6-5.7-3.6-8.2-5.7l-1.8-1.7l-1.7-1.8l-1.7-1.9c-0.6-0.6-1-1.2-1.5-1.8
			l-0.4-0.4l-0.2-0.3l-0.2-0.2l-0.7-0.9c-0.5-0.6-1-1.2-1.4-1.9c-0.9-1.3-1.8-2.5-2.7-3.8c-3.6-5.2-6.8-10.6-9.6-16.3
			c-5.6-11.3-9.4-23.6-11.3-36.1c-1.9-12.5-2.2-25.1-1.4-37.5c0.7-12.4,2.3-24.7,4.2-36.8c1.9-12.1,4.2-24.2,6.4-36.2l6.8-35.9
			l3.3-18c1.1-6.1,2.5-12.2,4.1-18.3c1.6-6.1,3.6-12.1,5.9-17.9c2.3-5.9,4.9-11.6,7.8-17.2l2.2-4.2l1.1-2.1l1.2-2l2.4-4.1l2.5-4
			c1.6-2.7,3.5-5.2,5.3-7.9c0.9-1.3,1.8-2.5,2.7-3.7l2.7-3.7L131.9,1450.3z"/>
	</g>
	<g>
		<path class="st3" d="M153.6,1360.3c0,0,0.1,0.5,0.3,1.5c0.2,1,0.6,2.4,0.9,4.5c0.4,2.1,0.8,4.7,1.1,7.7c0.1,1.5,0.3,3.1,0.4,4.9
			c0,0.9,0.1,1.8,0.1,2.7c0,0.9,0,1.9,0,2.9c-0.1,7.8-1.2,17.5-4.7,27.8c-3.4,10.3-9.2,21.1-16.3,31.7c-3.5,5.3-7.4,10.7-11.2,16.2
			c-1,1.4-1.9,2.8-2.9,4.2l-0.2,0.3l-0.1,0.1c-0.1,0.2,0.1-0.1,0-0.1l-0.3,0.5l-0.7,1.1c-0.5,0.7-0.9,1.5-1.4,2.2
			c-1.8,2.9-3.6,5.9-5.4,9c-1.8,3-3.6,6.2-5.2,9.3c-0.4,0.8-0.8,1.6-1.1,2.3c-0.4,0.8-0.8,1.7-1.2,2.5c-0.8,1.7-1.5,3.4-2.3,5
			c-3,6.8-5.7,13.8-8.1,21.1c-1.2,3.6-2.3,7.4-3.3,11.1c-1,3.9-2,7.8-3,11.7c-2,7.8-4,15.7-6,23.7c-3.9,16-7.6,32.2-10.9,48.6
			c-1.6,8.2-3.1,16.4-4.5,24.6c-1.3,8.2-2.5,16.4-3.4,24.5c-1.9,16.3-2.8,32.4-2.5,48c0.3,15.6,1.7,30.7,3.1,45
			c1.4,14.3,2.7,27.9,2.8,40.5c0.1,6.3-0.2,12.4-0.9,18.1c-0.8,5.7-2,11.1-3.8,15.9c-0.5,1.2-0.9,2.4-1.5,3.5
			c-0.6,1.2-1.2,2.2-1.9,3.2c-1.3,2-2.7,3.9-3.9,5.7c-1.2,1.8-2.3,3.6-3,5.5c-0.7,1.8-1.1,3.7-0.9,5.5c0.2,1.8,0.9,3.4,1.7,4.7
			c0.9,1.3,1.9,2.5,3,3.4c2.1,1.9,4.3,3.1,6,4c1.7,0.9,3.1,1.5,4.1,1.9c0.9,0.4,1.4,0.6,1.4,0.6s-0.5-0.2-1.4-0.5
			c-0.9-0.4-2.3-0.9-4.1-1.8c-1.8-0.9-3.9-2-6.1-3.8c-1.1-0.9-2.2-2-3.1-3.4c-0.9-1.4-1.7-3-1.9-4.9c-0.3-1.9,0-3.9,0.7-5.8
			c0.7-1.9,1.7-3.8,2.9-5.7c1.2-1.9,2.5-3.8,3.7-5.8c0.6-1,1.2-2.1,1.7-3.1c0.5-1.1,0.9-2.3,1.3-3.5c1.6-4.8,2.7-10.1,3.3-15.7
			c0.6-5.6,0.6-11.6,0.4-17.9c-1-25-6.7-53.8-8.2-85.4c-0.7-15.8-0.2-32.2,1.3-48.7c0.7-8.3,1.7-16.6,2.8-24.9
			c1.2-8.3,2.4-16.6,3.9-24.9c2.8-16.6,6.1-33,9.7-49.2c1.7-8.1,3.6-16.1,5.4-24c0.5-2,0.9-3.9,1.4-5.9l0.7-2.9l0.3-1.5l0.3-1.4
			c0.9-4.1,1.9-8,3.1-11.8c2.2-7.7,4.8-15.1,7.7-22.3c0.7-1.8,1.5-3.6,2.2-5.3c0.4-0.9,0.7-1.7,1.1-2.6c0.4-1,0.8-1.9,1.3-2.7
			c1.7-3.5,3.5-6.7,5.3-9.9c1.8-3.2,3.6-6.3,5.4-9.3c0.5-0.8,0.9-1.5,1.4-2.3l0.7-1.1l0.3-0.6l0.5-0.7c1-1.4,2-2.9,2.9-4.3
			c3.9-5.6,7.6-10.9,11-16c6.7-10.3,11.9-20,14.8-29.1c3-9.1,4-17.3,4-24.1c0-0.9,0-1.7,0-2.5c0-0.8-0.1-1.6-0.1-2.3
			c0-1.5-0.2-2.9-0.4-4.3c-0.3-2.6-0.7-4.9-1-6.6c-0.3-1.7-0.7-3.3-0.9-4.2c-0.2-1-0.3-1.5-0.3-1.5L153.6,1360.3z"/>
	</g>
</g>
<g id="index-nav">
</g>
</svg>
