<?xml version="1.0" encoding="utf-8"?>
<!-- Generator: Adobe Illustrator 19.1.1, SVG Export Plug-In . SVG Version: 6.00 Build 0)  -->
<svg version="1.1" id="Layer_1" xmlns="http://www.w3.org/2000/svg" xmlns:xlink="http://www.w3.org/1999/xlink" x="0px" y="0px"
	 viewBox="0 0 832 552" style="enable-background:new 0 0 832 552;" xml:space="preserve">
<style type="text/css">
	.st0{fill:none;stroke:#D3D5D8;stroke-miterlimit:10;stroke-dasharray:1,1;}
	.st1{fill:none;stroke:#D3D5D8;stroke-miterlimit:10;}
	.st2{fill:none;stroke:#D3D5D8;stroke-miterlimit:10;stroke-dasharray:0.9984,0.9984;}
	.st3{fill:none;stroke:#D3D5D8;stroke-miterlimit:10;stroke-dasharray:1.0015,1.0015;}
	.st4{fill:none;stroke:#D3D5D8;stroke-width:1.0147;stroke-miterlimit:10;stroke-dasharray:1.0147,1.0147;}
	.st5{fill:none;stroke:#95989C;stroke-width:1.5;stroke-miterlimit:10;}
	.st6{fill:#95989C;}
	.st7{fill:none;stroke:#D3D5D8;stroke-width:1.1853;stroke-miterlimit:10;stroke-dasharray:1.1853,1.1853;}
	.st8{fill:none;stroke:#95989C;stroke-width:0.894;stroke-miterlimit:10;}
	.st9{fill:none;stroke:#95989C;stroke-width:1.8727;stroke-miterlimit:10;}
	.st10{fill:none;}
</style>
<g>
	<path class="st0" d="M530.7,352.7c-2.6-0.6-5.2-1.2-7.7-1.8C413.7,323.4,311.4,256,340,117.8"/>
	<g>
		<g>
			<path class="st1" d="M399.3,86.5c0.1,0.1,0.2,0.2,0.4,0.4"/>
			<path class="st2" d="M400.4,87.5c3.6,3.5,6.2,5.7,10.5,9.2c35.1,28.7,77.1,43,119.2,43.7"/>
			<path class="st1" d="M530.6,140.5c0.2,0,0.3,0,0.5,0"/>
		</g>
	</g>
	<g>
		<g>
			<path class="st1" d="M380.8,384.1c0.1-0.1,0.2-0.3,0.3-0.4"/>
			<path class="st3" d="M381.6,382.8c2.9-4.6,5.6-9.3,8.1-14.2c20.8-40.2,26.1-84.4,18.1-125.6"/>
			<path class="st1" d="M407.7,242.5c0-0.2-0.1-0.3-0.1-0.5"/>
		</g>
	</g>
	<path class="st4" d="M404.6,63.7c101.8,28.7,166.8,121.7,173,219.9"/>
	<path class="st0" d="M320.7,372.4c-57.2-80.2-59.3-187-7.7-268.9"/>
	<g>
		<g>
			<path class="st5" d="M244.7,183.2c10.5-33.5,30.5-63.8,55.8-86.8"/>
			<g>
				<polygon class="st6" points="304.9,92.6 301,100.5 300.2,96.7 296.5,95.5 				"/>
			</g>
		</g>
	</g>
	<g>
		<g>
			<path class="st5" d="M301,392.7c-21.9-19.5-45.3-48.3-55.9-79.6"/>
			<g>
				<polygon class="st6" points="243.4,307.6 249.1,314.4 245.3,313.6 242.7,316.4 				"/>
			</g>
		</g>
	</g>
	<path class="st7" d="M285.2,264.4c46.1,20.5,57.2,47,60,88.2"/>
	<g>
		<g>
			<path class="st5" d="M547.7,396.2c-34.8,36.4-89.1,53.5-142.7,43.4"/>
			<g>
				<polygon class="st6" points="399.3,438.5 408,436.7 405.5,439.7 406.8,443.3 				"/>
			</g>
		</g>
	</g>
	<g>
		<g>
			<path class="st5" d="M610.6,185.2c5.4,17.9,9.6,40,9.6,59.6c0,12.3-0.7,22.1-2.7,33.1"/>
			<g>
				<polygon class="st6" points="616.3,283.7 614.5,275 617.4,277.5 621.1,276.2 				"/>
			</g>
		</g>
	</g>
	<g>
		<g>
			<path class="st5" d="M404.6,52.2c5.9-0.5,15.9-1,21.9-1c36.4,0,70.5,10.1,99.6,27.5"/>
			<g>
				<polygon class="st6" points="531.1,81.9 522.3,80.4 525.7,78.6 525.8,74.7 				"/>
			</g>
		</g>
	</g>
	<path class="st8" d="M349.3,114.5"/>
	<g>
		<g>
			<path class="st5" d="M404.6,71.9c17.3,6.9,31.4,21.6,37.1,41c3.7,12.8,3.3,25.8-0.5,37.5"/>
			<g>
				<polygon class="st6" points="439.1,155.8 438.8,147 441.3,149.9 445.1,149.3 				"/>
			</g>
		</g>
	</g>
	<path class="st9" d="M403.6,72.4"/>
	<g>
		<g>
			<path class="st5" d="M341.4,177c-8.4-7.6-15-17.6-18.4-29.4c-3.3-11.4-3.3-23-0.6-33.7"/>
			<g>
				<polygon class="st6" points="324.2,108.4 325,117.2 322.4,114.4 318.6,115.3 				"/>
			</g>
		</g>
	</g>
	<rect class="st10" width="832" height="552"/>
	<rect x="0.3" class="st10" width="832" height="552"/>
</g>
</svg>
